<svg width="674" height="522" viewBox="0 0 674 522" fill="none" xmlns="http://www.w3.org/2000/svg">
<g clip-path="url(#clip0_1331_697)">
<rect width="674" height="522" fill="black"/>
</g>
<path d="M191.229 328.143C191.564 309.68 199.031 292.442 208.593 276.944C210.985 273.07 213.517 269.283 216.142 265.569C217.27 263.97 218.413 262.38 219.584 260.81C219.73 260.616 220.503 259.6 220.328 259.823C220.002 260.246 220.566 259.517 220.634 259.429C220.868 259.128 221.106 258.827 221.339 258.525C225.141 253.659 228.996 248.808 232.228 243.533C235.461 238.259 238.334 232.294 238.538 226.013C238.742 219.733 235.164 213.86 229.603 210.579C225.695 208.27 221.504 207.448 217.09 206.748C213.06 206.112 209.347 204.94 206.333 202.072C205.725 201.493 205.108 200.876 204.587 200.21C204.466 200.054 203.931 199.004 203.703 198.883C203.824 198.946 203.042 198.188 203.508 198.888C204.179 199.899 201.855 198.966 203.805 198.97C204.524 198.97 205.185 199.043 205.939 199.369C207.937 200.234 209.735 201.741 211.529 202.957C213.542 204.318 215.574 205.655 217.649 206.919C225.505 211.712 234.387 215.659 243.754 215.63C251.576 215.606 259.927 212.908 265.348 207.05C271.901 199.967 272.129 190.633 273.169 181.577C274.093 173.507 277.233 165.88 281.983 159.318C291.788 145.755 309.186 138.716 325.695 141.195C334.741 142.556 342.427 146.377 348.251 153.489C351.391 157.324 354.264 161.403 357.244 165.37C360.326 169.477 363.637 173.493 366.388 177.834C368.216 180.726 370.593 184.756 369.31 188.3C368.614 190.225 367.19 191.815 366.495 193.779C365.712 195.991 365.673 198.479 366.266 200.75C368.663 209.937 378.235 212.091 384.428 217.885C394.301 227.122 398.093 243.028 392.4 255.497C390.563 259.517 387.797 263.109 386.936 267.533C386.159 271.539 386.402 275.744 387.797 279.594C390.791 287.858 397.339 294.041 405.691 296.725C424.825 302.864 442.694 290.682 457.006 279.467C464.215 273.819 471.526 267.849 480.033 264.232C481.409 263.649 483.135 262.75 484.642 263.236C484.608 263.226 484.865 263.386 485.128 263.688C485.099 263.654 485.624 264.524 485.736 264.845C486.718 267.548 486.261 270.469 485.313 273.25C479.659 289.827 462.723 299.014 446.559 302.466C441.96 303.448 437.333 303.973 432.651 304.357C428.266 304.716 423.638 305.198 419.837 307.619C413.148 311.877 410.596 323.077 418.432 327.681C427.615 333.077 437.026 321.434 442.928 315.999C450.506 309.023 458.1 302.057 465.664 295.072C478.92 282.826 492.045 269.789 498.846 252.721C502.531 243.47 503.814 233.412 504.451 223.539C505.02 214.701 505.652 205.582 504.67 196.754C503.737 188.397 501.194 179.9 494.826 174.018C487.52 167.266 477.749 167.168 469.689 172.705C462.625 177.557 454.877 185.583 457.244 194.887C459.611 204.191 468.42 207.891 473.894 214.658C475.731 216.928 477.36 219.883 475.794 222.708C474.229 225.532 470.632 226.879 467.861 227.938C469.757 229.834 471.648 231.725 473.544 233.621C474.589 226.023 476.703 218.556 480.145 211.683C483.417 205.144 488.866 199.102 490.184 191.737C491.54 184.163 488.22 177.226 481.779 173.114C475.347 169.011 467.088 169.166 460.015 171.334C452.587 173.609 446.029 178.393 446.277 186.915C446.384 190.682 447.473 194.416 448.066 198.125C448.606 201.479 448.936 204.862 449.102 208.255C449.787 222.231 447.395 236.737 439.506 248.55C436.19 253.513 431.494 258.078 425.539 259.512C421.082 260.586 415.511 258.934 412.866 255.035C410.042 250.878 412.433 246.095 414.796 242.26C417.917 237.184 421.743 232.469 423.468 226.67C425.739 219.038 422.778 211.483 420.547 204.216C418.14 196.384 416.147 188.247 412.915 180.707C409.682 173.167 404.106 168.262 398.132 163.036C391.671 157.383 385.24 151.7 378.77 146.056C375.537 143.237 372.294 140.422 369.032 137.632C366.3 135.293 363.578 133.15 360.214 131.808C354.405 129.494 348.251 130.7 343.472 134.618C338.251 138.9 336.137 145.395 333.691 151.433C331.83 156.031 329.219 161.792 323.668 162.521C317.29 163.357 310.586 158.695 305.963 154.821C300.869 150.548 296.605 145.444 293.382 139.63C286.44 127.107 286.168 110.934 273.101 102.446C267.506 98.81 260.632 98.1829 254.551 100.91C249.981 102.957 246.525 106.744 243.506 110.623C240.308 114.73 237.527 119.106 233.706 122.669C229.574 126.529 224.353 127.389 218.617 126.752C211.811 125.994 205.142 123.836 198.229 124.21C191.316 124.584 185.629 127.151 180.714 131.579C171.162 140.189 167.273 153.523 165.037 165.739C162.202 181.232 161.361 197.055 157.759 212.412C156.855 216.257 155.781 220.068 154.463 223.792C153.574 226.315 152.568 228.988 150.749 231.001C146.69 235.507 140.259 230.141 137.717 226.441C130.332 215.678 135.101 199.369 145.451 192.15C147.687 190.59 150.502 189.146 153.321 189.515C156.141 189.885 158.299 192.534 160.005 194.712C164.4 200.317 168.678 206.18 171.891 212.558C175.036 218.809 176.436 225.333 175.483 232.294C174.944 236.251 174.302 240.3 175.556 244.204C176.81 248.108 179.397 251.078 182.075 253.897C192.211 264.563 205.769 271.208 216.492 281.237C228.714 292.661 239.885 305.324 251.406 317.443C256.845 323.165 262.319 328.93 266.821 335.439C270.992 341.467 274.433 348.025 277.102 354.85C282.547 368.758 285.424 383.531 287.627 398.256C288.735 405.669 289.756 413.525 288.2 420.943C287.087 426.261 284.112 433.208 278.157 434.545C272.547 435.804 267.491 429.402 264.764 425.333C261.06 419.806 258.858 413.486 257.827 406.933C255.557 392.486 259.971 377.688 266.072 364.718C272.61 350.815 280.918 337.564 290.398 325.479C295.186 319.378 300.314 313.559 305.691 307.973C310.776 302.689 316.006 297.532 320.707 291.893C325.228 286.477 330.503 280.104 332.296 273.128C333.176 269.716 333.064 265.953 331.003 262.983C328.942 260.013 325.291 258.637 321.689 258.107C313.916 256.96 306.255 258.608 298.671 260.227C291.875 261.675 284.793 263.143 277.948 261.15C274.749 260.217 271.721 258.622 269.086 256.581C267.866 255.638 266.738 254.554 265.673 253.436C265.304 253.047 264.755 252.609 264.516 252.118C264.264 251.603 264.448 252.59 264.546 252.327C264.609 252.162 264.915 251.768 265.051 251.637C269.698 247.257 270.564 239.552 269.519 233.636C266.986 219.305 252.3 211.692 238.684 213C226.764 214.142 212.871 220.904 208.481 232.78C203.678 245.774 214.529 259.959 222.788 268.884C231.985 278.826 243.287 287.095 250.905 298.421C258.523 309.748 260.034 323.529 254.818 336.402C250.545 346.946 241.873 355.774 231.878 361.048C223.322 365.559 213.469 367.057 205.283 361.792C194.408 354.797 191.127 340.203 191.209 328.143C191.248 322.197 182.012 322.193 181.973 328.143C181.881 342.376 185.984 358.156 197.505 367.475C206.61 374.839 218.529 375.996 229.418 372.141C254.381 363.304 272.508 335.668 265.912 309.155C262.358 294.892 251.712 284.061 241.392 274.246C232.058 265.37 220.362 255.667 217.124 242.605C214.266 231.059 228.038 223.86 237.668 222.367C243.574 221.449 250.263 222.489 255.042 226.276C259.14 229.523 261.512 235.221 260.55 240.407C259.995 243.397 258.158 245.137 256.627 247.626C254.152 251.656 255.431 255.769 258.352 259.113C263.053 264.5 269.66 268.637 276.606 270.362C284.331 272.282 292.23 271.014 299.882 269.4C306.809 267.941 314.475 265.715 321.558 267.441C322.36 267.635 323.206 267.747 323.532 268.525C323.959 269.536 323.308 271.116 322.963 272.035C321.796 275.151 319.662 278.082 317.737 280.775C313.396 286.856 308.102 292.228 302.905 297.57C291.9 308.887 281.706 320.802 272.946 333.961C256.651 358.438 240.069 390.954 251.984 420.652C256.826 432.722 268.979 449.265 283.898 442.226C290.276 439.216 294.568 432.566 296.459 425.97C298.749 417.997 298.355 409.573 297.305 401.445C295.336 386.2 292.58 370.819 287.442 356.294C284.87 349.031 281.715 341.919 277.715 335.318C273.714 328.716 268.483 322.309 263.102 316.442C251.498 303.798 239.642 291.246 227.518 279.093C221.913 273.473 215.943 268.35 209.492 263.727C203.596 259.497 197.441 255.579 192.031 250.713C189.488 248.424 186.693 245.896 184.992 242.887C183.106 239.542 184.331 235.352 184.773 231.774C185.711 224.229 183.966 216.933 180.879 210.073C177.792 203.214 173.349 197.113 168.823 191.178C164.186 185.097 158.97 179.414 150.594 180.386C135.626 182.121 125.598 199.262 124.839 213.092C124.445 220.321 126.784 227.54 131.275 233.198C135.641 238.701 143.074 243.31 150.336 241.657C157.599 240.004 160.953 232.907 163.194 226.66C165.921 219.072 167.618 211.162 168.901 203.214C171.361 187.97 172.017 172.156 176.397 157.276C179.338 147.276 185.429 134.934 197.062 133.524C204.106 132.673 211.267 135.128 218.208 135.935C225.15 136.742 231.684 135.76 237.158 131.701C241.674 128.356 244.984 123.923 248.304 119.446C251.022 115.781 253.997 111.644 257.808 109.548C259.432 108.654 261.318 108.139 263.437 108.406C266.398 108.775 269.028 110.574 271.084 112.64C276.081 117.662 277.826 124.847 279.96 131.38C284.588 145.531 293.003 157.699 305.55 165.953C311.821 170.08 319.822 173.264 327.377 171.14C333.944 169.293 338.203 163.824 340.896 157.845C343.317 152.478 344.741 145.414 349.515 141.53C353.302 138.448 357.555 139.984 361.386 143.227C367.939 148.769 374.37 154.456 380.821 160.12C387.272 165.783 394.024 170.907 399.755 177.046C405.103 182.778 406.751 190.833 408.987 198.11C410.231 202.159 411.476 206.209 412.72 210.263C413.838 213.899 415.374 217.774 415.058 221.643C414.611 227.093 410.503 231.818 407.655 236.232C404.315 241.409 401.651 247.116 402.57 253.421C403.518 259.911 408.345 264.859 414.242 267.309C420.678 269.983 427.605 269.322 433.755 266.211C446.472 259.775 453.613 244.535 456.495 231.263C458.105 223.865 458.668 216.223 458.328 208.664C458.158 204.848 457.74 201.056 457.191 197.279C456.675 193.735 455.494 190.104 455.484 186.516C455.475 183.541 457.575 182.097 460.156 181.028C463.481 179.647 467.171 178.889 470.773 179.078C476.31 179.37 482.25 183.517 481.181 189.671C480.592 193.045 478.59 196.063 476.82 198.917C474.866 202.067 472.965 205.217 471.385 208.576C468.007 215.747 465.688 223.311 464.609 231.166C464.186 234.229 466.592 238.264 470.292 236.849C477.88 233.947 486.358 228.818 485.624 219.426C484.885 209.952 476.621 205.047 470.535 199.004C468.347 196.832 465.474 193.735 466.043 190.381C466.612 187.026 470.729 183.458 473.364 181.387C475.999 179.317 479.606 177.323 483.164 177.878C486.722 178.432 489.746 181.582 491.584 184.601C495.575 191.144 495.896 199.272 495.832 206.724C495.755 216.058 495.497 225.61 494.019 234.836C492.546 244.014 489.566 252.551 484.584 260.416C479.941 267.752 474.04 274.173 467.871 280.245C461.162 286.851 454.128 293.127 447.201 299.505C443.356 303.044 439.51 306.583 435.665 310.122C433.803 311.838 431.937 313.554 430.075 315.27C428.485 316.733 426.9 318.367 424.912 319.286C424.46 319.495 423.882 319.796 423.366 319.762C422.982 319.738 423.021 319.699 422.798 319.475C423.016 319.694 422.763 319.174 422.763 319.038C422.754 318.313 422.773 317.954 423.089 317.205C424.159 314.682 428.101 314.055 430.716 313.768C440.171 312.742 449.437 311.887 458.493 308.742C474.497 303.18 490.461 291.037 494.768 273.819C496.391 267.334 495.395 258.253 488.657 254.986C483.893 252.677 479.037 254.563 474.565 256.61C470.452 258.491 466.592 260.878 462.893 263.469C448.664 273.435 434.61 289.141 415.885 289.034C408.18 288.99 400.854 285.656 397.296 278.553C395.896 275.758 395.215 272.419 395.954 269.337C396.931 265.253 399.746 261.743 401.335 257.869C407.135 243.742 403.848 226.942 394.442 215.183C392.089 212.237 389.284 209.719 386.183 207.575C382.916 205.319 378.536 203.803 376.159 200.482C375.357 199.359 374.73 197.945 375.226 196.584C375.897 194.746 377.282 193.19 377.972 191.314C379.664 186.706 378.575 181.791 376.645 177.46C374.715 173.128 371.944 169.725 369.237 166.114C365.955 161.738 362.669 157.363 359.388 152.988C356.622 149.303 353.9 145.468 350.458 142.371C346.831 139.109 342.665 136.766 338.144 134.992C321.655 128.517 301.525 131.186 287.155 141.482C280.252 146.426 274.462 152.852 270.403 160.324C266.13 168.199 264.361 176.439 263.53 185.281C263.141 189.389 262.8 193.822 260.841 197.536C259.223 200.604 256.69 202.757 253.603 204.279C246.734 207.667 238.664 206.588 231.786 203.88C227.537 202.208 223.561 199.816 219.735 197.352C215.909 194.887 212.307 191.698 207.985 190.308C203.664 188.917 198.2 190.152 195.546 194.279C192.697 198.708 195.205 203.462 198.229 206.982C201.253 210.501 205.127 212.946 209.385 214.449C213.644 215.951 218.359 215.659 222.554 217.365C223.867 217.895 225.213 218.619 226.336 219.49C226.336 219.49 227.08 220.17 227.362 220.457C228.101 221.211 227.805 220.851 228.227 221.561C228.85 222.615 228.85 222.557 229.2 224.142C229.36 224.876 229.151 223.466 229.224 224.224C229.253 224.521 229.268 224.818 229.277 225.114C229.297 225.799 229.268 226.485 229.195 227.165C229.268 226.5 229.034 227.977 228.961 228.288C228.816 228.935 228.636 229.577 228.436 230.209C227.975 231.677 227.62 232.537 227.041 233.743C225.704 236.538 224.091 239.192 222.37 241.764C219.035 246.737 215.754 250.665 212.171 255.37C201.481 269.414 192.026 284.97 186.504 301.809C183.718 310.307 182.124 319.208 181.963 328.152C181.856 334.098 191.093 334.098 191.2 328.152L191.229 328.143Z" fill="white"/>
<path d="M353.369 290.692C353.749 279.584 348.669 268.7 340.448 261.311C336.331 257.611 331.489 254.738 326.19 253.095C320.051 251.189 313.512 252.312 307.416 250.494C297.086 247.417 291.292 236.334 288.064 226.849C284.228 215.581 282.503 203.375 275.93 193.2C272.323 187.615 267.029 181.373 259.636 183.026C252.242 184.678 249.335 191.683 243.521 195.465H246.71C245.115 194.624 245.135 192.349 246.87 191.732C248.319 191.222 250.03 191.513 251.542 191.426C253.233 191.329 254.847 191.061 256.398 190.371C261.439 188.13 263.641 182.418 263.588 177.192C263.525 170.591 259.888 165.399 255.902 160.44C253.71 157.708 251.435 155.035 249.787 151.924C248.241 149.002 247.424 145.755 246.724 142.546C245.076 135.002 243.968 127.559 239.087 121.298C237.405 119.139 233.531 120.948 233.691 123.534C234.216 131.803 235.393 140.043 237.298 148.107C238.251 152.142 239.403 156.119 240.687 160.056C241.571 162.764 243.613 167.581 241.542 170.226C240.58 171.456 238.212 172.132 237.843 170.751C237.376 169.001 237.386 167.018 237.167 165.224C236.905 163.08 236.623 160.936 236.321 158.797C235.154 150.533 233.648 142.308 231.732 134.18C228.485 120.389 222.992 106.073 210.299 98.3675C199.016 91.5181 183.757 92.9813 176.115 104.522C167.827 117.039 177.933 131.307 188.346 138.643C191.311 140.733 194.836 141.472 198.316 140.276C201.432 139.207 204.018 136.859 207.217 136.066C212.885 134.661 218.826 138.764 221.626 143.45C225.466 149.892 225.238 157.951 224.572 165.156C224.28 168.301 224.066 172.535 221.626 174.878C220.775 175.7 219.511 176.302 218.306 176.225C216.803 176.123 216.298 174.888 215.865 173.58C213.61 166.721 211.441 158.719 206.814 153.012C202.473 147.65 195.176 147.845 190.115 152.103C184.501 156.828 184.36 164.898 185.857 171.509C187.481 178.675 190.917 185.271 193.732 192.004C196.6 198.868 198.486 205.718 197.937 213.214C197.388 220.71 195.268 227.982 194.529 235.449C193.839 242.464 194.685 249.663 198.355 255.803C201.651 261.315 206.746 265.608 212.302 268.729C215.165 270.338 218.194 271.665 221.281 272.783C224.649 274.008 228.3 275.257 231.931 274.849C235.563 274.441 238.864 272.166 242.403 271.038C246.126 269.852 249.991 269.234 253.836 268.573C260.788 267.377 267.418 265.627 273.582 262.098C279.362 258.792 284.447 254.32 288.506 249.051C290.572 246.362 292.337 243.504 293.815 240.451C295.414 237.145 296.741 233.66 298.856 230.631C302.341 225.634 308 223.772 312.647 228.235C316.658 232.09 319.166 237.257 323.337 240.976C325.981 243.334 329.268 245.021 332.899 244.33C336.132 243.713 338.742 241.355 340.448 238.638C347.026 228.147 340.23 213.311 329.146 209.334C324.397 207.633 315.369 209.242 313.634 203.107C312.783 200.088 313.206 196.846 313.046 193.749C312.876 190.458 312.214 187.187 311.004 184.119C308.797 178.514 304.13 170.858 297.874 169.171C294.695 168.316 291.574 169.876 289.96 172.642C288.258 175.554 288.569 178.928 289.843 181.922C291.258 185.247 293.338 188.115 294.306 191.649C295.273 195.183 295.506 198.805 294.938 202.359C294.111 207.536 290.397 216.758 283.635 215.8C280.325 215.328 277.335 212.188 274.997 210.03C272.382 207.614 269.941 205.013 267.691 202.257C263.233 196.783 259.529 190.522 256.889 183.973C255.085 179.501 251.935 171.85 255.338 167.343C257.331 164.704 261.094 165.263 263.928 165.768C267.739 166.449 271.511 167.066 275.396 167.037C282.508 166.984 291.029 165.588 296.936 161.345C302.842 157.101 304.242 150.305 302.895 143.713C301.549 137.121 297.791 130.699 292.595 126.47C288.302 122.975 282.085 121.405 278.507 117.127C273.743 111.43 277.223 103.584 281.326 98.6446C286.158 92.8306 291.895 88.0374 296.065 81.6498C303.921 69.6134 307.455 55.3701 315.087 43.2122C321.315 33.2953 331.285 24.1125 343.856 26.057C348.703 26.8056 353.729 29.1195 356.49 33.3342C360.52 39.4836 358.017 47.0769 356.733 53.6784C355.212 61.5438 355.747 69.0544 358.586 76.5698C361.245 83.6137 365.056 90.2542 369.115 96.5737C376.47 108.017 386.241 118.984 399.702 122.97C412.253 126.689 426.054 123.869 434.279 113.248C438.465 107.842 441.202 101.299 446.282 96.6126C451.474 91.8292 458.099 88.9173 463.009 83.7742C471.949 74.4066 474.939 60.9751 474.346 48.3602C473.791 36.4891 470.773 21.9347 461.186 13.9088C449.908 4.46346 434.629 9.78649 426.152 20.243C417.202 31.2876 413.741 45.4629 407.956 58.1896C402.273 70.6878 393.756 84.0124 380.077 88.6937C368.118 92.782 352.888 88.8736 349.563 75.3545C348.221 69.9003 349.476 64.0619 353.734 60.2313C357.992 56.4007 363.996 55.4381 369.368 56.1382C383.071 57.9368 392.779 71.4072 398.822 82.6901C401.773 88.1979 404.096 95.9029 399.673 101.362C395.249 106.821 386.236 104.658 380.403 103.486C366.446 100.686 353.233 94.498 342.223 85.461C339.102 82.8991 334.605 87.3472 337.755 89.9285C349.291 99.3932 362.902 106.179 377.52 109.325C384.18 110.759 392.074 112.382 398.618 109.709C404.796 107.186 408.068 101.017 408.413 94.5612C408.821 86.968 404.806 79.8949 400.825 73.7406C397.023 67.8585 392.682 62.1272 387.203 57.6986C377.549 49.8964 363.243 46.2845 352.149 53.5423C341.056 60.8001 340.147 75.0629 347.103 85.1888C354.964 96.6272 370.782 99.1161 383.159 94.2695C396.838 88.9125 406.089 76.6768 412.273 63.8189C418.354 51.17 421.567 36.4843 430.23 25.2063C434.163 20.0874 439.846 15.6783 446.501 15.2019C453.156 14.7255 458.24 18.6533 461.536 24.0687C467.909 34.5398 469.514 49.1526 467.268 61.0528C466.135 67.071 463.879 73.0066 459.927 77.7511C455.343 83.254 448.81 86.3506 443.341 90.8229C437.872 95.2952 434.639 101.746 430.634 107.58C426.934 112.971 422.058 116.548 415.593 117.812C402.045 120.457 389.663 112.46 381.258 102.568C376.645 97.1376 372.887 90.9882 369.431 84.7707C365.678 78.0185 362.207 70.6294 362.061 62.7591C361.915 54.7333 365.697 47.0914 364.881 39.0218C364.278 33.062 361.337 28.0549 356.539 24.5062C347.074 17.5061 333.667 18.2061 324.1 24.5062C312.545 32.114 306.332 44.9379 301.053 57.2465C298.107 64.1203 295.234 71.0864 291.248 77.44C287.262 83.7936 281.365 88.6402 276.567 94.5077C271.769 100.375 268.546 107.336 270.379 114.716C271.915 120.904 276.703 124.424 282.026 127.287C287.855 130.422 292.483 134.131 295.176 140.373C297.869 146.615 298.17 153.839 291.491 157.256C284.627 160.766 275.853 161.466 268.347 160.207C261.736 159.094 254.206 157.64 249.85 164.179C246.583 169.079 247.429 175.928 249.135 181.222C251.357 188.11 254.628 194.731 258.688 200.72C262.684 206.617 267.433 212.018 272.868 216.626C278.303 221.235 284.676 224.292 291.301 220.092C297.32 216.276 300.368 209.286 301.238 202.436C302.186 194.965 300.29 188.067 296.668 181.572C296.187 180.712 293.416 174.888 296.445 175.413C297.752 175.637 299.196 177.455 300.066 178.378C301.267 179.652 302.298 181.042 303.192 182.539C304.962 185.5 306.167 188.849 306.571 192.286C306.95 195.504 306.59 198.756 306.984 201.979C307.844 209.043 312.482 212.971 319.346 213.991C322.263 214.424 325.398 214.502 328.115 215.761C330.57 216.898 332.636 218.828 334.08 221.099C336.934 225.59 338.062 232.678 333.905 236.82C329.224 241.487 323.76 232.031 321.31 228.808C317.97 224.409 314.139 220.039 308.325 219.339C301.189 218.478 295.361 223.758 292.07 229.562C288.599 235.687 286.406 242.128 281.647 247.49C277.282 252.41 271.866 256.396 265.8 258.967C258.712 261.972 250.987 262.336 243.594 264.169C239.841 265.097 236.593 266.881 232.996 268.175C229.399 269.468 225.831 267.81 222.593 266.609C216.658 264.412 210.912 261.16 206.609 256.454C201.802 251.189 200.241 244.505 200.659 237.52C201.107 230.038 203.221 222.761 204.033 215.323C204.845 207.886 203.756 200.754 201.141 193.759C198.525 186.764 194.928 180.157 192.76 172.997C191.078 167.436 189.464 158.029 196.605 155.521C199.731 154.422 201.738 156.42 203.187 159.001C205.127 162.458 206.648 166.196 207.98 169.92C209.186 173.289 209.774 177.571 212.404 180.201C214.645 182.447 217.999 183.016 220.999 182.248C228.368 180.362 230.113 172.593 230.775 166.031C231.518 158.622 231.606 150.82 228.743 143.815C226.249 137.709 221.475 132.77 215.194 130.544C212.287 129.513 209.162 129.295 206.143 129.873C202.808 130.515 200.222 132.634 197.188 133.976C193.601 135.566 191.049 133.023 188.501 130.704C185.954 128.386 183.567 125.829 181.803 122.849C178.473 117.239 178.458 110.662 183.12 105.81C193.124 95.4022 208.33 101.863 215.802 111.862C220.372 117.983 222.914 125.323 224.81 132.644C226.861 140.587 228.393 148.691 229.647 156.794C230.298 161.004 230.833 165.224 231.295 169.458C231.63 172.525 232.247 175.452 235.198 177.032C240.696 179.982 247.307 175.389 248.343 169.803C249.009 166.206 248.11 162.618 247.011 159.201C245.796 155.428 244.639 151.651 243.686 147.801C241.722 139.839 240.497 131.74 239.977 123.558L234.581 125.794C238.689 131.064 239.272 138.312 240.672 144.617C241.401 147.894 242.339 151.102 243.783 154.14C245.344 157.426 247.638 160.295 249.913 163.114C253.651 167.747 258.026 172.744 257.127 179.132C256.84 181.164 255.994 183.41 254.128 184.479C251.43 186.025 247.745 184.795 244.804 185.762C238.139 187.95 237.201 197.629 243.477 200.949C244.449 201.464 245.703 201.576 246.666 200.949C249.038 199.408 250.997 197.468 252.898 195.392C254.92 193.181 256.962 190.711 259.83 189.569C265.206 187.43 269.324 194.367 271.575 198.304C277.155 208.056 278.609 219.407 282.381 229.854C285.794 239.309 291.17 249.089 300.173 254.242C305.331 257.193 310.79 257.592 316.599 257.898C321.801 258.17 326.643 259.531 331.115 262.239C340.92 268.175 347.405 279.18 347.006 290.711C346.865 294.78 353.185 294.775 353.326 290.711L353.369 290.692Z" fill="white"/>
<path d="M179.469 512.757C182.644 509.335 186.139 506.248 190.004 503.613C193.499 501.231 197.271 499.476 200.975 497.473C203.766 495.961 206.683 494.095 208.345 491.299C210.299 488.013 209.774 484.251 207.995 481.008C204.373 474.407 197.743 470.027 191.987 465.467C187.996 462.307 175.167 451.948 182.527 446.946C185.201 445.128 188.482 444.442 191.156 442.605C193.795 440.791 195.434 437.928 195.886 434.773C196.839 428.104 192.104 422.421 185.405 422.032C183.951 421.949 182.44 422.144 181.059 422.596C180.359 422.824 179.669 423.121 179.027 423.486C178.682 423.68 178.356 424.011 178.001 424.161C177.822 424.297 177.642 424.438 177.462 424.574L177.656 424.492C176.169 422.679 179.868 421.395 180.869 421.07C182.561 420.52 184.199 419.932 185.429 418.581C190.592 412.903 186.965 402.539 183.742 396.861C179.572 389.515 173.364 383.502 167.511 377.508C161.58 371.437 155.567 365.447 149.782 359.24C138.47 347.101 127.659 333.806 121.781 318.09C115.904 302.373 115.826 284.537 121.806 268.525C124.752 260.635 129.229 252.517 135.232 246.528C138.295 243.47 143.346 240.514 146.515 245.03C148.567 247.952 150.273 250.46 153.963 251.34C157.035 252.074 160.409 251.462 162.878 249.449C165.022 247.699 170.535 238.507 173.442 244.01C174.511 246.032 174.428 248.861 174.701 251.078C175.036 253.795 175.367 256.517 175.702 259.235C176.295 264.081 177.146 268.996 177.039 273.891C176.932 278.787 175.537 282.792 172.683 286.521C170.257 289.681 167.224 292.325 164.361 295.072C158.464 300.72 153.914 307.191 152.402 315.372C150.968 323.131 152.038 331.939 156.923 338.356C161.279 344.078 169.271 347.267 176.062 343.927C179.562 342.206 182.051 339.109 184.958 336.616C187.865 334.122 192.007 333.373 195.093 330.943C198.18 328.512 198.768 324.934 199.93 321.541C201.262 317.657 203.08 313.948 205.278 310.482C209.487 303.841 215.146 298.105 221.709 293.779C225.034 291.586 228.592 289.724 232.321 288.315C236.044 286.905 239.87 286.185 243.72 285.242C247.823 284.236 251.377 282.501 254.113 279.21C256.85 275.919 259.213 271.855 261.541 268.107C266.369 260.338 270.807 252.108 272.776 243.101C273.855 238.162 275.192 225.561 283.169 228.016C286.703 229.105 288.847 233.116 289.459 236.538C290.227 240.84 288.555 245.303 287.306 249.357C285.906 253.917 285.118 258.199 285.177 262.973C285.23 267.387 284.744 271.354 282.313 275.146C277.447 282.739 268.682 286.244 260.219 288.052C244.576 291.392 224.027 291.183 215.749 307.764C212.419 314.434 211.792 322.518 214.509 329.513C216.138 333.704 219.195 337.481 219.37 342.123C219.526 346.26 217.742 350.441 214.563 353.115C211.612 355.594 207.329 356.479 205.346 360.052C204.004 362.468 203.887 365.919 206.211 367.776C212.803 373.036 218.51 360.086 220.425 355.924C227.732 340.048 230.43 322.659 235.091 305.941C237.42 297.58 240.283 289.374 244.406 281.713L241.742 281.363C242.991 288.806 239.491 295.956 237.916 303.078C236.564 309.203 236.069 315.528 236.457 321.784C236.846 328.045 238.071 334.263 240.162 340.179C241.129 342.926 242.33 345.551 243.565 348.18C245.29 351.846 245.883 355.127 244.119 358.909C241.343 364.85 236.608 370.265 231.985 374.835C229.734 377.056 227.348 379.151 224.829 381.067C222.088 383.152 219.064 385.218 215.442 384.479C209.619 383.293 206.031 377.319 202.978 372.773C200.246 368.705 197.023 364.359 192.366 362.395C187.709 360.431 182.717 361.636 179.576 365.627C176.436 369.618 175.809 374.893 178.585 379.01L179.844 376.818C176.971 376.91 174.905 374.659 174.156 372.034C173.189 368.632 174.53 364.918 175.561 361.685C177.549 355.458 179.572 349.245 181.579 343.023C183.028 338.521 185.347 333.704 184.593 328.852C184.063 325.42 181.385 322.596 177.744 324.132C175.683 325.002 174.069 327.049 172.615 328.658C170.846 330.617 169.193 332.688 167.657 334.836C166.018 337.131 164.662 339.542 163.223 341.953C162.46 343.237 162.251 344.131 160.214 343.698C159.723 343.592 159.154 343.266 158.732 343.013C157.541 342.298 156.622 341.224 155.927 340.038C153.107 335.22 154.172 329.47 155.348 324.346C156.593 318.935 157.604 313.768 156.505 308.231C155.406 302.694 152.898 297.682 151.532 292.277C149.986 286.166 151.177 280.751 152.961 274.849C154.527 269.682 155.718 264.582 154.784 259.177C153.909 254.101 151.44 249.396 148.183 245.444C142.228 238.22 131.723 232.134 122.423 236.698C113.221 241.224 109.891 252.604 110.003 262.098C110.144 273.473 114.042 284.542 117.183 295.344C118.952 301.44 120.595 307.589 122.54 313.632C124.129 318.576 126.283 323.252 130.104 326.879C133.925 330.505 138.621 333.398 142.082 337.651C145.543 341.905 147.886 346.338 150.662 350.747C153.151 354.699 155.873 358.613 159.393 361.729C163.393 365.273 168.225 367.514 173.15 369.468C182.357 373.119 195.016 376.925 197.631 387.95C199.906 397.536 192.182 407.414 183.431 410.443C174.681 413.471 164.881 411.235 158.644 404.882C150.385 396.472 153.929 383.58 152.65 373.031C151.289 361.841 147.026 349.989 149.942 338.725C152.859 327.462 163.826 320.642 172.474 313.68C181.122 306.719 189.221 298.669 191.482 287.697C191.943 285.447 191.841 283.235 192.123 280.979C192.386 278.874 193.373 278.009 195.453 277.834C197.223 277.683 199.016 277.805 200.786 277.946C206.26 278.388 211.831 279.492 217.197 277.746C221.145 276.463 224.348 273.984 225.894 270.075C226.584 268.33 223.765 267.572 223.079 269.298C221.018 274.519 214.694 275.919 209.667 275.797C206.692 275.729 203.746 275.267 200.781 275.024C198.205 274.815 195.035 274.455 192.58 275.481C187.899 277.435 189.406 284.095 188.409 288.062C186.985 293.73 183.704 298.795 179.79 303.064C171.891 311.682 161.167 317.239 153.54 326.096C145.956 334.9 145.319 345.526 146.982 356.576C147.896 362.623 149.32 368.602 149.913 374.698C150.506 380.794 149.724 386.871 150.375 392.928C151.362 402.072 156.724 409.179 165.27 412.606C173.198 415.781 182.697 415.275 189.863 410.443C197.028 405.611 202.176 396.919 200.635 388.13C198.871 378.053 189.027 372.579 180.359 369.137C175.109 367.052 169.664 365.297 164.876 362.229C160.273 359.283 156.904 355.04 153.963 350.499C151.187 346.212 148.747 341.7 145.699 337.593C142.456 333.223 138.494 330.116 134.323 326.694C129.511 322.747 126.944 317.968 125.116 312.091C123.288 306.214 121.524 299.802 119.735 293.657C116.483 282.462 112.258 270.785 112.992 258.948C113.683 247.796 121.446 234.574 134.387 238.949C144.989 242.532 153.326 254.519 152.115 265.754C151.474 271.709 148.659 277.192 147.93 283.137C147.249 288.684 148.8 293.944 150.623 299.121C152.558 304.6 154.619 310.078 154.011 315.994C153.404 321.91 150.92 327.452 151.201 333.398C151.396 337.491 152.718 341.871 155.956 344.593C157.414 345.818 159.368 346.834 161.323 346.771C163.894 346.688 165.012 344.69 166.13 342.687C169.008 337.539 172.523 332.77 176.679 328.58C178.672 326.572 181.015 325.624 181.676 329.081C182.124 331.419 181.516 333.66 180.806 335.872C178.75 342.245 176.699 348.618 174.642 354.991C172.926 360.309 170.019 366.439 171.181 372.151C172.022 376.283 175.444 379.871 179.829 379.73C180.869 379.696 181.735 378.495 181.088 377.537C178.376 373.512 180.131 367.659 184.263 365.273C189.561 362.21 194.918 366.95 198.034 370.892C203.751 378.121 210.61 391.97 222.131 386.297C227.469 383.667 232.316 378.84 236.321 374.528C240.327 370.216 244.566 365.132 246.953 359.643C247.959 357.334 248.484 354.865 248.081 352.351C247.59 349.265 245.913 346.533 244.668 343.713C241.955 337.578 240.23 330.947 239.564 324.278C238.825 316.903 239.301 309.407 241.095 302.208C242.889 295.009 245.801 288.12 244.537 280.576C244.328 279.326 242.432 279.185 241.873 280.226C233.565 295.665 230.391 312.985 226.098 329.8C223.925 338.312 221.446 346.814 217.727 354.797C216.138 358.204 214.076 363.989 210.348 365.579C207.455 366.809 206.765 363.537 207.854 361.51C208.943 359.483 211.344 358.496 213.25 357.427C219.594 353.863 223.366 346.985 221.995 339.659C221.164 335.225 218.194 331.609 216.828 327.37C215.579 323.51 215.379 319.305 216.186 315.333C220.265 295.286 242.568 294.338 258.795 291.29C266.918 289.763 275.026 287.09 281.064 281.193C283.64 278.68 285.721 275.671 286.941 272.273C288.448 268.082 287.879 263.809 288.093 259.458C288.502 251.16 294.218 243.246 292.045 234.807C290.577 229.115 285.318 223.136 278.886 225.304C272.455 227.472 271.361 235.25 270.243 240.894C268.415 250.091 264.142 258.35 259.242 266.259C256.797 270.211 254.434 274.645 251.245 278.053C248.056 281.46 243.506 282.282 239.058 283.274C231.553 284.946 224.436 288.149 218.199 292.651C211.962 297.152 206.969 302.446 202.949 308.703C200.912 311.877 199.211 315.251 197.845 318.765C196.386 322.513 195.964 327.204 192.172 329.382C190.543 330.32 188.711 330.85 187.034 331.686C185.356 332.523 183.786 333.733 182.352 335.016C179.29 337.763 176.485 341.307 172.246 342.167C162.684 344.107 156.422 334.467 155.095 326.329C153.637 317.394 156.452 308.012 162.411 301.236C167.453 295.504 174.273 291.047 177.69 284.017C181.72 275.734 179.46 266.016 178.39 257.305C178.074 254.743 177.763 252.186 177.447 249.624C177.199 247.592 177.092 245.424 176.378 243.485C175.196 240.286 172.168 238.711 168.906 239.878C164.832 241.336 163.641 245.842 160.063 247.85C156.223 250.003 152.072 248.108 149.821 244.753C147.857 241.827 145.728 239.406 141.892 239.707C138.31 239.989 135.053 242.444 132.671 244.977C121.665 256.663 115.476 273.143 114.47 289.015C112.268 323.646 136.37 349.969 158.979 372.973C164.871 378.967 171.055 384.824 176.378 391.348C179.314 394.941 181.992 398.912 183.548 403.316C184.836 406.953 186.008 412.504 183.757 415.999C181.754 419.106 176.767 417.978 175.09 421.56C174.195 423.471 174.496 426.645 176.835 427.375C178.269 427.822 178.886 427.054 179.98 426.32C181.56 425.255 183.519 424.813 185.41 424.944C189.415 425.216 192.653 428.045 193.061 432.104C193.47 436.164 191.404 439.323 187.947 441.107C185.279 442.488 182.231 443.295 179.907 445.278C173.792 450.494 180.247 458.632 184.447 462.779C189.809 468.068 196.45 471.879 201.627 477.372C204.461 480.376 208.185 484.965 206.114 489.297C204.573 492.524 200.747 494.347 197.718 495.869C190.081 499.714 183.251 504.386 177.408 510.681C176.135 512.057 178.191 514.123 179.469 512.742V512.757Z" fill="white"/>
<path d="M292.347 58.8019C293.27 60.27 294.904 60.1096 295.861 58.729C297.339 56.5901 295.769 53.9504 294.763 51.9622C292.128 46.751 287.782 42.2592 282.095 40.514C277.156 39.0022 271.405 39.6828 267.501 43.2558C264.132 46.3378 262.606 51.199 262.951 55.6762C263.729 65.8799 273.427 71.5189 282.989 68.9716C288.074 67.6202 292.201 64.193 294.452 59.4436C297.135 53.7754 297.193 47.169 300.057 41.603C301.598 38.6085 304.291 35.8376 307.519 34.7098C311.286 33.3924 313.561 35.3612 316.079 37.8939C318.014 39.8432 320.143 41.1314 322.982 40.6745C325.121 40.3293 329.36 37.4175 331.3 39.0265L330.925 37.607C328.825 45.3607 331.65 55.8123 340.852 56.8915C344.391 57.3095 348.29 56.1623 350.516 53.2601C353.35 49.5753 352.154 44.9766 351.887 40.7328C351.731 38.273 351.974 35.5653 354.128 34C355.868 32.7361 358.289 32.5271 360.326 33.0472C365.688 34.4181 367.205 40.5189 366.125 45.3558C364.905 50.8004 360.686 54.9178 356.481 58.2769C351.97 61.8791 346.977 65.175 341.523 67.1535C336.069 69.132 330.366 69.5987 325.126 67.1972C320.795 65.2139 317.256 61.8985 313.454 59.0936C309.94 56.4977 305.623 53.8532 301.092 53.8629C296.562 53.8727 294.068 57.0325 293.353 61.1159C292.449 66.2882 293.198 71.9126 293.329 77.1287C293.436 81.4746 292.692 87.1428 297.597 89.0922C301.603 90.6818 306.289 89.2866 310.455 89.3498C314.966 89.4179 319.681 90.1859 323.653 92.4415C325.787 93.652 327.654 95.2999 328.942 97.4048C330.347 99.7042 330.877 102.475 332.724 104.507C336.273 108.406 341.81 107.2 346.467 107.084C352.446 106.938 358.163 110.831 358.834 117.127C359.47 123.096 354.527 128.653 348.669 129.246C346.817 129.431 346.802 132.352 348.669 132.163C357.711 131.253 364.405 121.828 360.739 113.102C359.052 109.091 355.567 105.824 351.343 104.653C346.715 103.37 341.649 105.586 337.153 104.011C334.289 103.01 333.555 100.234 332.408 97.7354C331.465 95.6791 330.138 93.8124 328.451 92.3006C325.238 89.4179 321.072 87.7991 316.862 87.0407C312.652 86.2824 308.272 86.4622 303.897 86.7928C301.865 86.9484 298.895 87.1963 297.354 85.5483C296.197 84.3087 296.377 82.374 296.333 80.7989C296.284 78.9614 296.241 77.119 296.197 75.2814C296.119 72.2189 296.017 69.1515 295.968 66.084C295.93 63.6826 295.852 60.7853 297.247 58.695C300.47 53.8824 308.131 58.8262 311.417 61.1937C315.258 63.9597 318.768 67.2702 323.031 69.4091C327.595 71.6987 332.637 72.214 337.629 71.2564C343.015 70.2258 348.066 67.6542 352.611 64.6597C357.157 61.6652 361.551 58.3596 364.876 54.1498C370.029 47.626 372.202 34.9625 362.81 30.8208C359.198 29.2263 354.444 29.5423 351.513 32.3812C347.561 36.207 349.398 41.7731 349.49 46.5517C349.549 49.4878 348.557 52.1032 345.742 53.3574C343.657 54.2859 341.09 54.2956 338.976 53.4497C333.196 51.1358 332.311 43.6204 333.73 38.3703C333.857 37.9036 333.745 37.2765 333.356 36.9508C330.002 34.1702 326.638 36.8438 323.084 37.6654C320.372 38.2925 318.943 36.6251 317.202 34.8362C315.724 33.3146 314.12 32.0361 312.01 31.5451C307.985 30.602 303.912 32.7215 301.068 35.4389C297.573 38.7786 296.09 43.1634 294.952 47.7427C293.708 52.7546 292.804 58.4471 289.022 62.2826C285.949 65.3937 281.419 66.9542 277.078 66.6479C267.934 65.9965 263.034 56.0213 267.385 48.0975C270.272 42.8377 276.66 41.6175 282.026 43.5523C284.846 44.5683 287.262 46.4593 289.187 48.7295C290.232 49.9642 291.127 51.3351 291.89 52.7546C292.128 53.1921 292.352 53.6442 292.566 54.0963C292.833 54.6602 293.081 55.2338 293.3 55.8171C293.436 56.629 293.956 57.1345 294.855 57.3241C293.859 55.7394 291.336 57.2026 292.337 58.7971L292.347 58.8019Z" fill="white"/>
<path d="M287.68 206.675C288.268 203.044 289.037 199.126 293.091 198.022C297.145 196.919 302.084 197.75 306.022 198.513C311.977 199.665 318.986 203.885 324.98 200.744C328.694 198.8 330.182 194.663 332.141 191.231C333.215 189.35 334.499 187.527 336.463 186.501C339.778 184.761 343.822 185.563 347.186 183.803C352.976 180.775 355.577 173.449 357.852 167.761C360.428 161.31 361.984 153.459 357.842 147.266C354.279 141.934 347.75 140.636 341.737 141.136C333.852 141.793 325.933 144.359 318.52 146.999C311.325 149.561 303.017 152.361 299.012 159.395C295.113 166.235 295.57 174.645 291.462 181.387C290.485 182.996 293.003 184.459 293.98 182.86C297.291 177.425 297.792 171.077 299.707 165.131C300.762 161.865 302.39 158.904 305.04 156.668C307.689 154.432 311.209 152.92 314.509 151.612C321.825 148.705 329.443 146.289 337.167 144.729C343.2 143.513 351.357 142.935 355.319 148.734C359.942 155.506 356.355 164.14 353.409 170.77C352.13 173.648 350.779 176.667 348.616 179.01C345.947 181.902 342.782 182.102 339.126 182.68C334.392 183.434 331.509 186.297 329.283 190.356C327.508 193.594 325.982 197.891 321.937 198.766C317.893 199.641 313.999 197.517 310.295 196.515C306.265 195.426 302.084 194.833 297.908 194.76C294.622 194.702 290.918 194.872 288.395 197.274C286.042 199.51 285.361 202.83 284.861 205.897C284.564 207.735 287.374 208.522 287.675 206.675H287.68Z" fill="white"/>
<path d="M336.142 210.389C337.867 206.427 340.638 203.034 344.352 200.779C348.508 198.251 353.355 197.891 357.847 196.258C362.066 194.727 365.343 191.922 368.284 188.601C371.249 185.247 374.146 181.757 376.713 178.087C380.811 172.219 385.809 162.686 381.701 155.599C379.737 152.21 375.935 151.199 372.241 151.399C368.546 151.598 364.2 152.39 361.323 155.112C353.827 162.205 359.159 173.021 363.52 180.094C364.502 181.689 367.03 180.226 366.038 178.621C362.484 172.861 357.069 163.498 363.136 157.407C365.766 154.762 370.481 154.082 374.069 154.301C378.356 154.563 380.281 157.844 380.184 161.865C379.99 169.711 374.424 176.711 369.66 182.467C367.2 185.442 364.75 188.601 361.648 190.94C358.216 193.531 354.143 194.274 350.083 195.349C342.753 197.293 336.701 201.858 333.628 208.912C332.884 210.613 335.398 212.1 336.146 210.384L336.142 210.389Z" fill="white"/>
<path d="M415.112 201.158C417.242 199.67 419.439 198.246 421.51 196.681C422.876 195.65 423.863 194.435 423.547 192.622C423.206 190.672 421.636 188.699 420.503 187.158C419.142 185.301 417.149 183.803 415.905 181.917C414.373 179.598 416.687 178.825 418.204 177.557C419.327 176.618 420.265 175.481 420.348 173.955C420.567 169.866 416.099 167.392 413.163 165.681C411.549 164.738 411.739 162.03 414.009 162.808C414.947 163.129 415.292 164.183 416.065 164.781C417.465 165.865 419.312 165.734 420.868 165.102C422.424 164.47 423.887 163.274 424.956 161.889C425.506 161.174 425.933 160.421 426.293 159.594C426.454 159.225 426.517 158.695 426.76 158.374C427.431 157.48 427.085 159.463 427.061 160.003C426.93 162.817 425.267 165.268 424.169 167.771C423.498 169.302 423.051 171.106 424.208 172.535C426.41 175.252 430.415 173.133 433.23 174.202C437.61 175.865 439.516 181.475 437.975 185.665C436.22 190.444 431.412 193.336 426.711 194.571C424.898 195.047 425.666 197.862 427.489 197.386C435.272 195.339 443.409 188.383 441.057 179.491C440.118 175.948 437.542 172.613 434.008 171.393C432.044 170.712 430.231 171.111 428.223 171.072C426.215 171.033 426.449 169.754 427.226 168.111C427.82 166.852 428.466 165.618 428.976 164.32C429.813 162.195 430.435 159.633 429.633 157.397C429.122 155.968 427.703 154.655 426.079 155.112C424.217 155.637 424.038 157.806 423.235 159.23C422.618 160.329 421.724 161.306 420.635 161.962C418.452 163.274 417.669 161.743 416.162 160.591C413.309 158.408 409.07 160.445 409.055 164.047C409.046 165.759 409.974 167.154 411.403 168.024C413.153 169.093 418.933 171.762 417.081 174.63C416.089 176.157 413.994 176.716 412.988 178.32C411.982 179.924 412.273 181.859 413.387 183.395C415.263 185.981 417.703 187.984 419.419 190.745C419.91 191.538 420.868 192.767 420.465 193.793C420.221 194.401 418.734 195.076 418.248 195.417L413.639 198.635C412.113 199.704 413.566 202.232 415.112 201.153V201.158Z" fill="white"/>
<path d="M315.695 278.689C318.923 280.663 322.89 280.376 326.016 278.32C328.519 276.677 331.276 274.246 331.771 271.125C332.646 265.598 326.327 262.487 325.238 257.533C323.794 250.971 330.857 245.162 335.636 242.031C338.383 240.232 341.348 238.657 344.469 237.632C348.047 236.455 351.858 236.329 355.538 235.638C359.218 234.948 362.985 233.48 365.742 230.646C368.498 227.812 370.068 224.39 371.371 220.841C372.985 216.446 374.2 211.887 375.561 207.404C376.295 204.984 377.029 202.558 377.763 200.137C378.133 198.927 378.497 197.716 378.867 196.501C379.173 195.485 379.387 193.482 380.354 192.923C382.002 191.975 384.841 192.972 386.339 193.754C388.443 194.858 390.271 196.559 391.613 198.513C394.092 202.12 395.22 206.5 396.907 210.496C399.58 216.84 404.903 223.349 412.599 222.528C416.104 222.153 418.724 219.82 420.022 216.621C421.5 212.98 421.101 208.42 423.4 205.134C425.792 201.717 431.003 201.279 432.428 196.997C433.332 194.279 432.549 190.726 429.394 190.089C427.562 189.719 426.779 192.534 428.616 192.903C430.25 193.229 430.046 195.344 429.462 196.525C428.587 198.309 426.337 199.179 424.723 200.176C421.889 201.931 420.158 204.225 419.254 207.434C418.388 210.506 418.418 214.113 416.658 216.869C414.49 220.262 410.343 220.16 407.067 218.542C399.683 214.891 398.764 205.543 395.249 198.936C392.362 193.506 385.814 187.969 379.251 190.22C377.413 190.852 377.282 191.644 376.733 193.453C375.999 195.874 375.265 198.299 374.531 200.72C373.155 205.266 371.779 209.806 370.399 214.351C368.055 222.081 365.353 230.204 356.651 232.415C352.966 233.349 349.126 233.417 345.436 234.311C342.889 234.929 340.429 236.003 338.11 237.204C332.875 239.911 327.635 243.718 324.446 248.769C322.919 251.185 321.923 254.048 322.205 256.931C322.486 259.813 323.974 262.02 325.637 264.198C327.08 266.089 329.55 268.563 328.772 271.174C328.198 273.099 326.137 274.757 324.538 275.792C322.243 277.284 319.56 277.634 317.159 276.161C315.554 275.18 314.086 277.702 315.686 278.68L315.695 278.689Z" fill="white"/>
<path d="M561.284 141.093C556.782 142.327 552.184 143.11 547.512 143.309C543.287 143.489 539.155 142.993 534.951 142.741C531.781 142.551 528.32 142.605 525.437 144.102C522.044 145.862 520.508 149.342 520.309 153.032C519.905 160.552 523.23 167.766 525.719 174.674C527.445 179.462 532.889 195.028 523.993 195.402C520.765 195.538 517.611 194.391 514.373 194.542C511.135 194.692 508.272 196.263 506.23 198.703C501.909 203.87 502.935 211.196 508.418 215.056C509.609 215.892 510.999 216.524 512.414 216.864C513.129 217.035 513.872 217.151 514.606 217.18C515.005 217.195 515.452 217.088 515.836 217.146C516.065 217.127 516.288 217.103 516.512 217.078L516.303 217.044C516.614 219.373 512.793 218.512 511.767 218.26C510.042 217.837 508.335 217.472 506.58 217.973C499.201 220.078 496.819 230.797 496.566 237.32C496.241 245.76 498.346 254.145 500.159 262.322C501.996 270.605 503.951 278.864 505.594 287.192C508.807 303.472 510.99 320.467 507.699 336.917C504.349 353.674 495.074 368.568 481.555 379.025C474.89 384.178 466.811 388.713 458.547 390.643C454.332 391.625 448.479 391.479 448.168 385.967C447.964 382.403 447.838 379.37 445.164 376.682C442.937 374.441 439.753 373.182 436.589 373.59C433.842 373.945 424.314 378.855 424.747 372.647C424.907 370.367 426.463 368 427.401 365.977C428.553 363.488 429.7 361.004 430.852 358.515C432.899 354.087 434.766 349.459 437.439 345.356C440.001 341.423 443.409 338.584 447.799 336.922C451.527 335.512 455.494 334.866 459.378 334.044C467.37 332.352 474.642 329.251 480.238 323.097C485.546 317.258 489.279 309.213 488.511 301.182C487.826 294.022 482.717 287.099 475.182 286.36C471.303 285.981 467.555 287.299 463.768 287.887C459.981 288.475 456.072 286.929 452.164 287.367C448.411 287.79 445.874 290.536 443.098 292.806C439.919 295.407 436.419 297.6 432.724 299.384C425.646 302.806 417.815 304.702 409.959 304.92C405.978 305.032 401.972 304.736 398.064 303.973C394.155 303.209 390.524 301.8 386.756 300.575C382.741 299.267 378.808 298.868 374.744 300.225C370.549 301.625 366.534 303.788 362.577 305.747C354.381 309.801 346.272 314.458 339.851 321.079C336.331 324.71 328.553 334.715 323.065 328.42C320.634 325.629 320.926 321.094 322.209 317.861C323.823 313.797 327.595 310.89 330.794 308.1C334.387 304.964 337.313 301.741 339.783 297.648C342.062 293.866 344.571 290.755 348.63 288.815C356.768 284.926 366.067 286.569 374.21 289.491C389.265 294.897 406.619 305.907 422.394 296.18C428.738 292.267 433.536 285.724 434.912 278.349C435.738 273.93 435.13 269.108 437.425 265.068C439.471 261.471 443.195 258.856 447.303 258.263C451.119 257.713 455.222 259.215 458.79 257.227C461.206 255.881 463.121 253.008 462.125 250.208C459.3 242.264 447.619 250.261 443.798 252.789C429.224 262.429 417.766 275.782 404.991 287.537C398.603 293.414 391.851 298.878 384.306 303.219L386.387 304.92C389.25 297.935 395.993 293.706 401.082 288.485C405.462 283.993 409.21 278.879 412.181 273.357C415.151 267.829 417.387 261.899 418.729 255.769C419.351 252.925 419.72 250.062 420.051 247.174C420.518 243.149 421.738 240.048 425.238 237.768C430.726 234.185 437.605 232.075 443.944 230.627C447.031 229.922 450.161 229.402 453.311 229.1C456.738 228.774 460.399 228.614 463.087 231.147C467.414 235.225 467.312 242.196 467.511 247.665C467.686 252.56 468.138 257.956 471.06 262.079C473.981 266.201 478.862 267.81 483.636 266.07C488.409 264.329 491.72 260.183 491.53 255.219L489.304 256.42C491.798 257.859 492.366 260.854 491.613 263.484C490.641 266.886 487.544 269.336 484.963 271.539C479.99 275.782 474.997 279.997 470.014 284.226C466.407 287.289 461.901 290.162 459.986 294.678C458.629 297.872 459.412 301.688 463.321 302.3C465.528 302.645 467.982 301.761 470.068 301.158C472.605 300.424 475.099 299.539 477.54 298.518C480.14 297.434 482.566 296.097 485.06 294.804C486.387 294.119 487.034 293.463 488.536 294.906C488.9 295.256 489.207 295.835 489.43 296.272C490.067 297.502 490.281 298.907 490.247 300.278C490.106 305.859 486.168 310.185 482.469 313.919C478.56 317.861 474.978 321.721 472.994 327.005C471.011 332.289 470.501 337.87 468.814 343.188C466.908 349.196 463.043 353.168 458.416 357.242C454.361 360.81 450.662 364.514 448.606 369.599C446.676 374.373 446.292 379.676 446.977 384.746C448.226 394.022 453.948 404.731 464.264 405.757C474.453 406.768 483.281 398.849 488.186 390.721C494.063 380.984 496.581 369.516 499.605 358.681C501.311 352.565 503.163 346.474 504.694 340.315C505.949 335.274 506.585 330.165 505.248 325.07C503.912 319.976 501.447 315.042 500.747 309.607C500.047 304.172 500.392 299.165 500.358 293.954C500.329 289.282 500.071 284.523 498.725 280.021C497.193 274.902 494.267 270.45 491.112 266.196C485.211 258.243 476.46 248.336 480.048 237.583C483.169 228.24 494.938 223.913 503.97 225.95C513.002 227.987 520.153 235.05 522.107 243.737C524.693 255.239 514.888 264.324 510.416 273.964C505.676 284.187 503.051 296.511 494.636 304.546C486.222 312.582 473.305 312.596 462.285 313.957C451.265 315.319 440.142 317.89 432.437 326.018C430.857 327.686 429.778 329.625 428.354 331.39C427.022 333.038 425.729 333.252 423.867 332.309C422.287 331.506 420.819 330.456 419.395 329.406C414.976 326.145 410.819 322.27 405.341 320.924C401.311 319.932 397.281 320.35 393.907 322.858C392.4 323.976 394.398 326.111 395.891 324.997C400.392 321.648 406.508 323.792 410.712 326.543C413.206 328.172 415.467 330.116 417.858 331.881C419.939 333.417 422.438 335.391 425.072 335.814C430.08 336.62 432.311 330.165 435.247 327.316C439.442 323.252 444.906 320.676 450.477 319.105C461.731 315.941 473.777 316.874 484.924 313.364C496.007 309.879 502.152 301.187 506.561 290.915C508.972 285.296 510.917 279.462 513.62 273.969C516.322 268.476 520.197 263.727 522.836 258.233C526.818 249.945 526.011 241.078 520.552 233.665C515.486 226.786 507.144 222.212 498.511 222.542C489.911 222.873 480.923 227.545 477.598 235.828C473.787 245.322 479.27 255.166 484.817 262.657C488.176 267.193 491.88 271.558 494.335 276.687C496.693 281.621 497.32 287.002 497.427 292.408C497.524 297.512 497.223 302.631 497.646 307.73C498.098 313.151 499.828 317.88 501.569 322.99C503.576 328.881 503.241 334.292 501.7 340.252C500.159 346.212 498.278 352.59 496.557 358.754C493.421 369.983 490.854 382.131 483.995 391.8C477.535 400.91 463.967 408.061 455.27 397.522C448.149 388.888 447.381 374.309 454.332 365.399C458.017 360.674 463.296 357.499 467.054 352.833C470.554 348.482 472.012 343.193 473.189 337.826C474.433 332.148 475.566 326.407 479.202 321.697C482.838 316.986 487.87 313.593 490.762 308.387C492.755 304.804 493.941 300.385 492.624 296.37C492.031 294.561 490.903 292.665 489.211 291.693C486.98 290.41 484.982 291.518 482.974 292.626C477.817 295.485 472.314 297.687 466.573 299.053C463.821 299.709 461.327 299.277 462.586 295.995C463.437 293.774 465.134 292.189 466.903 290.687C472.008 286.356 477.112 282.019 482.216 277.688C486.474 274.071 492.177 270.396 494.204 264.927C495.667 260.975 494.651 256.119 490.85 253.926C489.95 253.406 488.579 253.975 488.623 255.127C488.808 259.974 484.229 264.023 479.46 263.877C473.339 263.688 471.288 256.838 470.714 251.841C469.664 242.687 471.133 227.302 458.352 226.047C452.431 225.464 445.767 227.015 440.089 228.57C434.357 230.14 428.13 232.211 423.211 235.619C421.14 237.053 419.395 238.871 418.408 241.219C417.202 244.102 417.183 247.31 416.755 250.358C415.826 257.004 413.799 263.547 410.849 269.565C407.587 276.22 403.231 282.34 397.913 287.512C392.595 292.685 386.489 297.002 383.587 304.084C383.106 305.261 384.642 306.379 385.668 305.786C400.864 297.045 412.691 283.998 425.199 271.966C431.533 265.88 438.12 259.959 445.485 255.137C448.63 253.081 453.433 249.25 457.438 249.867C460.545 250.344 459.407 253.489 457.414 254.641C455.421 255.793 452.859 255.36 450.677 255.268C443.404 254.952 436.574 258.812 433.881 265.759C432.253 269.963 432.865 274.601 431.796 278.928C430.823 282.865 428.777 286.545 425.996 289.491C411.962 304.381 392.507 293.429 377.112 287.469C369.402 284.484 361.104 282.486 352.864 284.314C349.349 285.092 345.995 286.555 343.171 288.796C339.68 291.562 337.911 295.495 335.437 299.077C330.716 305.917 321.689 309.631 319.088 317.944C317.333 323.554 318.656 331.409 325.262 332.96C331.762 334.486 336.9 328.473 340.823 324.268C347.225 317.414 355.207 312.65 363.544 308.508C367.705 306.437 372.051 303.914 376.558 302.699C381.171 301.454 385.361 303.185 389.668 304.687C396.931 307.225 404.665 308.25 412.336 307.711C419.749 307.191 427.041 305.305 433.759 302.111C437.162 300.487 440.39 298.518 443.404 296.248C446.617 293.832 449.451 290.069 453.822 290.215C455.703 290.279 457.536 290.794 459.402 290.964C461.269 291.134 463.243 290.935 465.134 290.599C469.183 289.875 473.437 288.349 477.491 289.851C486.645 293.239 486.878 304.736 483.723 312.348C480.252 320.71 472.917 327.199 464.283 329.82C456.977 332.036 448.834 332.231 442.223 336.397C434.43 341.312 431.232 350.762 427.547 358.729C426.463 361.072 425.384 363.411 424.3 365.754C423.439 367.611 422.389 369.507 421.971 371.534C421.286 374.873 423.031 377.81 426.419 378.534C430.648 379.438 434.037 376.239 438.135 376.419C442.534 376.614 445.062 380.41 445.208 384.45C445.334 387.974 445.869 391.149 449.291 392.918C452.485 394.566 456.549 394.197 459.903 393.302C475.415 389.17 489.362 378.427 498.584 365.472C518.709 337.199 512.103 302.125 505.01 270.659C503.163 262.458 500.995 254.223 499.911 245.876C499.313 241.277 499.128 236.489 500.125 231.929C500.946 228.162 502.876 222.824 506.634 221.04C509.969 219.455 513.619 223.043 516.935 220.88C518.704 219.728 520.119 216.869 518.515 215.017C517.533 213.885 516.604 214.21 515.282 214.254C513.376 214.322 511.481 213.671 509.94 212.562C506.678 210.219 505.419 206.111 507.212 202.446C508.967 198.868 512.429 197.186 516.308 197.488C519.302 197.721 522.316 198.64 525.335 198.183C533.283 196.972 532.087 186.652 530.702 180.916C528.932 173.595 525.296 166.857 523.794 159.458C522.972 155.414 522.224 149.551 526.264 146.96C529.277 145.03 533.487 145.497 536.866 145.798C545.383 146.557 553.652 146.187 561.93 143.917C563.739 143.421 563.077 140.577 561.264 141.078L561.284 141.093Z" fill="white"/>
<defs>
<clipPath id="clip0_1331_697">
<rect width="674" height="522" fill="white"/>
</clipPath>
</defs>
</svg>
