<svg width="186" height="153" viewBox="0 0 186 153" fill="none" xmlns="http://www.w3.org/2000/svg">
<rect x="21.825" y="34.4326" width="109.446" height="120.679" rx="15.4059" transform="rotate(-10.7344 21.825 34.4326)" fill="white"/>
<path d="M113.487 114.08L131.49 112.165M58.5859 114.08C59.9138 114.08 67.1403 113.654 70.5876 113.442" stroke="black" stroke-width="1.28382"/>
<path d="M82.8447 105.27C76.7752 103.078 73.2786 101.353 67.0127 98.1202C63.7633 98.5335 61.8967 98.5632 58.4583 98.1202C56.1454 100.63 55.3669 102.197 54.8833 105.27C57.2448 107.889 58.9863 109.25 63.1823 111.399C70.1833 112.614 74.7184 113.655 80.4188 115.214M85.909 116.761C83.9122 116.187 82.114 115.678 80.4188 115.214M98.6767 105.27C102.334 102.754 104.328 101.437 107.614 99.5246L124.34 98.1202C126.589 101.592 126.638 107.185 126.638 107.185C118.722 111.399 117.445 109.1 106.976 115.101M80.4188 115.214C80.4188 117.4 73.0135 117.655 68.1618 119.57C68.7183 122.534 69.3023 123.707 70.9707 124.677C72.1915 125.09 74.6344 124.442 88.4625 118.549M96.6339 114.08C102.767 114.447 105.142 114.821 106.976 115.867C110.069 115.615 110.804 115.684 111.828 115.867L114.381 117.4C114.381 117.4 116.173 119.043 114.381 120.336C112.589 121.629 104.928 120.474 105.061 119.57C102.971 120.515 100.607 120.452 94.8464 119.57" stroke="black" stroke-width="1.28382"/>
<path d="M76.5885 84.5862C76.4608 93.396 83.1 97.4817 84.3768 106.419M84.8875 80.6282L85.2706 91.4808C87.2634 96.9127 88.2809 99.9387 89.1009 105.142C89.4042 105.318 90.0001 106.282 89.9946 106.674M85.3982 106.802C84.6795 109.504 84.6767 110.922 86.292 113.058M96.6339 83.0541C96.4189 84.899 96.6339 87.7782 96.6339 87.7782C94.591 94.5451 94.3357 104.121 91.6544 106.036C87.4681 111.47 85.7813 118.548 91.0161 118.804C96.2508 119.059 95.2294 111.016 95.2294 111.016C97.783 100.418 102.379 89.821 105.061 84.7139" stroke="black" stroke-width="1.28382"/>
<path d="M84.5047 55.8589C83.7386 57.008 84.0378 57.4152 83.7386 58.4124C86.5948 65.0005 88.8268 65.3124 94.0805 59.0508C94.0506 57.8617 93.8848 57.1682 93.1867 55.8589M82.0788 59.1785C72.3959 59.8602 69.8217 65.8177 72.886 74.7552C73.5138 79.0879 74.307 81.1485 76.4609 84.2033C85.5842 83.2827 85.0153 79.0962 83.4832 71.1802M97.1447 72.5847C95.7157 76.4467 95.6795 78.6599 96.634 82.6712C100.197 83.457 105.571 83.1819 105.571 83.1819C109.274 79.4792 109.019 62.6258 105.699 61.6044M95.4849 60.0722C98.4805 59.566 100.158 59.5241 103.146 60.3276M74.4181 82.6712C72.9468 89.6352 72.4311 93.4926 72.886 100.163M105.571 85.7354C106.675 94.4596 107.278 98.28 108.253 98.5032" stroke="black" stroke-width="1.28382"/>
<path d="M84.2493 49.4749C84.2493 48.8819 84.9831 48.6606 86.1644 48.587M99.6983 46.9214C95.6153 49.2412 89.3068 48.3914 86.1644 48.587M86.1644 48.587C87.6216 52.2186 89.6514 52.4299 95.2295 49.858" stroke="black" stroke-width="1.28382"/>
<path d="M75.5671 43.4742C77.7061 42.7356 78.8596 42.7263 80.8019 43.7296M98.1661 43.7296C100.305 42.991 101.459 42.9817 103.401 43.9849" stroke="black" stroke-width="1.28382"/>
<path d="M87.3136 43.7295C87.1884 44.7267 86.8029 46.283 87.3136 46.283C87.8244 46.283 89.2288 45.7723 89.2288 45.7723" stroke="black" stroke-width="1.28382"/>
<path d="M81.8198 36.4518C81.8198 37.8143 81.4243 39.0209 80.8175 39.8705C80.2097 40.7214 79.428 41.1724 78.6314 41.1724C77.8347 41.1724 77.053 40.7214 76.4452 39.8705C75.8384 39.0209 75.4429 37.8143 75.4429 36.4518C75.4429 35.0894 75.8384 33.8827 76.4452 33.0331C77.053 32.1822 77.8347 31.7313 78.6314 31.7313C79.428 31.7313 80.2097 32.1822 80.8175 33.0331C81.4243 33.8827 81.8198 35.0894 81.8198 36.4518Z" fill="#333232" stroke="black" stroke-width="1.28382"/>
<ellipse cx="77.6868" cy="33.7679" rx="1.53213" ry="1.1491" transform="rotate(-50.1064 77.6868 33.7679)" fill="white"/>
<path d="M99.4392 37.2179C99.4392 38.5804 99.0437 39.787 98.4368 40.6367C97.8291 41.4875 97.0473 41.9385 96.2507 41.9385C95.4541 41.9385 94.6724 41.4875 94.0646 40.6367C93.4578 39.787 93.0623 38.5804 93.0623 37.2179C93.0623 35.8555 93.4578 34.6488 94.0646 33.7992C94.6724 32.9483 95.4541 32.4974 96.2507 32.4974C97.0473 32.4974 97.8291 32.9483 98.4368 33.7992C99.0437 34.6488 99.4392 35.8555 99.4392 37.2179Z" fill="#333232" stroke="black" stroke-width="1.28382"/>
<ellipse cx="95.5615" cy="34.534" rx="1.53213" ry="1.1491" transform="rotate(-50.1064 95.5615 34.534)" fill="white"/>
<path d="M75.4394 31.9831C79.3463 30.1776 81.3828 30.4451 84.8875 31.9831M74.1626 36.9626C75.4394 42.8357 81.1849 44.1125 83.3554 37.8563M92.9312 32.7492C97.9106 29.9403 99.3151 33.6429 102.762 33.6429M94.0803 41.559C96.6339 43.7295 101.486 41.559 101.869 36.7072" stroke="black" stroke-width="1.28382"/>
<path d="M79.9082 27.0038C81.9638 27.4669 82.9718 27.9056 84.3769 29.1743M93.9527 29.1743C95.0539 27.9969 95.8949 27.9272 97.5277 28.1529" stroke="black" stroke-width="1.28382"/>
<path d="M101.656 17.6482C101.684 17.5329 101.712 17.4169 101.741 17.3002C101.769 17.3931 101.739 17.5103 101.656 17.6482C98.6895 30.1565 106.279 34.992 108.508 46.9214C110.209 52.6216 103.491 61.472 101.741 62.115C124.34 54.3267 127.52 19.8644 113.232 3.76635L108.508 5.80919L104.294 1.85118C104.294 1.85118 103.784 -0.0639828 91.016 1.85118C78.2482 3.76635 78.6432 8.5434 70.7153 12.8315C63.54 25.0636 62.9269 46.9214 71.9921 62.115C69.2362 45.4022 70.4915 37.302 78.2482 25.3567C86.8895 26.6543 100.397 19.7497 101.656 17.6482Z" fill="#333232"/>
<path d="M72.6305 41.5589C76.4931 51.8281 80.0749 54.4897 89.9946 56.1142C93.1865 55.7311 101.741 53.6883 108.508 46.9214M108.508 46.9214C110.209 52.6216 103.491 61.472 101.741 62.115C124.34 54.3267 127.52 19.8644 113.232 3.76635L108.508 5.80919L104.294 1.85118C104.294 1.85118 103.784 -0.0639828 91.016 1.85118C78.2482 3.76635 78.6432 8.5434 70.7153 12.8315C63.54 25.0636 62.9269 46.9214 71.9921 62.115M108.508 46.9214C106.279 34.992 98.6895 30.1565 101.656 17.6482M76.0777 25.2162C76.7441 25.3307 77.4725 25.3739 78.2482 25.3567M71.9921 62.115C69.2362 45.4022 70.4915 37.302 78.2482 25.3567M71.9921 62.115C73.5876 58.0763 72.6305 55.7311 76.0777 51.7731M78.2482 25.3567C86.8895 26.6543 100.397 19.7497 101.656 17.6482M101.656 17.6482C101.684 17.5329 101.712 17.4169 101.741 17.3002C101.769 17.3931 101.739 17.5103 101.656 17.6482Z" stroke="black" stroke-width="1.28382"/>
<path d="M102.178 14.5188C102.907 13.5928 103.555 12.7204 104.502 12.0894" stroke="black" stroke-width="1.28382" stroke-linecap="round" stroke-linejoin="round"/>
<path d="M105.347 10.1881C105.521 9.74024 105.726 9.25692 105.875 8.80901C106.004 8.42051 106.447 8.24297 106.72 7.96985" stroke="black" stroke-width="1.28382" stroke-linecap="round" stroke-linejoin="round"/>
</svg>
