<svg width="76" height="133" viewBox="0 0 76 133" fill="none" xmlns="http://www.w3.org/2000/svg">
<path fill-rule="evenodd" clip-rule="evenodd" d="M3.23158 66.6677C3.23164 66.6676 3.23475 66.6669 3.24074 66.6658C3.23452 66.6673 3.23152 66.6678 3.23158 66.6677ZM9.97262 63.3922C9.72582 63.6755 9.48837 63.95 9.26037 64.2155C11.7057 63.0313 13.9545 61.7281 16.2043 60.4068L16.7191 60.1042L16.7192 60.1041L16.7193 60.1041C19.9741 58.1904 23.3129 56.2273 27.1579 54.7432V44.4824C24.5278 47.388 21.9598 50.1852 19.5555 52.8042L19.5554 52.8043C15.8475 56.8432 12.5289 60.458 9.97262 63.3922ZM40.3629 53.9231C37.0311 54.2819 34.2909 55.3037 32.1579 57.4669V82H32.0501C31.8185 83.1411 30.8096 84 29.6001 84C28.2194 84 27.1001 82.8807 27.1001 81.5C27.1001 81.3158 27.1201 81.1362 27.1579 80.9633V60.1566C24.4254 61.3754 21.8748 62.8742 19.1166 64.4948L18.7364 64.7182C14.7921 67.0347 10.4699 69.5312 4.94847 71.3717C4.52686 71.5122 3.92898 71.675 3.28804 71.6492C2.58725 71.6209 1.34183 71.3027 0.751018 69.9829C0.302484 68.9811 0.568728 68.0396 0.684237 67.6819C0.836148 67.2115 1.06946 66.7606 1.29727 66.3721C2.18397 64.86 3.98196 62.6568 6.20267 60.1078C8.78324 57.1457 12.1904 53.4337 15.9523 49.3353C18.7495 46.2879 21.7427 43.0269 24.7379 39.7018C25.5445 38.8064 26.3522 37.9053 27.1579 37.0008V33.75V11.3367C27.1201 11.1638 27.1001 10.9842 27.1001 10.8C27.1001 9.41929 28.2194 8.3 29.6001 8.3C30.9808 8.3 32.1001 9.41929 32.1001 10.8C32.1001 10.8673 32.0975 10.934 32.0922 11H32.1579V31.3018C36.6199 26.1266 40.7981 21.0012 44.0973 16.3633C46.6476 12.7784 48.6046 9.57823 49.7694 6.93365C51.0016 4.13631 51.0722 2.56686 50.8135 1.86829L55.5023 0.131714C56.4935 2.80814 55.6423 6.00431 54.3452 8.94916C52.9808 12.0468 50.801 15.5654 48.1716 19.2617C43.8161 25.3844 38.0396 32.2517 32.1579 38.9001V51.2416C34.5334 49.9145 37.1509 49.2401 39.8276 48.9519C42.9876 48.6116 46.3557 48.7984 49.6493 49.1136C49.3463 46.5252 49.0896 44.1156 48.9016 42.0072C48.6654 39.3574 48.5287 37.0883 48.5611 35.5206C48.576 34.8022 48.6269 33.9603 48.8392 33.2779C48.9155 33.0325 49.1897 32.1702 50.049 31.6144C50.575 31.2741 51.2178 31.1193 51.8733 31.2121C52.4652 31.2958 52.8994 31.5563 53.1577 31.75L50.1577 35.75C50.3201 35.8718 50.6647 36.0909 51.173 36.1628C51.7449 36.2437 52.3101 36.1066 52.7645 35.8127C53.1647 35.5539 53.375 35.243 53.4655 35.0885C53.5615 34.9244 53.6023 34.7991 53.6135 34.763C53.6179 34.7489 53.6174 34.7528 53.614 34.7788C53.6042 34.8528 53.5708 35.1046 53.56 35.6241C53.5337 36.8983 53.6475 38.9345 53.8819 41.5633C54.1697 44.7923 54.6257 48.7726 55.1666 53.0458C55.8351 52.1445 56.5443 51.3265 57.2715 50.6051C58.5107 49.3759 59.8643 48.3654 61.2363 47.7152C62.5668 47.0847 64.1788 46.6728 65.772 47.0766C66.8969 47.3618 67.5641 48.1667 67.8905 48.8987C68.1844 49.5576 68.2538 50.2402 68.264 50.763C68.2848 51.8308 68.0638 53.0913 67.7587 54.3366C67.1344 56.8852 65.9766 60.0767 64.6689 63.1042C63.591 65.5999 62.3704 68.0788 61.1956 70.0777C63.7984 68.6829 66.1421 67.5655 68.6153 66.5554C73.2503 64.6624 77.607 69.6118 75.007 73.968C71.2272 80.3007 67.121 84.6099 60.4936 90.074L62.6421 109.221L62.5855 109.228C62.5952 109.317 62.6001 109.408 62.6001 109.5C62.6001 110.881 61.4808 112 60.1001 112C58.7194 112 57.6001 110.881 57.6001 109.5C57.6001 109.413 57.6046 109.327 57.6132 109.243L55.8175 93.2403C42.6744 102.027 31.5192 115.402 26.0302 124.408C25.6668 125.34 24.7606 126 23.7002 126C22.3195 126 21.2002 124.881 21.2002 123.5C21.2002 123.037 21.3259 122.604 21.545 122.232L21.514 122.214C27.4761 112.277 40.1174 97.096 55.126 87.735C55.0386 87.1798 54.9315 86.4967 54.8078 85.7031C54.4473 83.3886 53.946 80.1336 53.3828 76.37C53.2142 75.2432 53.04 74.0707 52.8623 72.8641C52.3496 69.3814 51.8081 65.6139 51.2888 61.8409C50.9351 59.2719 50.5911 56.6956 50.2733 54.2019C46.703 53.8327 43.3787 53.5984 40.3629 53.9231ZM57.0902 67.1905C56.831 65.3826 56.5707 63.5377 56.3152 61.6891C57.2747 58.5801 58.9992 55.9342 60.7928 54.1549C61.6104 53.3438 62.3958 52.7591 63.073 52.3891C63.026 52.6202 62.9695 52.8727 62.9023 53.1469C62.3692 55.3233 61.3263 58.2332 60.0788 61.1217C59.1147 63.3537 58.0644 65.4897 57.0902 67.1905ZM63.2565 50.7317C63.2565 50.7317 63.2569 50.7338 63.2575 50.7381C63.2567 50.7339 63.2564 50.7317 63.2565 50.7317ZM54.8622 70.3482L54.8606 70.3497C54.8606 70.35 54.8661 70.3464 54.877 70.3379C54.8695 70.3428 54.8646 70.3464 54.8622 70.3482ZM59.6419 84.2497C59.3515 82.3796 58.9856 79.9999 58.5778 77.2953C63.4109 74.4611 66.8282 72.6863 70.5058 71.1842C70.5757 71.1557 70.6206 71.1493 70.6422 71.1477C70.6642 71.1461 70.6769 71.1484 70.6838 71.1501C70.6988 71.1539 70.7217 71.165 70.7435 71.1902C70.7653 71.2154 70.7707 71.2369 70.7717 71.2466C70.7722 71.2511 70.7728 71.2613 70.7685 71.2804C70.7642 71.2992 70.7519 71.3412 70.7136 71.4055C67.7632 76.3486 64.6133 79.9372 59.6419 84.2497ZM18.5 133C19.8807 133 23 130.881 23 129.5C23 128.119 19.8807 128 18.5 128C17.1193 128 16 129.119 16 130.5C16 131.881 17.1193 133 18.5 133Z" fill="black"/>
</svg>
