<svg width="1290" height="1037" viewBox="0 0 1290 1037" fill="none" xmlns="http://www.w3.org/2000/svg">
<circle cx="645" cy="215" r="215" fill="#C5D8A2"/>
<path d="M497.961 177V156.552C497.961 156.264 498.033 156.12 498.249 156.12C498.429 156.12 498.501 156.264 498.573 156.552L508.689 175.56C509.373 176.856 510.561 177.432 511.929 177.432C513.585 177.432 515.133 176.208 515.133 174.012V152.88H511.641V173.436C511.641 173.652 511.605 173.724 511.461 173.724C511.245 173.724 511.173 173.58 511.065 173.256L500.913 154.284C500.229 153.024 499.221 152.448 497.745 152.448C495.909 152.448 494.469 153.708 494.469 155.904V177H497.961ZM529.345 177.432C534.637 177.432 538.705 173.256 538.705 168.144C538.705 163.104 534.673 158.928 529.345 158.928C524.053 158.928 519.913 163.068 519.913 168.144C519.913 173.256 524.017 177.432 529.345 177.432ZM529.345 174.048C526.033 174.048 523.477 171.384 523.477 168.18C523.477 164.94 526.033 162.276 529.345 162.276C532.621 162.276 535.141 164.94 535.141 168.18C535.141 171.384 532.621 174.048 529.345 174.048ZM561.051 177.396C564.291 177.396 567.279 175.956 568.899 172.752L565.947 171.132C564.903 173.04 563.139 174.048 561.051 174.048C557.955 174.048 555.399 171.384 555.399 168.144C555.399 164.94 557.955 162.312 561.051 162.312C563.139 162.312 564.903 163.32 565.947 165.228L568.899 163.572C567.279 160.404 564.291 158.928 561.051 158.928C555.975 158.892 551.835 163.068 551.835 168.144C551.835 173.256 555.975 177.468 561.051 177.396ZM580.849 177.432C586.141 177.432 590.209 173.256 590.209 168.144C590.209 163.104 586.177 158.928 580.849 158.928C575.557 158.928 571.417 163.068 571.417 168.144C571.417 173.256 575.521 177.432 580.849 177.432ZM580.849 174.048C577.537 174.048 574.981 171.384 574.981 168.18C574.981 164.94 577.537 162.276 580.849 162.276C584.125 162.276 586.645 164.94 586.645 168.18C586.645 171.384 584.125 174.048 580.849 174.048ZM616.077 158.856C612.729 158.856 610.245 160.656 609.273 163.392C608.373 160.656 605.817 158.856 602.289 158.856C596.997 158.856 594.189 162.816 594.189 167.748V177H597.753V168.288C597.753 165.084 599.229 162.276 602.541 162.276C605.817 162.276 607.437 164.976 607.437 168.216V177H611.001V168.216C611.001 164.976 612.621 162.276 615.825 162.276C619.137 162.276 620.721 165.084 620.721 168.288V177H624.285V167.712C624.285 162.816 621.405 158.856 616.077 158.856ZM651.268 158.856C647.92 158.856 645.436 160.656 644.464 163.392C643.564 160.656 641.008 158.856 637.48 158.856C632.188 158.856 629.38 162.816 629.38 167.748V177H632.944V168.288C632.944 165.084 634.42 162.276 637.732 162.276C641.008 162.276 642.628 164.976 642.628 168.216V177H646.192V168.216C646.192 164.976 647.812 162.276 651.016 162.276C654.328 162.276 655.912 165.084 655.912 168.288V177H659.476V167.712C659.476 162.816 656.596 158.856 651.268 158.856ZM672.888 177.432C678.18 177.432 682.248 173.256 682.248 168.144C682.248 163.104 678.216 158.928 672.888 158.928C667.596 158.928 663.456 163.068 663.456 168.144C663.456 173.256 667.56 177.432 672.888 177.432ZM672.888 174.048C669.576 174.048 667.02 171.384 667.02 168.18C667.02 164.94 669.576 162.276 672.888 162.276C676.164 162.276 678.684 164.94 678.684 168.18C678.684 171.384 676.164 174.048 672.888 174.048ZM694.976 162.348C698.504 162.348 700.304 165.192 700.304 168.504V177H703.868V168.072C703.868 162.96 700.736 158.928 694.976 158.928C689.288 158.928 686.228 162.96 686.228 168.108V177H689.792V168.468C689.792 165.192 691.52 162.348 694.976 162.348ZM727.268 177.468C728.564 177.468 729.968 177.072 730.868 176.46V173.184C730.004 173.796 728.744 174.228 727.592 174.228C725.468 174.228 724.1 172.86 724.1 170.556V162.456H730.868V159.36H724.1V154.788H720.536V159.36H717.044V162.456H720.536V170.664C720.536 174.696 722.876 177.468 727.268 177.468ZM737.931 155.868C739.227 155.868 740.235 154.824 740.235 153.528C740.235 152.232 739.227 151.152 737.931 151.152C736.635 151.152 735.591 152.232 735.591 153.528C735.591 154.824 736.635 155.868 737.931 155.868ZM736.167 159.36V177H739.731V159.36H736.167ZM767.424 158.856C764.076 158.856 761.592 160.656 760.62 163.392C759.72 160.656 757.164 158.856 753.636 158.856C748.344 158.856 745.536 162.816 745.536 167.748V177H749.1V168.288C749.1 165.084 750.576 162.276 753.888 162.276C757.164 162.276 758.784 164.976 758.784 168.216V177H762.348V168.216C762.348 164.976 763.968 162.276 767.172 162.276C770.484 162.276 772.068 165.084 772.068 168.288V177H775.632V167.712C775.632 162.816 772.752 158.856 767.424 158.856ZM788.972 177.396C792.428 177.396 795.272 175.776 796.82 172.752L794.084 171.348C793.04 173.292 791.096 174.228 788.936 174.228C785.768 174.228 783.464 172.104 783.068 169.08H797.18V167.64C797.18 162.708 793.868 158.856 788.54 158.856C783.248 158.856 779.612 162.996 779.612 168.072C779.612 173.508 783.608 177.396 788.972 177.396ZM783.212 166.776C783.572 164.148 785.516 162.06 788.504 162.06C791.42 162.06 793.472 163.968 793.616 166.776H783.212ZM503.786 227.432C509.078 227.432 513.146 223.256 513.146 218.144C513.146 213.104 509.114 208.928 503.786 208.928C498.494 208.928 494.354 213.068 494.354 218.144C494.354 223.256 498.458 227.432 503.786 227.432ZM503.786 224.048C500.474 224.048 497.918 221.384 497.918 218.18C497.918 214.94 500.474 212.276 503.786 212.276C507.062 212.276 509.582 214.94 509.582 218.18C509.582 221.384 507.062 224.048 503.786 224.048ZM522.562 227V212.456H528.754V209.36H522.562V207.524C522.562 205.184 523.894 204.212 526.09 204.212C527.098 204.212 528.142 204.5 528.97 205.004V201.62C528.07 201.188 526.954 200.972 525.766 200.972C521.338 200.972 518.998 203.78 518.998 207.524V209.36H515.65V212.456H518.998V227H522.562ZM549.687 227.432C552.567 227.432 554.907 226.064 556.239 223.904V227H559.623V218.144C559.623 212.888 555.555 208.928 550.227 208.928C544.863 208.928 540.831 213.104 540.831 218.144C540.831 223.256 544.575 227.432 549.687 227.432ZM550.227 224.048C546.951 224.048 544.395 221.384 544.395 218.18C544.395 214.94 546.951 212.276 550.227 212.276C553.539 212.276 556.059 214.94 556.059 218.18C556.059 221.384 553.539 224.048 550.227 224.048ZM567.868 224.696C568.552 226.532 569.92 227.468 571.576 227.468C573.304 227.468 574.564 226.532 575.248 224.696L580.972 209.36H577.192L572.008 223.724C571.972 223.904 571.828 224.084 571.576 224.084C571.36 224.084 571.216 223.904 571.18 223.724L565.996 209.36H562.18L567.868 224.696ZM591.382 227.432C594.262 227.432 596.602 226.064 597.934 223.904V227H601.318V218.144C601.318 212.888 597.25 208.928 591.922 208.928C586.558 208.928 582.526 213.104 582.526 218.144C582.526 223.256 586.27 227.432 591.382 227.432ZM591.922 224.048C588.646 224.048 586.09 221.384 586.09 218.18C586.09 214.94 588.646 212.276 591.922 212.276C595.234 212.276 597.754 214.94 597.754 218.18C597.754 221.384 595.234 224.048 591.922 224.048ZM608.907 205.868C610.203 205.868 611.211 204.824 611.211 203.528C611.211 202.232 610.203 201.152 608.907 201.152C607.611 201.152 606.567 202.232 606.567 203.528C606.567 204.824 607.611 205.868 608.907 205.868ZM607.143 209.36V227H610.707V209.36H607.143ZM617.057 201.26V227H620.621V201.26H617.057ZM634.167 227.432C637.047 227.432 639.387 226.064 640.719 223.904V227H644.103V218.144C644.103 212.888 640.035 208.928 634.707 208.928C629.343 208.928 625.311 213.104 625.311 218.144C625.311 223.256 629.055 227.432 634.167 227.432ZM634.707 224.048C631.431 224.048 628.875 221.384 628.875 218.18C628.875 214.94 631.431 212.276 634.707 212.276C638.019 212.276 640.539 214.94 640.539 218.18C640.539 221.384 638.019 224.048 634.707 224.048ZM658.604 227.432C663.932 227.432 667.964 223.292 667.964 218.216C667.964 212.852 664.112 208.928 658.748 208.928C656.372 208.928 654.212 209.972 652.772 211.556V201.26H649.208V218.216C649.208 223.436 653.276 227.432 658.604 227.432ZM658.604 224.084C655.292 224.084 652.772 221.42 652.772 218.18C652.772 214.976 655.292 212.312 658.604 212.312C661.88 212.312 664.4 214.976 664.4 218.18C664.4 221.42 661.88 224.084 658.604 224.084ZM674.474 205.868C675.77 205.868 676.778 204.824 676.778 203.528C676.778 202.232 675.77 201.152 674.474 201.152C673.178 201.152 672.134 202.232 672.134 203.528C672.134 204.824 673.178 205.868 674.474 205.868ZM672.71 209.36V227H676.274V209.36H672.71ZM682.624 201.26V227H686.188V201.26H682.624ZM694.478 205.868C695.774 205.868 696.782 204.824 696.782 203.528C696.782 202.232 695.774 201.152 694.478 201.152C693.182 201.152 692.138 202.232 692.138 203.528C692.138 204.824 693.182 205.868 694.478 205.868ZM692.714 209.36V227H696.278V209.36H692.714ZM710.111 227.468C711.407 227.468 712.811 227.072 713.711 226.46V223.184C712.847 223.796 711.587 224.228 710.435 224.228C708.311 224.228 706.943 222.86 706.943 220.556V212.456H713.711V209.36H706.943V204.788H703.379V209.36H699.887V212.456H703.379V220.664C703.379 224.696 705.719 227.468 710.111 227.468ZM726.354 235.568C732.078 235.568 735.534 231.5 735.534 225.596V209.36H731.934V218.072C731.934 221.312 729.918 223.904 726.822 223.904C723.618 223.904 721.89 221.636 721.89 218.324V209.36H718.362V218.504C718.362 223.688 720.99 227.252 726.39 227.252C729.054 227.252 730.926 226.064 731.97 224.084V225.632C731.97 229.448 730.026 232.256 726.282 232.256C723.87 232.256 721.89 231.14 720.882 229.232L717.93 230.852C719.514 233.984 722.61 235.568 726.354 235.568ZM756.738 227V212.456H762.93V209.36H756.738V207.524C756.738 205.184 758.07 204.212 760.266 204.212C761.274 204.212 762.318 204.5 763.146 205.004V201.62C762.246 201.188 761.13 200.972 759.942 200.972C755.514 200.972 753.174 203.78 753.174 207.524V209.36H749.826V212.456H753.174V227H756.738ZM773.997 227.432C779.289 227.432 783.357 223.256 783.357 218.144C783.357 213.104 779.325 208.928 773.997 208.928C768.705 208.928 764.565 213.068 764.565 218.144C764.565 223.256 768.669 227.432 773.997 227.432ZM773.997 224.048C770.685 224.048 768.129 221.384 768.129 218.18C768.129 214.94 770.685 212.276 773.997 212.276C777.273 212.276 779.793 214.94 779.793 218.18C779.793 221.384 777.273 224.048 773.997 224.048ZM790.901 227V216.632C790.901 214.04 792.341 212.42 794.717 212.42C795.689 212.42 796.697 212.672 797.561 213.176V209.648C796.661 209.216 795.509 209 794.393 209C789.785 209 787.337 212.204 787.337 216.488V227H790.901ZM515.875 277.396C519.115 277.396 522.103 275.956 523.723 272.752L520.771 271.132C519.727 273.04 517.963 274.048 515.875 274.048C512.779 274.048 510.223 271.384 510.223 268.144C510.223 264.94 512.779 262.312 515.875 262.312C517.963 262.312 519.727 263.32 520.771 265.228L523.723 263.572C522.103 260.404 519.115 258.928 515.875 258.928C510.799 258.892 506.659 263.068 506.659 268.144C506.659 273.256 510.799 277.468 515.875 277.396ZM535.673 277.432C540.965 277.432 545.033 273.256 545.033 268.144C545.033 263.104 541.001 258.928 535.673 258.928C530.381 258.928 526.241 263.068 526.241 268.144C526.241 273.256 530.345 277.432 535.673 277.432ZM535.673 274.048C532.361 274.048 529.805 271.384 529.805 268.18C529.805 264.94 532.361 262.276 535.673 262.276C538.949 262.276 541.469 264.94 541.469 268.18C541.469 271.384 538.949 274.048 535.673 274.048ZM570.901 258.856C567.553 258.856 565.069 260.656 564.097 263.392C563.197 260.656 560.641 258.856 557.113 258.856C551.821 258.856 549.013 262.816 549.013 267.748V277H552.577V268.288C552.577 265.084 554.053 262.276 557.365 262.276C560.641 262.276 562.261 264.976 562.261 268.216V277H565.825V268.216C565.825 264.976 567.445 262.276 570.649 262.276C573.961 262.276 575.545 265.084 575.545 268.288V277H579.109V267.712C579.109 262.816 576.229 258.856 570.901 258.856ZM606.092 258.856C602.744 258.856 600.26 260.656 599.288 263.392C598.388 260.656 595.832 258.856 592.304 258.856C587.012 258.856 584.204 262.816 584.204 267.748V277H587.768V268.288C587.768 265.084 589.244 262.276 592.556 262.276C595.832 262.276 597.452 264.976 597.452 268.216V277H601.016V268.216C601.016 264.976 602.636 262.276 605.84 262.276C609.152 262.276 610.736 265.084 610.736 268.288V277H614.3V267.712C614.3 262.816 611.42 258.856 606.092 258.856ZM627.82 273.976C624.58 273.976 622.816 271.132 622.816 267.892V259.36H619.252V268.252C619.252 273.364 622.348 277.432 627.82 277.432C633.364 277.432 636.46 273.4 636.46 268.288V259.36H632.896V267.856C632.896 271.132 631.096 273.976 627.82 273.976ZM650.187 262.348C653.715 262.348 655.515 265.192 655.515 268.504V277H659.079V268.072C659.079 262.96 655.947 258.928 650.187 258.928C644.499 258.928 641.439 262.96 641.439 268.108V277H645.003V268.468C645.003 265.192 646.731 262.348 650.187 262.348ZM666.669 255.868C667.965 255.868 668.973 254.824 668.973 253.528C668.973 252.232 667.965 251.152 666.669 251.152C665.373 251.152 664.329 252.232 664.329 253.528C664.329 254.824 665.373 255.868 666.669 255.868ZM664.905 259.36V277H668.469V259.36H664.905ZM682.375 277.396C685.615 277.396 688.603 275.956 690.223 272.752L687.271 271.132C686.227 273.04 684.463 274.048 682.375 274.048C679.279 274.048 676.723 271.384 676.723 268.144C676.723 264.94 679.279 262.312 682.375 262.312C684.463 262.312 686.227 263.32 687.271 265.228L690.223 263.572C688.603 260.404 685.615 258.928 682.375 258.928C677.299 258.892 673.159 263.068 673.159 268.144C673.159 273.256 677.299 277.468 682.375 277.396ZM701.597 277.432C704.477 277.432 706.817 276.064 708.149 273.904V277H711.533V268.144C711.533 262.888 707.465 258.928 702.137 258.928C696.773 258.928 692.741 263.104 692.741 268.144C692.741 273.256 696.485 277.432 701.597 277.432ZM702.137 274.048C698.861 274.048 696.305 271.384 696.305 268.18C696.305 264.94 698.861 262.276 702.137 262.276C705.449 262.276 707.969 264.94 707.969 268.18C707.969 271.384 705.449 274.048 702.137 274.048ZM724.666 277.468C725.962 277.468 727.366 277.072 728.266 276.46V273.184C727.402 273.796 726.142 274.228 724.99 274.228C722.866 274.228 721.498 272.86 721.498 270.556V262.456H728.266V259.36H721.498V254.788H717.934V259.36H714.442V262.456H717.934V270.664C717.934 274.696 720.274 277.468 724.666 277.468ZM735.329 255.868C736.625 255.868 737.633 254.824 737.633 253.528C737.633 252.232 736.625 251.152 735.329 251.152C734.033 251.152 732.989 252.232 732.989 253.528C732.989 254.824 734.033 255.868 735.329 255.868ZM733.565 259.36V277H737.129V259.36H733.565ZM751.251 277.432C756.543 277.432 760.611 273.256 760.611 268.144C760.611 263.104 756.579 258.928 751.251 258.928C745.959 258.928 741.819 263.068 741.819 268.144C741.819 273.256 745.923 277.432 751.251 277.432ZM751.251 274.048C747.939 274.048 745.383 271.384 745.383 268.18C745.383 264.94 747.939 262.276 751.251 262.276C754.527 262.276 757.047 264.94 757.047 268.18C757.047 271.384 754.527 274.048 751.251 274.048ZM773.339 262.348C776.867 262.348 778.667 265.192 778.667 268.504V277H782.231V268.072C782.231 262.96 779.099 258.928 773.339 258.928C767.651 258.928 764.591 262.96 764.591 268.108V277H768.155V268.468C768.155 265.192 769.883 262.348 773.339 262.348Z" fill="black"/>
<circle cx="215" cy="505" r="215" fill="#F3C6C9"/>
<path d="M99.7443 441.324C106.512 441.324 109.68 437.22 109.68 430.524V416.88H106.008V430.416C106.008 435.204 103.992 437.868 99.7443 437.868C95.4963 437.868 93.4803 435.204 93.4803 430.416V416.88H89.8083V430.524C89.8083 437.22 92.9403 441.324 99.7443 441.324ZM121.552 441.396C125.296 441.396 128.536 439.272 128.536 435.924C128.536 429.264 118.42 431.892 118.42 428.292C118.42 426.888 119.86 426.024 121.516 426.024C123.136 426.024 124.576 426.564 125.332 428.112L128.068 426.564C126.952 424.512 124.72 423 121.444 423C117.592 423 114.856 425.268 114.856 428.364C114.856 435.096 124.972 432.288 124.972 435.996C124.972 437.544 123.424 438.372 121.408 438.372C119.464 438.372 118.024 437.724 117.124 435.96L114.388 437.472C115.756 440.1 118.276 441.396 121.552 441.396ZM135.313 419.868C136.609 419.868 137.617 418.824 137.617 417.528C137.617 416.232 136.609 415.152 135.313 415.152C134.017 415.152 132.973 416.232 132.973 417.528C132.973 418.824 134.017 419.868 135.313 419.868ZM133.549 423.36V441H137.113V423.36H133.549ZM151.667 426.348C155.195 426.348 156.995 429.192 156.995 432.504V441H160.559V432.072C160.559 426.96 157.427 422.928 151.667 422.928C145.979 422.928 142.919 426.96 142.919 432.108V441H146.483V432.468C146.483 429.192 148.211 426.348 151.667 426.348ZM173.621 449.532C179.237 449.532 183.341 445.536 183.341 439.416V432.144C183.341 426.888 179.273 422.928 173.945 422.928C168.581 422.928 164.549 427.068 164.549 432.108C164.549 437.292 168.509 441.252 173.513 441.252C176.465 441.252 178.625 439.884 179.777 438.048V439.452C179.777 443.592 177.257 446.256 173.549 446.256C170.993 446.256 169.049 445.032 168.005 443.124L165.017 444.744C166.637 447.876 169.805 449.532 173.621 449.532ZM173.909 437.904C170.705 437.904 168.077 435.312 168.077 432.072C168.077 428.832 170.705 426.312 173.909 426.312C177.149 426.312 179.741 428.832 179.741 432.072C179.741 435.312 177.149 437.904 173.909 437.904ZM220.6 422.856C217.252 422.856 214.768 424.656 213.796 427.392C212.896 424.656 210.34 422.856 206.812 422.856C201.52 422.856 198.712 426.816 198.712 431.748V441H202.276V432.288C202.276 429.084 203.752 426.276 207.064 426.276C210.34 426.276 211.96 428.976 211.96 432.216V441H215.524V432.216C215.524 428.976 217.144 426.276 220.348 426.276C223.66 426.276 225.244 429.084 225.244 432.288V441H228.808V431.712C228.808 426.816 225.928 422.856 220.6 422.856ZM242.328 437.976C239.088 437.976 237.324 435.132 237.324 431.892V423.36H233.76V432.252C233.76 437.364 236.856 441.432 242.328 441.432C247.872 441.432 250.968 437.4 250.968 432.288V423.36H247.404V431.856C247.404 435.132 245.604 437.976 242.328 437.976ZM256.491 415.26V441H260.055V415.26H256.491ZM273.889 441.468C275.185 441.468 276.589 441.072 277.489 440.46V437.184C276.625 437.796 275.365 438.228 274.213 438.228C272.089 438.228 270.721 436.86 270.721 434.556V426.456H277.489V423.36H270.721V418.788H267.157V423.36H263.665V426.456H267.157V434.664C267.157 438.696 269.497 441.468 273.889 441.468ZM284.552 419.868C285.848 419.868 286.856 418.824 286.856 417.528C286.856 416.232 285.848 415.152 284.552 415.152C283.256 415.152 282.212 416.232 282.212 417.528C282.212 418.824 283.256 419.868 284.552 419.868ZM282.788 423.36V441H286.352V423.36H282.788ZM295.722 449.1V438.804C297.162 440.388 299.322 441.432 301.698 441.432C307.062 441.432 310.914 437.472 310.914 432.144C310.914 427.104 306.882 422.928 301.554 422.928C296.226 422.928 292.158 426.888 292.158 432.144V449.1H295.722ZM301.554 438.084C298.242 438.084 295.722 435.384 295.722 432.18C295.722 428.94 298.242 426.312 301.554 426.312C304.83 426.312 307.35 428.94 307.35 432.18C307.35 435.384 304.83 438.084 301.554 438.084ZM315.659 415.26V441H319.223V415.26H315.659ZM333.273 441.396C336.729 441.396 339.573 439.776 341.121 436.752L338.385 435.348C337.341 437.292 335.397 438.228 333.237 438.228C330.069 438.228 327.765 436.104 327.369 433.08H341.481V431.64C341.481 426.708 338.169 422.856 332.841 422.856C327.549 422.856 323.913 426.996 323.913 432.072C323.913 437.508 327.909 441.396 333.273 441.396ZM327.513 430.776C327.873 428.148 329.817 426.06 332.805 426.06C335.721 426.06 337.773 427.968 337.917 430.776H327.513ZM105.597 499.1V488.804C107.037 490.388 109.197 491.432 111.573 491.432C116.937 491.432 120.789 487.472 120.789 482.144C120.789 477.104 116.757 472.928 111.429 472.928C106.101 472.928 102.033 476.888 102.033 482.144V499.1H105.597ZM111.429 488.084C108.117 488.084 105.597 485.384 105.597 482.18C105.597 478.94 108.117 476.312 111.429 476.312C114.705 476.312 117.225 478.94 117.225 482.18C117.225 485.384 114.705 488.084 111.429 488.084ZM125.534 465.26V491H129.098V465.26H125.534ZM142.644 491.432C145.524 491.432 147.864 490.064 149.196 487.904V491H152.58V482.144C152.58 476.888 148.512 472.928 143.184 472.928C137.82 472.928 133.788 477.104 133.788 482.144C133.788 487.256 137.532 491.432 142.644 491.432ZM143.184 488.048C139.908 488.048 137.352 485.384 137.352 482.18C137.352 478.94 139.908 476.276 143.184 476.276C146.496 476.276 149.016 478.94 149.016 482.18C149.016 485.384 146.496 488.048 143.184 488.048ZM165.713 491.468C167.009 491.468 168.413 491.072 169.313 490.46V487.184C168.449 487.796 167.189 488.228 166.037 488.228C163.913 488.228 162.545 486.86 162.545 484.556V476.456H169.313V473.36H162.545V468.788H158.981V473.36H155.489V476.456H158.981V484.664C158.981 488.696 161.321 491.468 165.713 491.468ZM178.414 491V476.456H184.606V473.36H178.414V471.524C178.414 469.184 179.746 468.212 181.942 468.212C182.95 468.212 183.994 468.5 184.822 469.004V465.62C183.922 465.188 182.806 464.972 181.618 464.972C177.19 464.972 174.85 467.78 174.85 471.524V473.36H171.502V476.456H174.85V491H178.414ZM195.673 491.432C200.965 491.432 205.033 487.256 205.033 482.144C205.033 477.104 201.001 472.928 195.673 472.928C190.381 472.928 186.241 477.068 186.241 482.144C186.241 487.256 190.345 491.432 195.673 491.432ZM195.673 488.048C192.361 488.048 189.805 485.384 189.805 482.18C189.805 478.94 192.361 476.276 195.673 476.276C198.949 476.276 201.469 478.94 201.469 482.18C201.469 485.384 198.949 488.048 195.673 488.048ZM212.577 491V480.632C212.577 478.04 214.017 476.42 216.393 476.42C217.365 476.42 218.373 476.672 219.237 477.176V473.648C218.337 473.216 217.185 473 216.069 473C211.461 473 209.013 476.204 209.013 480.488V491H212.577ZM243.557 472.856C240.209 472.856 237.725 474.656 236.753 477.392C235.853 474.656 233.297 472.856 229.769 472.856C224.477 472.856 221.669 476.816 221.669 481.748V491H225.233V482.288C225.233 479.084 226.709 476.276 230.021 476.276C233.297 476.276 234.917 478.976 234.917 482.216V491H238.481V482.216C238.481 478.976 240.101 476.276 243.305 476.276C246.617 476.276 248.201 479.084 248.201 482.288V491H251.765V481.712C251.765 476.816 248.885 472.856 243.557 472.856ZM263.197 491.396C266.941 491.396 270.181 489.272 270.181 485.924C270.181 479.264 260.065 481.892 260.065 478.292C260.065 476.888 261.505 476.024 263.161 476.024C264.781 476.024 266.221 476.564 266.977 478.112L269.713 476.564C268.597 474.512 266.365 473 263.089 473C259.237 473 256.501 475.268 256.501 478.364C256.501 485.096 266.617 482.288 266.617 485.996C266.617 487.544 265.069 488.372 263.053 488.372C261.109 488.372 259.669 487.724 258.769 485.96L256.033 487.472C257.401 490.1 259.921 491.396 263.197 491.396ZM290.176 491V476.456H296.368V473.36H290.176V471.524C290.176 469.184 291.508 468.212 293.704 468.212C294.712 468.212 295.756 468.5 296.584 469.004V465.62C295.684 465.188 294.568 464.972 293.38 464.972C288.952 464.972 286.612 467.78 286.612 471.524V473.36H283.264V476.456H286.612V491H290.176ZM307.435 491.432C312.727 491.432 316.795 487.256 316.795 482.144C316.795 477.104 312.763 472.928 307.435 472.928C302.143 472.928 298.003 477.068 298.003 482.144C298.003 487.256 302.107 491.432 307.435 491.432ZM307.435 488.048C304.123 488.048 301.567 485.384 301.567 482.18C301.567 478.94 304.123 476.276 307.435 476.276C310.711 476.276 313.231 478.94 313.231 482.18C313.231 485.384 310.711 488.048 307.435 488.048ZM324.339 491V480.632C324.339 478.04 325.779 476.42 328.155 476.42C329.127 476.42 330.135 476.672 330.999 477.176V473.648C330.099 473.216 328.947 473 327.831 473C323.223 473 320.775 476.204 320.775 480.488V491H324.339ZM118.775 541.396C122.519 541.396 125.759 539.272 125.759 535.924C125.759 529.264 115.643 531.892 115.643 528.292C115.643 526.888 117.083 526.024 118.739 526.024C120.359 526.024 121.799 526.564 122.555 528.112L125.291 526.564C124.175 524.512 121.943 523 118.667 523C114.815 523 112.079 525.268 112.079 528.364C112.079 535.096 122.195 532.288 122.195 535.996C122.195 537.544 120.647 538.372 118.631 538.372C116.687 538.372 115.247 537.724 114.347 535.96L111.611 537.472C112.979 540.1 115.499 541.396 118.775 541.396ZM134.336 541V532.252C134.336 528.832 136.532 526.312 139.664 526.312C143.012 526.312 144.74 529.012 144.74 532.144V541H148.304V531.784C148.304 526.384 145.388 522.928 140.204 522.928C137.828 522.928 135.704 523.864 134.336 525.34V515.26H130.772V541H134.336ZM161.136 541.432C164.016 541.432 166.356 540.064 167.688 537.904V541H171.072V532.144C171.072 526.888 167.004 522.928 161.676 522.928C156.312 522.928 152.28 527.104 152.28 532.144C152.28 537.256 156.024 541.432 161.136 541.432ZM161.676 538.048C158.4 538.048 155.844 535.384 155.844 532.18C155.844 528.94 158.4 526.276 161.676 526.276C164.988 526.276 167.508 528.94 167.508 532.18C167.508 535.384 164.988 538.048 161.676 538.048ZM179.741 541V530.632C179.741 528.04 181.181 526.42 183.557 526.42C184.529 526.42 185.537 526.672 186.401 527.176V523.648C185.501 523.216 184.349 523 183.233 523C178.625 523 176.177 526.204 176.177 530.488V541H179.741ZM190.966 519.868C192.262 519.868 193.27 518.824 193.27 517.528C193.27 516.232 192.262 515.152 190.966 515.152C189.67 515.152 188.626 516.232 188.626 517.528C188.626 518.824 189.67 519.868 190.966 519.868ZM189.202 523.36V541H192.766V523.36H189.202ZM207.32 526.348C210.848 526.348 212.648 529.192 212.648 532.504V541H216.212V532.072C216.212 526.96 213.08 522.928 207.32 522.928C201.632 522.928 198.572 526.96 198.572 532.108V541H202.136V532.468C202.136 529.192 203.864 526.348 207.32 526.348ZM229.274 549.532C234.89 549.532 238.994 545.536 238.994 539.416V532.144C238.994 526.888 234.926 522.928 229.598 522.928C224.234 522.928 220.202 527.068 220.202 532.108C220.202 537.292 224.162 541.252 229.166 541.252C232.118 541.252 234.278 539.884 235.43 538.048V539.452C235.43 543.592 232.91 546.256 229.202 546.256C226.646 546.256 224.702 545.032 223.658 543.124L220.67 544.744C222.29 547.876 225.458 549.532 229.274 549.532ZM229.562 537.904C226.358 537.904 223.73 535.312 223.73 532.072C223.73 528.832 226.358 526.312 229.562 526.312C232.802 526.312 235.394 528.832 235.394 532.072C235.394 535.312 232.802 537.904 229.562 537.904ZM262.105 541.432C264.985 541.432 267.325 540.064 268.657 537.904V541H272.041V532.144C272.041 526.888 267.973 522.928 262.645 522.928C257.281 522.928 253.249 527.104 253.249 532.144C253.249 537.256 256.993 541.432 262.105 541.432ZM262.645 538.048C259.369 538.048 256.813 535.384 256.813 532.18C256.813 528.94 259.369 526.276 262.645 526.276C265.957 526.276 268.477 528.94 268.477 532.18C268.477 535.384 265.957 538.048 262.645 538.048ZM285.894 526.348C289.422 526.348 291.222 529.192 291.222 532.504V541H294.786V532.072C294.786 526.96 291.654 522.928 285.894 522.928C280.206 522.928 277.146 526.96 277.146 532.108V541H280.71V532.468C280.71 529.192 282.438 526.348 285.894 526.348ZM308.172 541.432C313.5 541.432 317.568 537.436 317.568 532.216V515.26H314.004L313.968 525.556C312.528 523.972 310.368 522.928 307.992 522.928C302.664 522.928 298.776 526.852 298.776 532.216C298.776 537.292 302.808 541.432 308.172 541.432ZM308.172 538.084C304.896 538.084 302.34 535.42 302.34 532.18C302.34 528.976 304.896 526.312 308.172 526.312C311.484 526.312 314.004 528.976 314.004 532.18C314.004 535.42 311.484 538.084 308.172 538.084ZM85.8748 591.396C89.1148 591.396 92.1028 589.956 93.7227 586.752L90.7708 585.132C89.7268 587.04 87.9628 588.048 85.8748 588.048C82.7788 588.048 80.2228 585.384 80.2228 582.144C80.2228 578.94 82.7788 576.312 85.8748 576.312C87.9628 576.312 89.7268 577.32 90.7708 579.228L93.7227 577.572C92.1028 574.404 89.1148 572.928 85.8748 572.928C80.7988 572.892 76.6588 577.068 76.6588 582.144C76.6588 587.256 80.7988 591.468 85.8748 591.396ZM105.673 591.432C110.965 591.432 115.033 587.256 115.033 582.144C115.033 577.104 111.001 572.928 105.673 572.928C100.381 572.928 96.2408 577.068 96.2408 582.144C96.2408 587.256 100.345 591.432 105.673 591.432ZM105.673 588.048C102.361 588.048 99.8048 585.384 99.8048 582.18C99.8048 578.94 102.361 576.276 105.673 576.276C108.949 576.276 111.469 578.94 111.469 582.18C111.469 585.384 108.949 588.048 105.673 588.048ZM140.901 572.856C137.553 572.856 135.069 574.656 134.097 577.392C133.197 574.656 130.641 572.856 127.113 572.856C121.821 572.856 119.013 576.816 119.013 581.748V591H122.577V582.288C122.577 579.084 124.053 576.276 127.365 576.276C130.641 576.276 132.261 578.976 132.261 582.216V591H135.825V582.216C135.825 578.976 137.445 576.276 140.649 576.276C143.961 576.276 145.545 579.084 145.545 582.288V591H149.109V581.712C149.109 576.816 146.229 572.856 140.901 572.856ZM176.092 572.856C172.744 572.856 170.26 574.656 169.288 577.392C168.388 574.656 165.832 572.856 162.304 572.856C157.012 572.856 154.204 576.816 154.204 581.748V591H157.768V582.288C157.768 579.084 159.244 576.276 162.556 576.276C165.832 576.276 167.452 578.976 167.452 582.216V591H171.016V582.216C171.016 578.976 172.636 576.276 175.84 576.276C179.152 576.276 180.736 579.084 180.736 582.288V591H184.3V581.712C184.3 576.816 181.42 572.856 176.092 572.856ZM197.82 587.976C194.58 587.976 192.816 585.132 192.816 581.892V573.36H189.252V582.252C189.252 587.364 192.348 591.432 197.82 591.432C203.364 591.432 206.46 587.4 206.46 582.288V573.36H202.896V581.856C202.896 585.132 201.096 587.976 197.82 587.976ZM220.187 576.348C223.715 576.348 225.515 579.192 225.515 582.504V591H229.079V582.072C229.079 576.96 225.947 572.928 220.187 572.928C214.499 572.928 211.439 576.96 211.439 582.108V591H215.003V582.468C215.003 579.192 216.731 576.348 220.187 576.348ZM236.669 569.868C237.965 569.868 238.973 568.824 238.973 567.528C238.973 566.232 237.965 565.152 236.669 565.152C235.373 565.152 234.329 566.232 234.329 567.528C234.329 568.824 235.373 569.868 236.669 569.868ZM234.905 573.36V591H238.469V573.36H234.905ZM252.375 591.396C255.615 591.396 258.603 589.956 260.223 586.752L257.271 585.132C256.227 587.04 254.463 588.048 252.375 588.048C249.279 588.048 246.723 585.384 246.723 582.144C246.723 578.94 249.279 576.312 252.375 576.312C254.463 576.312 256.227 577.32 257.271 579.228L260.223 577.572C258.603 574.404 255.615 572.928 252.375 572.928C247.299 572.892 243.159 577.068 243.159 582.144C243.159 587.256 247.299 591.468 252.375 591.396ZM271.597 591.432C274.477 591.432 276.817 590.064 278.149 587.904V591H281.533V582.144C281.533 576.888 277.465 572.928 272.137 572.928C266.773 572.928 262.741 577.104 262.741 582.144C262.741 587.256 266.485 591.432 271.597 591.432ZM272.137 588.048C268.861 588.048 266.305 585.384 266.305 582.18C266.305 578.94 268.861 576.276 272.137 576.276C275.449 576.276 277.969 578.94 277.969 582.18C277.969 585.384 275.449 588.048 272.137 588.048ZM294.666 591.468C295.962 591.468 297.366 591.072 298.266 590.46V587.184C297.402 587.796 296.142 588.228 294.99 588.228C292.866 588.228 291.498 586.86 291.498 584.556V576.456H298.266V573.36H291.498V568.788H287.934V573.36H284.442V576.456H287.934V584.664C287.934 588.696 290.274 591.468 294.666 591.468ZM305.329 569.868C306.625 569.868 307.633 568.824 307.633 567.528C307.633 566.232 306.625 565.152 305.329 565.152C304.033 565.152 302.989 566.232 302.989 567.528C302.989 568.824 304.033 569.868 305.329 569.868ZM303.565 573.36V591H307.129V573.36H303.565ZM321.251 591.432C326.543 591.432 330.611 587.256 330.611 582.144C330.611 577.104 326.579 572.928 321.251 572.928C315.959 572.928 311.819 577.068 311.819 582.144C311.819 587.256 315.923 591.432 321.251 591.432ZM321.251 588.048C317.939 588.048 315.383 585.384 315.383 582.18C315.383 578.94 317.939 576.276 321.251 576.276C324.527 576.276 327.047 578.94 327.047 582.18C327.047 585.384 324.527 588.048 321.251 588.048ZM343.339 576.348C346.867 576.348 348.667 579.192 348.667 582.504V591H352.231V582.072C352.231 576.96 349.099 572.928 343.339 572.928C337.651 572.928 334.591 576.96 334.591 582.108V591H338.155V582.468C338.155 579.192 339.883 576.348 343.339 576.348Z" fill="black"/>
<circle cx="1075" cy="505" r="215" fill="#F18543"/>
<path d="M980.62 416.88V441H984.292V416.88H980.62ZM999.187 426.348C1002.71 426.348 1004.51 429.192 1004.51 432.504V441H1008.08V432.072C1008.08 426.96 1004.95 422.928 999.187 422.928C993.499 422.928 990.439 426.96 990.439 432.108V441H994.003V432.468C994.003 429.192 995.731 426.348 999.187 426.348ZM1020.92 441.432C1023.8 441.432 1026.14 440.064 1027.48 437.904V441H1030.86V432.144C1030.86 426.888 1026.79 422.928 1021.46 422.928C1016.1 422.928 1012.07 427.104 1012.07 432.144C1012.07 437.256 1015.81 441.432 1020.92 441.432ZM1021.46 438.048C1018.19 438.048 1015.63 435.384 1015.63 432.18C1015.63 428.94 1018.19 426.276 1021.46 426.276C1024.78 426.276 1027.3 428.94 1027.3 432.18C1027.3 435.384 1024.78 438.048 1021.46 438.048ZM1045.36 441.432C1050.69 441.432 1054.72 437.292 1054.72 432.216C1054.72 426.852 1050.87 422.928 1045.51 422.928C1043.13 422.928 1040.97 423.972 1039.53 425.556V415.26H1035.97V432.216C1035.97 437.436 1040.03 441.432 1045.36 441.432ZM1045.36 438.084C1042.05 438.084 1039.53 435.42 1039.53 432.18C1039.53 428.976 1042.05 426.312 1045.36 426.312C1048.64 426.312 1051.16 428.976 1051.16 432.18C1051.16 435.42 1048.64 438.084 1045.36 438.084ZM1061.23 419.868C1062.53 419.868 1063.54 418.824 1063.54 417.528C1063.54 416.232 1062.53 415.152 1061.23 415.152C1059.94 415.152 1058.89 416.232 1058.89 417.528C1058.89 418.824 1059.94 419.868 1061.23 419.868ZM1059.47 423.36V441H1063.03V423.36H1059.47ZM1069.38 415.26V441H1072.95V415.26H1069.38ZM1081.24 419.868C1082.53 419.868 1083.54 418.824 1083.54 417.528C1083.54 416.232 1082.53 415.152 1081.24 415.152C1079.94 415.152 1078.9 416.232 1078.9 417.528C1078.9 418.824 1079.94 419.868 1081.24 419.868ZM1079.47 423.36V441H1083.04V423.36H1079.47ZM1096.87 441.468C1098.17 441.468 1099.57 441.072 1100.47 440.46V437.184C1099.61 437.796 1098.35 438.228 1097.19 438.228C1095.07 438.228 1093.7 436.86 1093.7 434.556V426.456H1100.47V423.36H1093.7V418.788H1090.14V423.36H1086.65V426.456H1090.14V434.664C1090.14 438.696 1092.48 441.468 1096.87 441.468ZM1113.11 449.568C1118.84 449.568 1122.29 445.5 1122.29 439.596V423.36H1118.69V432.072C1118.69 435.312 1116.68 437.904 1113.58 437.904C1110.38 437.904 1108.65 435.636 1108.65 432.324V423.36H1105.12V432.504C1105.12 437.688 1107.75 441.252 1113.15 441.252C1115.81 441.252 1117.68 440.064 1118.73 438.084V439.632C1118.73 443.448 1116.78 446.256 1113.04 446.256C1110.63 446.256 1108.65 445.14 1107.64 443.232L1104.69 444.852C1106.27 447.984 1109.37 449.568 1113.11 449.568ZM1146.09 441.468C1147.38 441.468 1148.79 441.072 1149.69 440.46V437.184C1148.82 437.796 1147.56 438.228 1146.41 438.228C1144.29 438.228 1142.92 436.86 1142.92 434.556V426.456H1149.69V423.36H1142.92V418.788H1139.36V423.36H1135.86V426.456H1139.36V434.664C1139.36 438.696 1141.7 441.468 1146.09 441.468ZM1162.23 441.432C1167.52 441.432 1171.59 437.256 1171.59 432.144C1171.59 427.104 1167.56 422.928 1162.23 422.928C1156.94 422.928 1152.8 427.068 1152.8 432.144C1152.8 437.256 1156.9 441.432 1162.23 441.432ZM1162.23 438.048C1158.92 438.048 1156.36 435.384 1156.36 432.18C1156.36 428.94 1158.92 426.276 1162.23 426.276C1165.51 426.276 1168.03 428.94 1168.03 432.18C1168.03 435.384 1165.51 438.048 1162.23 438.048ZM930.321 491.396C933.777 491.396 936.621 489.776 938.169 486.752L935.433 485.348C934.389 487.292 932.445 488.228 930.285 488.228C927.117 488.228 924.813 486.104 924.417 483.08H938.529V481.64C938.529 476.708 935.217 472.856 929.889 472.856C924.597 472.856 920.961 476.996 920.961 482.072C920.961 487.508 924.957 491.396 930.321 491.396ZM924.561 480.776C924.921 478.148 926.865 476.06 929.853 476.06C932.769 476.06 934.821 477.968 934.965 480.776H924.561ZM945.997 491L949.597 485.672C949.993 485.06 950.281 484.412 950.461 483.728H952.225C952.405 484.412 952.693 485.06 953.089 485.672L956.689 491H960.721L956.257 484.304C955.717 483.512 955.465 482.828 955.465 482.18C955.465 481.568 955.681 480.956 956.185 480.2L960.721 473.36H956.653L953.089 478.724C952.729 479.264 952.477 479.876 952.297 480.488H950.389C950.245 479.876 949.957 479.264 949.597 478.724L945.997 473.36H941.965L946.501 480.2C947.005 480.956 947.221 481.568 947.221 482.18C947.221 482.828 946.969 483.512 946.429 484.304L941.965 491H945.997ZM968.919 499.1V488.804C970.359 490.388 972.519 491.432 974.895 491.432C980.259 491.432 984.111 487.472 984.111 482.144C984.111 477.104 980.079 472.928 974.751 472.928C969.423 472.928 965.355 476.888 965.355 482.144V499.1H968.919ZM974.751 488.084C971.439 488.084 968.919 485.384 968.919 482.18C968.919 478.94 971.439 476.312 974.751 476.312C978.027 476.312 980.547 478.94 980.547 482.18C980.547 485.384 978.027 488.084 974.751 488.084ZM991.7 491V480.632C991.7 478.04 993.14 476.42 995.516 476.42C996.488 476.42 997.496 476.672 998.36 477.176V473.648C997.46 473.216 996.308 473 995.192 473C990.584 473 988.136 476.204 988.136 480.488V491H991.7ZM1009.21 491.396C1012.67 491.396 1015.51 489.776 1017.06 486.752L1014.32 485.348C1013.28 487.292 1011.34 488.228 1009.18 488.228C1006.01 488.228 1003.7 486.104 1003.31 483.08H1017.42V481.64C1017.42 476.708 1014.11 472.856 1008.78 472.856C1003.49 472.856 999.852 476.996 999.852 482.072C999.852 487.508 1003.85 491.396 1009.21 491.396ZM1003.45 480.776C1003.81 478.148 1005.76 476.06 1008.74 476.06C1011.66 476.06 1013.71 477.968 1013.86 480.776H1003.45ZM1028.01 491.396C1031.76 491.396 1035 489.272 1035 485.924C1035 479.264 1024.88 481.892 1024.88 478.292C1024.88 476.888 1026.32 476.024 1027.98 476.024C1029.6 476.024 1031.04 476.564 1031.79 478.112L1034.53 476.564C1033.41 474.512 1031.18 473 1027.9 473C1024.05 473 1021.32 475.268 1021.32 478.364C1021.32 485.096 1031.43 482.288 1031.43 485.996C1031.43 487.544 1029.88 488.372 1027.87 488.372C1025.92 488.372 1024.48 487.724 1023.58 485.96L1020.85 487.472C1022.22 490.1 1024.74 491.396 1028.01 491.396ZM1045.62 491.396C1049.37 491.396 1052.61 489.272 1052.61 485.924C1052.61 479.264 1042.49 481.892 1042.49 478.292C1042.49 476.888 1043.93 476.024 1045.59 476.024C1047.21 476.024 1048.65 476.564 1049.4 478.112L1052.14 476.564C1051.02 474.512 1048.79 473 1045.52 473C1041.66 473 1038.93 475.268 1038.93 478.364C1038.93 485.096 1049.04 482.288 1049.04 485.996C1049.04 487.544 1047.5 488.372 1045.48 488.372C1043.54 488.372 1042.1 487.724 1041.2 485.96L1038.46 487.472C1039.83 490.1 1042.35 491.396 1045.62 491.396ZM1075.41 491.396C1078.87 491.396 1081.71 489.776 1083.26 486.752L1080.52 485.348C1079.48 487.292 1077.54 488.228 1075.38 488.228C1072.21 488.228 1069.9 486.104 1069.51 483.08H1083.62V481.64C1083.62 476.708 1080.31 472.856 1074.98 472.856C1069.69 472.856 1066.05 476.996 1066.05 482.072C1066.05 487.508 1070.05 491.396 1075.41 491.396ZM1069.65 480.776C1070.01 478.148 1071.96 476.06 1074.94 476.06C1077.86 476.06 1079.91 477.968 1080.06 480.776H1069.65ZM1109.76 472.856C1106.41 472.856 1103.93 474.656 1102.96 477.392C1102.06 474.656 1099.5 472.856 1095.97 472.856C1090.68 472.856 1087.87 476.816 1087.87 481.748V491H1091.44V482.288C1091.44 479.084 1092.91 476.276 1096.23 476.276C1099.5 476.276 1101.12 478.976 1101.12 482.216V491H1104.69V482.216C1104.69 478.976 1106.31 476.276 1109.51 476.276C1112.82 476.276 1114.41 479.084 1114.41 482.288V491H1117.97V481.712C1117.97 476.816 1115.09 472.856 1109.76 472.856ZM1131.38 491.432C1136.67 491.432 1140.74 487.256 1140.74 482.144C1140.74 477.104 1136.71 472.928 1131.38 472.928C1126.09 472.928 1121.95 477.068 1121.95 482.144C1121.95 487.256 1126.05 491.432 1131.38 491.432ZM1131.38 488.048C1128.07 488.048 1125.51 485.384 1125.51 482.18C1125.51 478.94 1128.07 476.276 1131.38 476.276C1134.66 476.276 1137.18 478.94 1137.18 482.18C1137.18 485.384 1134.66 488.048 1131.38 488.048ZM1152.75 491.468C1154.05 491.468 1155.45 491.072 1156.35 490.46V487.184C1155.49 487.796 1154.23 488.228 1153.07 488.228C1150.95 488.228 1149.58 486.86 1149.58 484.556V476.456H1156.35V473.36H1149.58V468.788H1146.02V473.36H1142.53V476.456H1146.02V484.664C1146.02 488.696 1148.36 491.468 1152.75 491.468ZM1163.41 469.868C1164.71 469.868 1165.72 468.824 1165.72 467.528C1165.72 466.232 1164.71 465.152 1163.41 465.152C1162.12 465.152 1161.07 466.232 1161.07 467.528C1161.07 468.824 1162.12 469.868 1163.41 469.868ZM1161.65 473.36V491H1165.21V473.36H1161.65ZM1179.33 491.432C1184.63 491.432 1188.69 487.256 1188.69 482.144C1188.69 477.104 1184.66 472.928 1179.33 472.928C1174.04 472.928 1169.9 477.068 1169.9 482.144C1169.9 487.256 1174.01 491.432 1179.33 491.432ZM1179.33 488.048C1176.02 488.048 1173.47 485.384 1173.47 482.18C1173.47 478.94 1176.02 476.276 1179.33 476.276C1182.61 476.276 1185.13 478.94 1185.13 482.18C1185.13 485.384 1182.61 488.048 1179.33 488.048ZM1201.42 476.348C1204.95 476.348 1206.75 479.192 1206.75 482.504V491H1210.32V482.072C1210.32 476.96 1207.18 472.928 1201.42 472.928C1195.74 472.928 1192.68 476.96 1192.68 482.108V491H1196.24V482.468C1196.24 479.192 1197.97 476.348 1201.42 476.348ZM1221.76 491.396C1225.5 491.396 1228.74 489.272 1228.74 485.924C1228.74 479.264 1218.63 481.892 1218.63 478.292C1218.63 476.888 1220.07 476.024 1221.72 476.024C1223.34 476.024 1224.78 476.564 1225.54 478.112L1228.27 476.564C1227.16 474.512 1224.93 473 1221.65 473C1217.8 473 1215.06 475.268 1215.06 478.364C1215.06 485.096 1225.18 482.288 1225.18 485.996C1225.18 487.544 1223.63 488.372 1221.61 488.372C1219.67 488.372 1218.23 487.724 1217.33 485.96L1214.59 487.472C1215.96 490.1 1218.48 491.396 1221.76 491.396ZM970.317 541.432C973.197 541.432 975.537 540.064 976.869 537.904V541H980.253V532.144C980.253 526.888 976.185 522.928 970.857 522.928C965.493 522.928 961.461 527.104 961.461 532.144C961.461 537.256 965.205 541.432 970.317 541.432ZM970.857 538.048C967.581 538.048 965.025 535.384 965.025 532.18C965.025 528.94 967.581 526.276 970.857 526.276C974.169 526.276 976.689 528.94 976.689 532.18C976.689 535.384 974.169 538.048 970.857 538.048ZM994.107 526.348C997.635 526.348 999.435 529.192 999.435 532.504V541H1003V532.072C1003 526.96 999.867 522.928 994.107 522.928C988.419 522.928 985.359 526.96 985.359 532.108V541H988.923V532.468C988.923 529.192 990.651 526.348 994.107 526.348ZM1016.38 541.432C1021.71 541.432 1025.78 537.436 1025.78 532.216V515.26H1022.22L1022.18 525.556C1020.74 523.972 1018.58 522.928 1016.2 522.928C1010.88 522.928 1006.99 526.852 1006.99 532.216C1006.99 537.292 1011.02 541.432 1016.38 541.432ZM1016.38 538.084C1013.11 538.084 1010.55 535.42 1010.55 532.18C1010.55 528.976 1013.11 526.312 1016.38 526.312C1019.7 526.312 1022.22 528.976 1022.22 532.18C1022.22 535.42 1019.7 538.084 1016.38 538.084ZM1044.72 549.1V538.804C1046.16 540.388 1048.32 541.432 1050.69 541.432C1056.06 541.432 1059.91 537.472 1059.91 532.144C1059.91 527.104 1055.88 522.928 1050.55 522.928C1045.22 522.928 1041.15 526.888 1041.15 532.144V549.1H1044.72ZM1050.55 538.084C1047.24 538.084 1044.72 535.384 1044.72 532.18C1044.72 528.94 1047.24 526.312 1050.55 526.312C1053.82 526.312 1056.34 528.94 1056.34 532.18C1056.34 535.384 1053.82 538.084 1050.55 538.084ZM1072.18 541.396C1075.63 541.396 1078.48 539.776 1080.02 536.752L1077.29 535.348C1076.24 537.292 1074.3 538.228 1072.14 538.228C1068.97 538.228 1066.67 536.104 1066.27 533.08H1080.38V531.64C1080.38 526.708 1077.07 522.856 1071.74 522.856C1066.45 522.856 1062.82 526.996 1062.82 532.072C1062.82 537.508 1066.81 541.396 1072.18 541.396ZM1066.42 530.776C1066.78 528.148 1068.72 526.06 1071.71 526.06C1074.62 526.06 1076.68 527.968 1076.82 530.776H1066.42ZM1088.2 541V530.632C1088.2 528.04 1089.64 526.42 1092.02 526.42C1092.99 526.42 1094 526.672 1094.86 527.176V523.648C1093.96 523.216 1092.81 523 1091.7 523C1087.09 523 1084.64 526.204 1084.64 530.488V541H1088.2ZM1103.98 541.396C1107.73 541.396 1110.97 539.272 1110.97 535.924C1110.97 529.264 1100.85 531.892 1100.85 528.292C1100.85 526.888 1102.29 526.024 1103.95 526.024C1105.57 526.024 1107.01 526.564 1107.76 528.112L1110.5 526.564C1109.38 524.512 1107.15 523 1103.88 523C1100.02 523 1097.29 525.268 1097.29 528.364C1097.29 535.096 1107.4 532.288 1107.4 535.996C1107.4 537.544 1105.86 538.372 1103.84 538.372C1101.9 538.372 1100.46 537.724 1099.56 535.96L1096.82 537.472C1098.19 540.1 1100.71 541.396 1103.98 541.396ZM1123.58 541.432C1128.87 541.432 1132.94 537.256 1132.94 532.144C1132.94 527.104 1128.91 522.928 1123.58 522.928C1118.29 522.928 1114.15 527.068 1114.15 532.144C1114.15 537.256 1118.25 541.432 1123.58 541.432ZM1123.58 538.048C1120.27 538.048 1117.71 535.384 1117.71 532.18C1117.71 528.94 1120.27 526.276 1123.58 526.276C1126.85 526.276 1129.37 528.94 1129.37 532.18C1129.37 535.384 1126.85 538.048 1123.58 538.048ZM1145.67 526.348C1149.19 526.348 1150.99 529.192 1150.99 532.504V541H1154.56V532.072C1154.56 526.96 1151.43 522.928 1145.67 522.928C1139.98 522.928 1136.92 526.96 1136.92 532.108V541H1140.48V532.468C1140.48 529.192 1142.21 526.348 1145.67 526.348ZM1167.4 541.432C1170.28 541.432 1172.62 540.064 1173.96 537.904V541H1177.34V532.144C1177.34 526.888 1173.27 522.928 1167.94 522.928C1162.58 522.928 1158.55 527.104 1158.55 532.144C1158.55 537.256 1162.29 541.432 1167.4 541.432ZM1167.94 538.048C1164.67 538.048 1162.11 535.384 1162.11 532.18C1162.11 528.94 1164.67 526.276 1167.94 526.276C1171.26 526.276 1173.78 528.94 1173.78 532.18C1173.78 535.384 1171.26 538.048 1167.94 538.048ZM1183.16 515.26V541H1186.73V515.26H1183.16ZM991.142 591.396C994.598 591.396 997.442 589.776 998.99 586.752L996.254 585.348C995.21 587.292 993.266 588.228 991.106 588.228C987.938 588.228 985.634 586.104 985.238 583.08H999.35V581.64C999.35 576.708 996.038 572.856 990.71 572.856C985.418 572.856 981.782 576.996 981.782 582.072C981.782 587.508 985.778 591.396 991.142 591.396ZM985.382 580.776C985.742 578.148 987.686 576.06 990.674 576.06C993.59 576.06 995.642 577.968 995.786 580.776H985.382ZM1006.82 591L1010.42 585.672C1010.81 585.06 1011.1 584.412 1011.28 583.728H1013.05C1013.23 584.412 1013.51 585.06 1013.91 585.672L1017.51 591H1021.54L1017.08 584.304C1016.54 583.512 1016.29 582.828 1016.29 582.18C1016.29 581.568 1016.5 580.956 1017.01 580.2L1021.54 573.36H1017.47L1013.91 578.724C1013.55 579.264 1013.3 579.876 1013.12 580.488H1011.21C1011.07 579.876 1010.78 579.264 1010.42 578.724L1006.82 573.36H1002.79L1007.32 580.2C1007.83 580.956 1008.04 581.568 1008.04 582.18C1008.04 582.828 1007.79 583.512 1007.25 584.304L1002.79 591H1006.82ZM1029.74 599.1V588.804C1031.18 590.388 1033.34 591.432 1035.72 591.432C1041.08 591.432 1044.93 587.472 1044.93 582.144C1044.93 577.104 1040.9 572.928 1035.57 572.928C1030.24 572.928 1026.18 576.888 1026.18 582.144V599.1H1029.74ZM1035.57 588.084C1032.26 588.084 1029.74 585.384 1029.74 582.18C1029.74 578.94 1032.26 576.312 1035.57 576.312C1038.85 576.312 1041.37 578.94 1041.37 582.18C1041.37 585.384 1038.85 588.084 1035.57 588.084ZM1052.52 591V580.632C1052.52 578.04 1053.96 576.42 1056.34 576.42C1057.31 576.42 1058.32 576.672 1059.18 577.176V573.648C1058.28 573.216 1057.13 573 1056.01 573C1051.4 573 1048.96 576.204 1048.96 580.488V591H1052.52ZM1070.03 591.396C1073.49 591.396 1076.33 589.776 1077.88 586.752L1075.14 585.348C1074.1 587.292 1072.16 588.228 1070 588.228C1066.83 588.228 1064.52 586.104 1064.13 583.08H1078.24V581.64C1078.24 576.708 1074.93 572.856 1069.6 572.856C1064.31 572.856 1060.67 576.996 1060.67 582.072C1060.67 587.508 1064.67 591.396 1070.03 591.396ZM1064.27 580.776C1064.63 578.148 1066.58 576.06 1069.56 576.06C1072.48 576.06 1074.53 577.968 1074.68 580.776H1064.27ZM1088.83 591.396C1092.58 591.396 1095.82 589.272 1095.82 585.924C1095.82 579.264 1085.7 581.892 1085.7 578.292C1085.7 576.888 1087.14 576.024 1088.8 576.024C1090.42 576.024 1091.86 576.564 1092.61 578.112L1095.35 576.564C1094.23 574.512 1092 573 1088.72 573C1084.87 573 1082.14 575.268 1082.14 578.364C1082.14 585.096 1092.25 582.288 1092.25 585.996C1092.25 587.544 1090.7 588.372 1088.69 588.372C1086.74 588.372 1085.3 587.724 1084.4 585.96L1081.67 587.472C1083.04 590.1 1085.56 591.396 1088.83 591.396ZM1106.44 591.396C1110.19 591.396 1113.43 589.272 1113.43 585.924C1113.43 579.264 1103.31 581.892 1103.31 578.292C1103.31 576.888 1104.75 576.024 1106.41 576.024C1108.03 576.024 1109.47 576.564 1110.22 578.112L1112.96 576.564C1111.84 574.512 1109.61 573 1106.34 573C1102.48 573 1099.75 575.268 1099.75 578.364C1099.75 585.096 1109.86 582.288 1109.86 585.996C1109.86 587.544 1108.32 588.372 1106.3 588.372C1104.36 588.372 1102.92 587.724 1102.02 585.96L1099.28 587.472C1100.65 590.1 1103.17 591.396 1106.44 591.396ZM1120.21 569.868C1121.5 569.868 1122.51 568.824 1122.51 567.528C1122.51 566.232 1121.5 565.152 1120.21 565.152C1118.91 565.152 1117.87 566.232 1117.87 567.528C1117.87 568.824 1118.91 569.868 1120.21 569.868ZM1118.44 573.36V591H1122.01V573.36H1118.44ZM1136.13 591.432C1141.42 591.432 1145.49 587.256 1145.49 582.144C1145.49 577.104 1141.46 572.928 1136.13 572.928C1130.84 572.928 1126.7 577.068 1126.7 582.144C1126.7 587.256 1130.8 591.432 1136.13 591.432ZM1136.13 588.048C1132.82 588.048 1130.26 585.384 1130.26 582.18C1130.26 578.94 1132.82 576.276 1136.13 576.276C1139.4 576.276 1141.92 578.94 1141.92 582.18C1141.92 585.384 1139.4 588.048 1136.13 588.048ZM1158.22 576.348C1161.74 576.348 1163.54 579.192 1163.54 582.504V591H1167.11V582.072C1167.11 576.96 1163.98 572.928 1158.22 572.928C1152.53 572.928 1149.47 576.96 1149.47 582.108V591H1153.03V582.468C1153.03 579.192 1154.76 576.348 1158.22 576.348Z" fill="black"/>
<circle cx="645" cy="822" r="215" fill="#D87783"/>
<path d="M551.181 758V751.052H555.357C561.585 751.052 565.869 748.172 565.869 742.412C565.869 736.796 561.657 733.88 555.177 733.88H547.509V758H551.181ZM555.285 737.264C559.353 737.264 562.089 738.884 562.089 742.412C562.089 746.084 559.245 747.632 555.285 747.632H551.181V737.264H555.285ZM577.302 758.432C580.182 758.432 582.522 757.064 583.854 754.904V758H587.238V749.144C587.238 743.888 583.17 739.928 577.842 739.928C572.478 739.928 568.446 744.104 568.446 749.144C568.446 754.256 572.19 758.432 577.302 758.432ZM577.842 755.048C574.566 755.048 572.01 752.384 572.01 749.18C572.01 745.94 574.566 743.276 577.842 743.276C581.154 743.276 583.674 745.94 583.674 749.18C583.674 752.384 581.154 755.048 577.842 755.048ZM595.907 758V747.632C595.907 745.04 597.347 743.42 599.723 743.42C600.695 743.42 601.703 743.672 602.567 744.176V740.648C601.667 740.216 600.515 740 599.399 740C594.791 740 592.343 743.204 592.343 747.488V758H595.907ZM613.419 758.396C616.875 758.396 619.719 756.776 621.267 753.752L618.531 752.348C617.487 754.292 615.543 755.228 613.383 755.228C610.215 755.228 607.911 753.104 607.515 750.08H621.627V748.64C621.627 743.708 618.315 739.856 612.987 739.856C607.695 739.856 604.059 743.996 604.059 749.072C604.059 754.508 608.055 758.396 613.419 758.396ZM607.659 747.776C608.019 745.148 609.963 743.06 612.951 743.06C615.867 743.06 617.919 744.968 618.063 747.776H607.659ZM634.63 743.348C638.158 743.348 639.958 746.192 639.958 749.504V758H643.522V749.072C643.522 743.96 640.39 739.928 634.63 739.928C628.942 739.928 625.882 743.96 625.882 749.108V758H629.446V749.468C629.446 746.192 631.174 743.348 634.63 743.348ZM656.656 758.468C657.952 758.468 659.356 758.072 660.256 757.46V754.184C659.392 754.796 658.132 755.228 656.98 755.228C654.856 755.228 653.488 753.86 653.488 751.556V743.456H660.256V740.36H653.488V735.788H649.924V740.36H646.432V743.456H649.924V751.664C649.924 755.696 652.264 758.468 656.656 758.468ZM670.82 758.396C674.564 758.396 677.804 756.272 677.804 752.924C677.804 746.264 667.688 748.892 667.688 745.292C667.688 743.888 669.128 743.024 670.784 743.024C672.404 743.024 673.844 743.564 674.6 745.112L677.336 743.564C676.22 741.512 673.988 740 670.712 740C666.86 740 664.124 742.268 664.124 745.364C664.124 752.096 674.24 749.288 674.24 752.996C674.24 754.544 672.692 755.372 670.676 755.372C668.732 755.372 667.292 754.724 666.392 752.96L663.656 754.472C665.024 757.1 667.544 758.396 670.82 758.396ZM700.103 758.432C702.983 758.432 705.323 757.064 706.655 754.904V758H710.039V749.144C710.039 743.888 705.971 739.928 700.643 739.928C695.279 739.928 691.247 744.104 691.247 749.144C691.247 754.256 694.991 758.432 700.103 758.432ZM700.643 755.048C697.367 755.048 694.811 752.384 694.811 749.18C694.811 745.94 697.367 743.276 700.643 743.276C703.955 743.276 706.475 745.94 706.475 749.18C706.475 752.384 703.955 755.048 700.643 755.048ZM718.708 758V747.632C718.708 745.04 720.148 743.42 722.524 743.42C723.496 743.42 724.504 743.672 725.368 744.176V740.648C724.468 740.216 723.316 740 722.2 740C717.592 740 715.144 743.204 715.144 747.488V758H718.708ZM736.22 758.396C739.676 758.396 742.52 756.776 744.068 753.752L741.332 752.348C740.288 754.292 738.344 755.228 736.184 755.228C733.016 755.228 730.712 753.104 730.316 750.08H744.428V748.64C744.428 743.708 741.116 739.856 735.788 739.856C730.496 739.856 726.86 743.996 726.86 749.072C726.86 754.508 730.856 758.396 736.22 758.396ZM730.46 747.776C730.82 745.148 732.764 743.06 735.752 743.06C738.668 743.06 740.72 744.968 740.864 747.776H730.46ZM522.036 808.432C524.916 808.432 527.256 807.064 528.588 804.904V808H531.972V799.144C531.972 793.888 527.904 789.928 522.576 789.928C517.212 789.928 513.18 794.104 513.18 799.144C513.18 804.256 516.924 808.432 522.036 808.432ZM522.576 805.048C519.3 805.048 516.744 802.384 516.744 799.18C516.744 795.94 519.3 793.276 522.576 793.276C525.888 793.276 528.408 795.94 528.408 799.18C528.408 802.384 525.888 805.048 522.576 805.048ZM537.797 782.26V808H541.361V782.26H537.797ZM552.747 808.468C554.583 808.468 555.807 807.388 556.311 805.264L559.227 793.6C559.299 793.24 559.479 793.024 559.803 793.024C560.163 793.024 560.343 793.24 560.451 793.6L563.331 805.264C563.835 807.388 565.059 808.468 566.895 808.468C568.659 808.468 570.135 807.388 570.639 805.228L573.987 790.36H570.675L567.543 804.544C567.435 804.976 567.255 805.192 566.931 805.192C566.571 805.192 566.391 804.976 566.283 804.616L563.439 793.096C562.899 790.936 561.711 789.928 559.839 789.928C557.967 789.928 556.743 790.972 556.203 793.132L553.323 804.616C553.251 804.94 553.035 805.192 552.747 805.192C552.351 805.192 552.207 804.976 552.099 804.544L548.859 790.36H545.511L548.967 805.228C549.471 807.388 550.983 808.468 552.747 808.468ZM584.931 808.432C587.811 808.432 590.151 807.064 591.483 804.904V808H594.867V799.144C594.867 793.888 590.799 789.928 585.471 789.928C580.107 789.928 576.075 794.104 576.075 799.144C576.075 804.256 579.819 808.432 584.931 808.432ZM585.471 805.048C582.195 805.048 579.639 802.384 579.639 799.18C579.639 795.94 582.195 793.276 585.471 793.276C588.783 793.276 591.303 795.94 591.303 799.18C591.303 802.384 588.783 805.048 585.471 805.048ZM608.036 816.568C613.76 816.568 617.216 812.5 617.216 806.596V790.36H613.616V799.072C613.616 802.312 611.6 804.904 608.504 804.904C605.3 804.904 603.572 802.636 603.572 799.324V790.36H600.044V799.504C600.044 804.688 602.672 808.252 608.072 808.252C610.736 808.252 612.608 807.064 613.652 805.084V806.632C613.652 810.448 611.708 813.256 607.964 813.256C605.552 813.256 603.572 812.14 602.564 810.232L599.612 811.852C601.196 814.984 604.292 816.568 608.036 816.568ZM629.054 808.396C632.798 808.396 636.038 806.272 636.038 802.924C636.038 796.264 625.922 798.892 625.922 795.292C625.922 793.888 627.362 793.024 629.018 793.024C630.638 793.024 632.078 793.564 632.834 795.112L635.57 793.564C634.454 791.512 632.222 790 628.946 790C625.094 790 622.358 792.268 622.358 795.364C622.358 802.096 632.474 799.288 632.474 802.996C632.474 804.544 630.926 805.372 628.91 805.372C626.966 805.372 625.526 804.724 624.626 802.96L621.89 804.472C623.258 807.1 625.778 808.396 629.054 808.396ZM656.177 808.468C658.013 808.468 659.237 807.388 659.741 805.264L662.657 793.6C662.729 793.24 662.909 793.024 663.233 793.024C663.593 793.024 663.773 793.24 663.881 793.6L666.761 805.264C667.265 807.388 668.489 808.468 670.325 808.468C672.089 808.468 673.565 807.388 674.069 805.228L677.417 790.36H674.105L670.973 804.544C670.865 804.976 670.685 805.192 670.361 805.192C670.001 805.192 669.821 804.976 669.713 804.616L666.869 793.096C666.329 790.936 665.141 789.928 663.269 789.928C661.397 789.928 660.173 790.972 659.633 793.132L656.753 804.616C656.681 804.94 656.465 805.192 656.177 805.192C655.781 805.192 655.637 804.976 655.529 804.544L652.289 790.36H648.941L652.397 805.228C652.901 807.388 654.413 808.468 656.177 808.468ZM688.936 808.432C694.228 808.432 698.296 804.256 698.296 799.144C698.296 794.104 694.264 789.928 688.936 789.928C683.644 789.928 679.504 794.068 679.504 799.144C679.504 804.256 683.608 808.432 688.936 808.432ZM688.936 805.048C685.624 805.048 683.068 802.384 683.068 799.18C683.068 795.94 685.624 793.276 688.936 793.276C692.212 793.276 694.732 795.94 694.732 799.18C694.732 802.384 692.212 805.048 688.936 805.048ZM705.841 808V797.632C705.841 795.04 707.281 793.42 709.657 793.42C710.629 793.42 711.637 793.672 712.501 794.176V790.648C711.601 790.216 710.449 790 709.333 790C704.725 790 702.277 793.204 702.277 797.488V808H705.841ZM718.497 808V797.632C718.497 795.04 719.937 793.42 722.313 793.42C723.285 793.42 724.293 793.672 725.157 794.176V790.648C724.257 790.216 723.105 790 721.989 790C717.381 790 714.933 793.204 714.933 797.488V808H718.497ZM729.722 786.868C731.018 786.868 732.026 785.824 732.026 784.528C732.026 783.232 731.018 782.152 729.722 782.152C728.426 782.152 727.382 783.232 727.382 784.528C727.382 785.824 728.426 786.868 729.722 786.868ZM727.958 790.36V808H731.522V790.36H727.958ZM745.571 808.396C749.027 808.396 751.871 806.776 753.419 803.752L750.683 802.348C749.639 804.292 747.695 805.228 745.535 805.228C742.367 805.228 740.063 803.104 739.667 800.08H753.779V798.64C753.779 793.708 750.467 789.856 745.139 789.856C739.847 789.856 736.211 793.996 736.211 799.072C736.211 804.508 740.207 808.396 745.571 808.396ZM739.811 797.776C740.171 795.148 742.115 793.06 745.103 793.06C748.019 793.06 750.071 794.968 750.215 797.776H739.811ZM766.315 808.432C771.643 808.432 775.711 804.436 775.711 799.216V782.26H772.147L772.111 792.556C770.671 790.972 768.511 789.928 766.135 789.928C760.807 789.928 756.919 793.852 756.919 799.216C756.919 804.292 760.951 808.432 766.315 808.432ZM766.315 805.084C763.039 805.084 760.483 802.42 760.483 799.18C760.483 795.976 763.039 793.312 766.315 793.312C769.627 793.312 772.147 795.976 772.147 799.18C772.147 802.42 769.627 805.084 766.315 805.084ZM556.103 858.432C558.983 858.432 561.323 857.064 562.655 854.904V858H566.039V849.144C566.039 843.888 561.971 839.928 556.643 839.928C551.279 839.928 547.247 844.104 547.247 849.144C547.247 854.256 550.991 858.432 556.103 858.432ZM556.643 855.048C553.367 855.048 550.811 852.384 550.811 849.18C550.811 845.94 553.367 843.276 556.643 843.276C559.955 843.276 562.475 845.94 562.475 849.18C562.475 852.384 559.955 855.048 556.643 855.048ZM580.54 858.432C585.868 858.432 589.9 854.292 589.9 849.216C589.9 843.852 586.048 839.928 580.684 839.928C578.308 839.928 576.148 840.972 574.708 842.556V832.26H571.144V849.216C571.144 854.436 575.212 858.432 580.54 858.432ZM580.54 855.084C577.228 855.084 574.708 852.42 574.708 849.18C574.708 845.976 577.228 843.312 580.54 843.312C583.816 843.312 586.336 845.976 586.336 849.18C586.336 852.42 583.816 855.084 580.54 855.084ZM602.241 858.432C607.533 858.432 611.601 854.256 611.601 849.144C611.601 844.104 607.569 839.928 602.241 839.928C596.949 839.928 592.809 844.068 592.809 849.144C592.809 854.256 596.913 858.432 602.241 858.432ZM602.241 855.048C598.929 855.048 596.373 852.384 596.373 849.18C596.373 845.94 598.929 843.276 602.241 843.276C605.517 843.276 608.037 845.94 608.037 849.18C608.037 852.384 605.517 855.048 602.241 855.048ZM624.005 854.976C620.765 854.976 619.001 852.132 619.001 848.892V840.36H615.437V849.252C615.437 854.364 618.533 858.432 624.005 858.432C629.549 858.432 632.645 854.4 632.645 849.288V840.36H629.081V848.856C629.081 852.132 627.281 854.976 624.005 854.976ZM645.652 858.468C646.948 858.468 648.352 858.072 649.252 857.46V854.184C648.388 854.796 647.128 855.228 645.976 855.228C643.852 855.228 642.484 853.86 642.484 851.556V843.456H649.252V840.36H642.484V835.788H638.92V840.36H635.428V843.456H638.92V851.664C638.92 855.696 641.26 858.468 645.652 858.468ZM672.125 858.468C673.421 858.468 674.825 858.072 675.725 857.46V854.184C674.861 854.796 673.601 855.228 672.449 855.228C670.325 855.228 668.957 853.86 668.957 851.556V843.456H675.725V840.36H668.957V835.788H665.393V840.36H661.901V843.456H665.393V851.664C665.393 855.696 667.733 858.468 672.125 858.468ZM684.588 858V849.252C684.588 845.832 686.784 843.312 689.916 843.312C693.264 843.312 694.992 846.012 694.992 849.144V858H698.556V848.784C698.556 843.384 695.64 839.928 690.456 839.928C688.08 839.928 685.956 840.864 684.588 842.34V832.26H681.024V858H684.588ZM711.892 858.396C715.348 858.396 718.192 856.776 719.74 853.752L717.004 852.348C715.96 854.292 714.016 855.228 711.856 855.228C708.688 855.228 706.384 853.104 705.988 850.08H720.1V848.64C720.1 843.708 716.788 839.856 711.46 839.856C706.168 839.856 702.532 843.996 702.532 849.072C702.532 854.508 706.528 858.396 711.892 858.396ZM706.132 847.776C706.492 845.148 708.436 843.06 711.424 843.06C714.34 843.06 716.392 844.968 716.536 847.776H706.132ZM726.839 836.868C728.135 836.868 729.143 835.824 729.143 834.528C729.143 833.232 728.135 832.152 726.839 832.152C725.543 832.152 724.499 833.232 724.499 834.528C724.499 835.824 725.543 836.868 726.839 836.868ZM725.075 840.36V858H728.639V840.36H725.075ZM738.009 858V847.632C738.009 845.04 739.449 843.42 741.825 843.42C742.797 843.42 743.805 843.672 744.669 844.176V840.648C743.769 840.216 742.617 840 741.501 840C736.893 840 734.445 843.204 734.445 847.488V858H738.009ZM531.677 908.396C534.917 908.396 537.905 906.956 539.525 903.752L536.573 902.132C535.529 904.04 533.765 905.048 531.677 905.048C528.581 905.048 526.025 902.384 526.025 899.144C526.025 895.94 528.581 893.312 531.677 893.312C533.765 893.312 535.529 894.32 536.573 896.228L539.525 894.572C537.905 891.404 534.917 889.928 531.677 889.928C526.601 889.892 522.461 894.068 522.461 899.144C522.461 904.256 526.601 908.468 531.677 908.396ZM547.444 908V899.252C547.444 895.832 549.64 893.312 552.772 893.312C556.12 893.312 557.848 896.012 557.848 899.144V908H561.412V898.784C561.412 893.384 558.496 889.928 553.312 889.928C550.936 889.928 548.812 890.864 547.444 892.34V882.26H543.88V908H547.444ZM568.987 886.868C570.283 886.868 571.291 885.824 571.291 884.528C571.291 883.232 570.283 882.152 568.987 882.152C567.691 882.152 566.647 883.232 566.647 884.528C566.647 885.824 567.691 886.868 568.987 886.868ZM567.223 890.36V908H570.787V890.36H567.223ZM577.137 882.26V908H580.701V882.26H577.137ZM594.787 908.432C600.115 908.432 604.183 904.436 604.183 899.216V882.26H600.619L600.583 892.556C599.143 890.972 596.983 889.928 594.607 889.928C589.279 889.928 585.391 893.852 585.391 899.216C585.391 904.292 589.423 908.432 594.787 908.432ZM594.787 905.084C591.511 905.084 588.955 902.42 588.955 899.18C588.955 895.976 591.511 893.312 594.787 893.312C598.099 893.312 600.619 895.976 600.619 899.18C600.619 902.42 598.099 905.084 594.787 905.084ZM611.7 893.168L614.184 886.364C614.328 886.04 614.436 885.68 614.436 885.284C614.436 884.024 613.392 882.98 612.132 882.98C610.836 882.98 609.756 884.024 609.756 885.284C609.756 886.04 610.116 886.688 610.656 887.12L609.36 893.168H611.7ZM626.206 908.396C629.95 908.396 633.19 906.272 633.19 902.924C633.19 896.264 623.074 898.892 623.074 895.292C623.074 893.888 624.514 893.024 626.17 893.024C627.79 893.024 629.23 893.564 629.986 895.112L632.722 893.564C631.606 891.512 629.374 890 626.098 890C622.246 890 619.51 892.268 619.51 895.364C619.51 902.096 629.626 899.288 629.626 902.996C629.626 904.544 628.078 905.372 626.062 905.372C624.118 905.372 622.678 904.724 621.778 902.96L619.042 904.472C620.41 907.1 622.93 908.396 626.206 908.396ZM654.085 908.396C657.829 908.396 661.069 906.272 661.069 902.924C661.069 896.264 650.953 898.892 650.953 895.292C650.953 893.888 652.393 893.024 654.049 893.024C655.669 893.024 657.109 893.564 657.865 895.112L660.601 893.564C659.485 891.512 657.253 890 653.977 890C650.125 890 647.389 892.268 647.389 895.364C647.389 902.096 657.505 899.288 657.505 902.996C657.505 904.544 655.957 905.372 653.941 905.372C651.997 905.372 650.557 904.724 649.657 902.96L646.921 904.472C648.289 907.1 650.809 908.396 654.085 908.396ZM673.103 908.432C675.983 908.432 678.323 907.064 679.655 904.904V908H683.039V899.144C683.039 893.888 678.971 889.928 673.643 889.928C668.279 889.928 664.247 894.104 664.247 899.144C664.247 904.256 667.991 908.432 673.103 908.432ZM673.643 905.048C670.367 905.048 667.811 902.384 667.811 899.18C667.811 895.94 670.367 893.276 673.643 893.276C676.955 893.276 679.475 895.94 679.475 899.18C679.475 902.384 676.955 905.048 673.643 905.048ZM693.58 908V893.456H699.772V890.36H693.58V888.524C693.58 886.184 694.912 885.212 697.108 885.212C698.116 885.212 699.16 885.5 699.988 886.004V882.62C699.088 882.188 697.972 881.972 696.784 881.972C692.356 881.972 690.016 884.78 690.016 888.524V890.36H686.668V893.456H690.016V908H693.58ZM710.767 908.396C714.223 908.396 717.067 906.776 718.615 903.752L715.879 902.348C714.835 904.292 712.891 905.228 710.731 905.228C707.563 905.228 705.259 903.104 704.863 900.08H718.975V898.64C718.975 893.708 715.663 889.856 710.335 889.856C705.043 889.856 701.407 893.996 701.407 899.072C701.407 904.508 705.403 908.396 710.767 908.396ZM705.007 897.776C705.367 895.148 707.311 893.06 710.299 893.06C713.215 893.06 715.267 894.968 715.411 897.776H705.007ZM731.258 908.468C732.554 908.468 733.958 908.072 734.858 907.46V904.184C733.994 904.796 732.734 905.228 731.582 905.228C729.458 905.228 728.09 903.86 728.09 901.556V893.456H734.858V890.36H728.09V885.788H724.526V890.36H721.034V893.456H724.526V901.664C724.526 905.696 726.866 908.468 731.258 908.468ZM747.501 916.568C753.225 916.568 756.681 912.5 756.681 906.596V890.36H753.081V899.072C753.081 902.312 751.065 904.904 747.969 904.904C744.765 904.904 743.037 902.636 743.037 899.324V890.36H739.509V899.504C739.509 904.688 742.137 908.252 747.537 908.252C750.201 908.252 752.073 907.064 753.117 905.084V906.632C753.117 910.448 751.173 913.256 747.429 913.256C745.017 913.256 743.037 912.14 742.029 910.232L739.077 911.852C740.661 914.984 743.757 916.568 747.501 916.568Z" fill="black"/>
</svg>
