<svg width="409" height="161" viewBox="0 0 409 161" fill="none" xmlns="http://www.w3.org/2000/svg">
<g clip-path="url(#clip0_56_267)">
<path d="M12.802 40.1081H62.0219V45.5648H12.802V40.1081ZM12.802 53.2968V58.4505H62.0219V52.9935L12.802 53.2968ZM12.802 66.6365V71.7903H62.0219V66.3333L12.802 66.6365ZM69.3053 52.9935V25.1016H50.9857V6.22958H5.29746V98.5431H69.3053H74.8238V104H0V1H56.5033L56.7245 21.236H67.5395H74.8237V52.9934H69.3053V52.9935ZM56.5834 8.28056L67.5396 18.5077V21.2362H74.8238V17.8257L56.5033 1.00014L56.5834 8.28056ZM58.4904 77.8517V88.3108H69.3053L58.4904 77.8517ZM62.0219 74.2144L87.6259 47.8386L98 58.4505L72.6167 84.9007L62.0219 74.2144ZM69.3053 92.6314H74.8238V98.5431H69.3053V92.6314Z" fill="white"/>
<path d="M11.048 136V126.528C11.048 125.568 10.504 125.024 9.688 125.024C9.208 125.024 8.648 125.232 8.136 125.504L5.16 127.072L6.232 129.296L8.664 128C8.68 127.984 8.696 127.968 8.712 127.968V136H11.048ZM22.1304 136.208C24.4184 136.208 26.2424 134.8 26.2424 132.864C26.2424 130.416 24.1304 129.84 22.5304 129.568C21.3624 129.36 20.4664 129.136 20.4664 128.272C20.4664 127.616 21.0744 127.2 21.9544 127.2C23.0424 127.2 23.7464 127.68 24.0984 128.368L26.0504 127.392C25.3624 125.856 23.8264 125.04 22.0504 125.04C19.8264 125.04 18.1304 126.48 18.1304 128.368C18.1304 130.8 20.3224 131.376 21.9384 131.648C23.0584 131.84 23.9064 131.984 23.9064 132.88C23.9064 133.648 23.1384 134.064 22.1304 134.064C21.0104 134.064 20.2584 133.664 19.9064 132.88L17.9544 133.856C18.6424 135.392 20.1944 136.208 22.1304 136.208ZM31.5984 134.016C30.4304 134.016 29.8544 132.976 29.8544 131.76V128.08H27.5824V132.016C27.5824 134.336 28.9584 136.208 31.5984 136.208C34.2544 136.208 35.6304 134.336 35.6304 132.016V128.08H33.3584V131.744C33.3584 132.976 32.7664 134.016 31.5984 134.016ZM39.7164 136V131.536C39.7164 130.592 40.2604 130.016 41.1564 130.016C41.5724 130.016 42.0364 130.128 42.4204 130.352V128.144C42.0204 127.968 41.4604 127.872 40.9484 127.872C38.5964 127.872 37.4444 129.424 37.4444 131.456V136H39.7164ZM45.5273 134.688C45.8953 135.712 46.6313 136.224 47.5913 136.224C48.5673 136.224 49.2553 135.712 49.6393 134.688L52.0873 128.08H49.6713L47.6073 133.984L45.5273 128.08H43.1113L45.5273 134.688ZM47.5913 134.048H47.6073C47.6073 134.048 47.6073 134.048 47.5913 134.048ZM56.9113 136.208C58.5913 136.208 59.9033 135.392 60.5913 133.968L58.8473 133.088C58.4793 133.824 57.7593 134.24 56.8953 134.24C55.7593 134.24 54.9433 133.536 54.7833 132.48H60.6713V131.808C60.6713 129.648 59.2153 127.792 56.7033 127.792C54.2553 127.792 52.5913 129.68 52.5913 131.968C52.5913 134.496 54.4473 136.208 56.9113 136.208ZM54.8793 131.216C55.0393 130.416 55.6953 129.776 56.6873 129.776C57.6473 129.776 58.3193 130.4 58.4153 131.216H54.8793ZM66.159 139.872C68.767 139.872 70.543 138.064 70.543 135.296V128.08H68.239V131.968C68.239 133.104 67.471 133.952 66.447 133.952C65.327 133.952 64.703 133.168 64.703 132.016V128.08H62.463V132.096C62.463 134.448 63.583 136.096 66.159 136.096C67.135 136.096 67.839 135.744 68.271 135.104V135.328C68.271 136.8 67.487 137.792 66.127 137.792C65.103 137.792 64.399 137.264 64.047 136.576L62.175 137.6C62.895 139.072 64.271 139.872 66.159 139.872Z" fill="white"/>
<path d="M186.888 131V128.84H182.408L185.064 126.504C186.056 125.64 186.6 124.664 186.6 123.304C186.6 121.512 185.112 120.024 182.968 120.024C181.064 120.024 179.624 121.16 178.936 122.68L180.728 123.688C181.112 122.856 181.864 122.216 182.776 122.216C183.672 122.216 184.264 122.808 184.264 123.512C184.264 124.28 183.832 124.792 183.032 125.512L180.136 128.04C179.608 128.488 179.352 128.984 179.352 129.592C179.352 130.36 179.912 131 181.032 131H186.888ZM197.921 131.176C201.121 131.176 202.609 129.32 202.609 126.216V120.232H200.273V126.168C200.273 128.04 199.505 128.952 197.921 128.952C196.337 128.952 195.569 128.04 195.569 126.168V120.232H193.233V126.216C193.233 129.32 194.705 131.176 197.921 131.176ZM207.848 131.224C209.656 131.224 211.208 130.2 211.208 128.6C211.208 125.624 206.856 126.648 206.856 125.368C206.856 124.952 207.272 124.68 207.832 124.68C208.472 124.68 209.048 124.952 209.304 125.528L210.984 124.584C210.504 123.672 209.48 122.872 207.784 122.872C205.832 122.872 204.584 123.992 204.584 125.416C204.584 128.472 208.936 127.368 208.936 128.648C208.936 129.112 208.472 129.4 207.736 129.4C206.936 129.4 206.408 129.128 206.072 128.488L204.392 129.432C205.048 130.616 206.2 131.224 207.848 131.224ZM216.695 131.208C218.375 131.208 219.687 130.392 220.375 128.968L218.631 128.088C218.263 128.824 217.543 129.24 216.679 129.24C215.543 129.24 214.727 128.536 214.567 127.48H220.455V126.808C220.455 124.648 218.999 122.792 216.487 122.792C214.039 122.792 212.375 124.68 212.375 126.968C212.375 129.496 214.231 131.208 216.695 131.208ZM214.663 126.216C214.823 125.416 215.479 124.776 216.471 124.776C217.431 124.776 218.103 125.4 218.199 126.216H214.663ZM224.391 131V126.536C224.391 125.592 224.935 125.016 225.831 125.016C226.247 125.016 226.711 125.128 227.095 125.352V123.144C226.695 122.968 226.135 122.872 225.623 122.872C223.271 122.872 222.119 124.424 222.119 126.456V131H224.391ZM160.084 153.208C163.268 153.208 165.7 150.808 165.7 147.624C165.7 144.456 163.284 142.04 160.084 142.04C156.9 142.04 154.484 144.456 154.484 147.624C154.484 150.808 156.9 153.208 160.084 153.208ZM160.084 151C158.292 151 156.884 149.528 156.884 147.624C156.884 145.72 158.292 144.248 160.084 144.248C161.892 144.248 163.284 145.72 163.284 147.624C163.284 149.528 161.876 151 160.084 151ZM171.485 153.224C173.933 153.224 175.773 151.336 175.773 149.048C175.773 146.584 174.077 144.856 171.613 144.856C170.813 144.856 170.061 145.144 169.469 145.592V141.432H167.197V149.048C167.197 151.448 169.021 153.224 171.485 153.224ZM171.485 151.08C170.317 151.08 169.469 150.168 169.469 149.048C169.469 147.928 170.317 147 171.485 147C172.653 147 173.501 147.928 173.501 149.048C173.501 150.168 172.653 151.08 171.485 151.08ZM180.395 153.224C182.203 153.224 183.755 152.2 183.755 150.6C183.755 147.624 179.403 148.648 179.403 147.368C179.403 146.952 179.819 146.68 180.379 146.68C181.019 146.68 181.595 146.952 181.851 147.528L183.531 146.584C183.051 145.672 182.027 144.872 180.331 144.872C178.379 144.872 177.131 145.992 177.131 147.416C177.131 150.472 181.483 149.368 181.483 150.648C181.483 151.112 181.019 151.4 180.283 151.4C179.483 151.4 178.955 151.128 178.619 150.488L176.939 151.432C177.595 152.616 178.747 153.224 180.395 153.224ZM189.242 153.208C190.922 153.208 192.234 152.392 192.922 150.968L191.178 150.088C190.81 150.824 190.09 151.24 189.226 151.24C188.09 151.24 187.274 150.536 187.114 149.48H193.002V148.808C193.002 146.648 191.546 144.792 189.034 144.792C186.586 144.792 184.922 146.68 184.922 148.968C184.922 151.496 186.778 153.208 189.242 153.208ZM187.21 148.216C187.37 147.416 188.026 146.776 189.018 146.776C189.978 146.776 190.65 147.4 190.746 148.216H187.21ZM196.938 153V148.536C196.938 147.592 197.482 147.016 198.378 147.016C198.794 147.016 199.258 147.128 199.642 147.352V145.144C199.242 144.968 198.682 144.872 198.17 144.872C195.818 144.872 194.666 146.424 194.666 148.456V153H196.938ZM202.749 151.688C203.117 152.712 203.853 153.224 204.813 153.224C205.789 153.224 206.477 152.712 206.861 151.688L209.309 145.08H206.893L204.829 150.984L202.749 145.08H200.333L202.749 151.688ZM204.813 151.048H204.829C204.829 151.048 204.829 151.048 204.813 151.048ZM213.733 153.208C214.821 153.208 215.685 152.776 216.245 152.072V153H218.405V149.016C218.405 146.632 216.581 144.84 214.101 144.84C211.669 144.84 209.813 146.744 209.813 149.016C209.813 151.32 211.429 153.208 213.733 153.208ZM214.101 151.08C212.933 151.08 212.085 150.152 212.085 149.032C212.085 147.912 212.933 146.984 214.101 146.984C215.269 146.984 216.133 147.912 216.133 149.032C216.133 150.152 215.269 151.08 214.101 151.08ZM224.386 153.224C224.946 153.224 225.634 153.096 226.034 152.84V150.808C225.65 151.048 225.058 151.192 224.594 151.192C223.762 151.192 223.234 150.68 223.234 149.8V147H226.034V145.08H223.234V143.064H220.962V145.08H219.506V147H220.962V149.864C220.962 151.848 222.098 153.224 224.386 153.224ZM229.122 143.896C229.89 143.896 230.514 143.272 230.514 142.488C230.514 141.72 229.89 141.08 229.122 141.08C228.354 141.08 227.714 141.72 227.714 142.488C227.714 143.272 228.354 143.896 229.122 143.896ZM227.986 145.08V153H230.258V145.08H227.986ZM236.366 153.208C238.798 153.208 240.67 151.32 240.67 149.016C240.67 146.744 238.814 144.84 236.366 144.84C233.95 144.84 232.078 146.728 232.078 149.016C232.078 151.32 233.934 153.208 236.366 153.208ZM236.366 151.08C235.198 151.08 234.35 150.152 234.35 149.032C234.35 147.912 235.198 146.984 236.366 146.984C237.534 146.984 238.398 147.912 238.398 149.032C238.398 150.152 237.534 151.08 236.366 151.08ZM246.309 147.064C247.605 147.064 248.197 148.104 248.197 149.32V153H250.469V149.048C250.469 146.728 249.077 144.856 246.309 144.856C243.541 144.856 242.181 146.744 242.181 149.048V153H244.453V149.32C244.453 148.104 245.029 147.064 246.309 147.064Z" fill="white"/>
<path d="M185.167 50.7084C183.454 50.7084 181.811 51.3888 180.6 52.6C179.389 53.8112 178.708 55.4539 178.708 57.1667C178.708 58.8796 179.389 60.5223 180.6 61.7334C181.811 62.9446 183.454 63.6251 185.167 63.6251C186.88 63.6251 188.522 62.9446 189.733 61.7334C190.945 60.5223 191.625 58.8796 191.625 57.1667C191.625 55.4539 190.945 53.8112 189.733 52.6C188.522 51.3888 186.88 50.7084 185.167 50.7084ZM216.167 50.7084C214.454 50.7084 212.811 51.3888 211.6 52.6C210.389 53.8112 209.708 55.4539 209.708 57.1667C209.708 58.8796 210.389 60.5223 211.6 61.7334C212.811 62.9446 214.454 63.6251 216.167 63.6251C217.88 63.6251 219.522 62.9446 220.733 61.7334C221.945 60.5223 222.625 58.8796 222.625 57.1667C222.625 55.4539 221.945 53.8112 220.733 52.6C219.522 51.3888 217.88 50.7084 216.167 50.7084ZM200.667 0.333374C172.121 0.333374 149 23.4542 149 52C149 80.5459 172.121 103.667 200.667 103.667C229.213 103.667 252.333 80.5459 252.333 52C252.333 23.4542 229.213 0.333374 200.667 0.333374ZM200.667 93.3334C177.882 93.3334 159.333 74.785 159.333 52C159.333 50.5017 159.437 49.0292 159.592 47.5825C171.759 42.1834 181.473 32.2117 186.51 19.8375C195.862 33.0125 211.233 41.6667 228.644 41.6667C232.648 41.6667 236.549 41.1759 240.269 40.2975C241.38 44.0175 242 47.9442 242 52C242 74.785 223.452 93.3334 200.667 93.3334Z" fill="white"/>
<path d="M323.85 132.667V123.195C323.85 122.235 323.306 121.691 322.49 121.691C322.01 121.691 321.45 121.899 320.938 122.171L317.962 123.739L319.034 125.963L321.466 124.667C321.482 124.651 321.498 124.635 321.514 124.635V132.667H323.85ZM330.929 132.891C333.681 132.891 335.505 130.427 335.505 127.291C335.505 124.043 333.681 121.691 330.929 121.691C328.193 121.691 326.353 124.043 326.353 127.291C326.353 130.427 328.193 132.891 330.929 132.891ZM330.929 130.507C329.729 130.507 328.753 129.067 328.753 127.291C328.753 125.403 329.745 124.075 330.929 124.075C332.145 124.075 333.105 125.403 333.105 127.291C333.105 129.067 332.129 130.507 330.929 130.507ZM346.72 132.843C349.92 132.843 351.408 130.987 351.408 127.883V121.899H349.072V127.835C349.072 129.707 348.304 130.619 346.72 130.619C345.136 130.619 344.368 129.707 344.368 127.835V121.899H342.032V127.883C342.032 130.987 343.504 132.843 346.72 132.843ZM356.647 132.891C358.455 132.891 360.007 131.867 360.007 130.267C360.007 127.291 355.655 128.315 355.655 127.035C355.655 126.619 356.071 126.347 356.631 126.347C357.271 126.347 357.847 126.619 358.103 127.195L359.783 126.251C359.303 125.339 358.279 124.539 356.583 124.539C354.631 124.539 353.383 125.659 353.383 127.083C353.383 130.139 357.735 129.035 357.735 130.315C357.735 130.779 357.271 131.067 356.535 131.067C355.735 131.067 355.207 130.795 354.871 130.155L353.191 131.099C353.847 132.283 354.999 132.891 356.647 132.891ZM365.494 132.875C367.174 132.875 368.486 132.059 369.174 130.635L367.43 129.755C367.062 130.491 366.342 130.907 365.478 130.907C364.342 130.907 363.526 130.203 363.366 129.147H369.254V128.475C369.254 126.315 367.798 124.459 365.286 124.459C362.838 124.459 361.174 126.347 361.174 128.635C361.174 131.163 363.03 132.875 365.494 132.875ZM363.462 127.883C363.622 127.083 364.278 126.443 365.27 126.443C366.23 126.443 366.902 127.067 366.998 127.883H363.462ZM373.19 132.667V128.203C373.19 127.259 373.734 126.683 374.63 126.683C375.046 126.683 375.51 126.795 375.894 127.019V124.811C375.494 124.635 374.934 124.539 374.422 124.539C372.07 124.539 370.918 126.091 370.918 128.123V132.667H373.19ZM306.445 143.899V154.667H308.781V143.899H306.445ZM315.296 148.731C316.592 148.731 317.184 149.771 317.184 150.987V154.667H319.456V150.715C319.456 148.395 318.064 146.523 315.296 146.523C312.528 146.523 311.168 148.411 311.168 150.715V154.667H313.44V150.987C313.44 149.771 314.016 148.731 315.296 148.731ZM325.436 154.891C325.996 154.891 326.684 154.763 327.084 154.507V152.475C326.7 152.715 326.108 152.859 325.644 152.859C324.812 152.859 324.284 152.347 324.284 151.467V148.667H327.084V146.747H324.284V144.731H322.012V146.747H320.556V148.667H322.012V151.531C322.012 153.515 323.148 154.891 325.436 154.891ZM332.557 154.875C334.237 154.875 335.549 154.059 336.237 152.635L334.493 151.755C334.125 152.491 333.405 152.907 332.541 152.907C331.405 152.907 330.589 152.203 330.429 151.147H336.317V150.475C336.317 148.315 334.861 146.459 332.349 146.459C329.901 146.459 328.237 148.347 328.237 150.635C328.237 153.163 330.093 154.875 332.557 154.875ZM330.525 149.883C330.685 149.083 331.341 148.443 332.333 148.443C333.293 148.443 333.965 149.067 334.061 149.883H330.525ZM340.253 154.667V150.203C340.253 149.259 340.797 148.683 341.693 148.683C342.109 148.683 342.573 148.795 342.957 149.019V146.811C342.557 146.635 341.997 146.539 341.485 146.539C339.133 146.539 337.981 148.091 337.981 150.123V154.667H340.253ZM346.064 153.355C346.432 154.379 347.168 154.891 348.128 154.891C349.104 154.891 349.792 154.379 350.176 153.355L352.624 146.747H350.208L348.144 152.651L346.064 146.747H343.648L346.064 153.355ZM348.128 152.715H348.144C348.144 152.715 348.144 152.715 348.128 152.715ZM355.124 145.563C355.892 145.563 356.516 144.939 356.516 144.155C356.516 143.387 355.892 142.747 355.124 142.747C354.356 142.747 353.716 143.387 353.716 144.155C353.716 144.939 354.356 145.563 355.124 145.563ZM353.988 146.747V154.667H356.26V146.747H353.988ZM362.401 154.875C364.081 154.875 365.393 154.059 366.081 152.635L364.337 151.755C363.969 152.491 363.249 152.907 362.385 152.907C361.249 152.907 360.433 152.203 360.273 151.147H366.161V150.475C366.161 148.315 364.705 146.459 362.193 146.459C359.745 146.459 358.081 148.347 358.081 150.635C358.081 153.163 359.937 154.875 362.401 154.875ZM360.369 149.883C360.529 149.083 361.185 148.443 362.177 148.443C363.137 148.443 363.809 149.067 363.905 149.883H360.369ZM370.579 154.891C371.507 154.891 372.211 154.331 372.483 153.211L373.667 148.491C373.667 148.491 373.651 148.475 373.683 148.475C373.731 148.475 373.715 148.491 373.715 148.491L374.899 153.211C375.187 154.331 375.875 154.891 376.803 154.891C377.667 154.891 378.579 154.363 378.835 153.211L380.291 146.747H378.195L376.867 152.779C376.867 152.811 376.867 152.827 376.819 152.827C376.771 152.827 376.771 152.811 376.771 152.795L375.603 148.171C375.331 147.067 374.691 146.507 373.699 146.507C372.723 146.507 372.067 147.067 371.763 148.203L370.595 152.795C370.595 152.795 370.611 152.811 370.563 152.811C370.499 152.811 370.515 152.811 370.515 152.779L369.139 146.747H367.011L368.531 153.211C368.803 154.347 369.699 154.891 370.579 154.891ZM384.507 154.891C386.315 154.891 387.867 153.867 387.867 152.267C387.867 149.291 383.515 150.315 383.515 149.035C383.515 148.619 383.931 148.347 384.491 148.347C385.131 148.347 385.707 148.619 385.963 149.195L387.643 148.251C387.163 147.339 386.139 146.539 384.443 146.539C382.491 146.539 381.243 147.659 381.243 149.083C381.243 152.139 385.595 151.035 385.595 152.315C385.595 152.779 385.131 153.067 384.395 153.067C383.595 153.067 383.067 152.795 382.731 152.155L381.051 153.099C381.707 154.283 382.859 154.891 384.507 154.891Z" fill="white"/>
<path d="M329.126 51.9761C337.666 51.9761 344.595 44.9668 344.595 36.3301C344.595 27.6934 337.666 20.6841 329.126 20.6841C320.586 20.6841 313.657 27.6934 313.657 36.3301C313.673 44.9829 320.586 51.9761 329.126 51.9761ZM329.126 27.1455C334.105 27.1455 338.149 31.2705 338.149 36.3462C338.149 41.4219 334.105 45.5469 329.126 45.5469C324.147 45.5469 320.103 41.4219 320.103 36.3462C320.103 31.2705 324.163 27.1455 329.126 27.1455ZM329.094 57.0034C309.194 57.0034 293 73.4067 293 93.5322C293 103.603 311.047 108.63 329.094 108.63C347.141 108.63 365.188 103.603 365.188 93.5322C365.188 73.3906 348.978 57.0034 329.094 57.0034ZM358.742 93.5161C358.742 93.7578 358.742 94.4023 357.63 95.4658C356.76 96.3037 355.02 97.5605 351.652 98.8013C345.884 100.944 337.666 102.169 329.078 102.169C320.489 102.169 312.271 100.944 306.503 98.8013C303.151 97.5605 301.411 96.3037 300.525 95.4658C299.413 94.4023 299.413 93.7578 299.413 93.5161C299.413 89.4556 300.203 85.5239 301.75 81.8018C303.248 78.2246 305.407 75.002 308.13 72.2305C313.738 66.5586 321.166 63.4326 329.062 63.4326C336.957 63.4326 344.385 66.5586 349.993 72.2305C352.732 75.002 354.875 78.2246 356.374 81.8018C357.953 85.5239 358.742 89.4717 358.742 93.5161Z" fill="white"/>
<path d="M375.468 41.2607C364.994 41.2607 355.084 46.417 348.929 55.0376C347.898 56.4878 348.236 58.5019 349.686 59.5332C351.137 60.5644 353.151 60.2261 354.182 58.7759C359.129 51.8472 367.073 47.7061 375.468 47.7061C389.937 47.7061 401.7 59.6299 401.7 74.293C401.7 79.3042 389.937 83.397 375.468 83.397C373.695 83.397 372.245 84.8472 372.245 86.6196C372.245 88.3921 373.695 89.8423 375.468 89.8423C383.557 89.8423 391.146 88.6821 396.85 86.5552C406.196 83.0747 408.162 77.9668 408.162 74.293C408.162 56.0688 393.499 41.2607 375.468 41.2607ZM375.468 39.4722C382.928 39.4722 389.003 33.3975 389.003 25.937C389.003 18.4766 382.928 12.4019 375.468 12.4019C368.007 12.4019 361.933 18.4766 361.933 25.937C361.933 33.3975 368.007 39.4722 375.468 39.4722ZM375.468 18.8311C379.383 18.8311 382.558 22.0215 382.558 25.9209C382.558 29.8203 379.367 33.0107 375.468 33.0107C371.552 33.0107 368.378 29.8203 368.378 25.9209C368.378 22.0215 371.552 18.8311 375.468 18.8311Z" fill="white"/>
</g>
<defs>
<clipPath id="clip0_56_267">
<rect width="409" height="160.667" fill="white"/>
</clipPath>
</defs>
</svg>
