<svg width="764" height="468" viewBox="0 0 764 468" fill="none" xmlns="http://www.w3.org/2000/svg">
<path d="M442.5 401C389.324 401 338.326 379.876 300.725 342.275C263.124 304.674 242 253.676 242 200.5C242 147.324 263.124 96.3261 300.725 58.7251C338.326 21.124 389.324 -6.34116e-07 442.5 0L442.5 200.5L442.5 401Z" fill="#E3B8A6"/>
<path d="M615.327 300.422C597.858 330.812 572.727 356.09 542.441 373.738C512.154 391.385 477.77 400.783 442.718 400.996L441.5 200.5L615.327 300.422Z" fill="#FF6347"/>
<path d="M441.5 0C476.734 4.20165e-07 511.346 9.28499 541.85 26.9197C572.354 44.5545 597.672 69.9162 615.254 100.45C632.836 130.984 642.061 165.612 642 200.847C641.939 236.081 632.594 270.677 614.906 301.15L441.5 200.5L441.5 0Z" fill="#77C588"/>
<circle cx="441" cy="201" r="138" fill="white"/>
<path d="M390.82 209H397.12C402.01 209 405.04 206.66 405.04 203.12C405.04 200.03 403 198.11 400.24 197.81V197.75C402.49 197.24 403.99 195.41 403.99 193.19C403.99 188.93 400.39 187.76 397.15 187.76H390.82V209ZM392.98 189.62H396.73C399.52 189.62 401.83 190.64 401.83 193.34C401.83 196.16 399.4 197.06 397.33 197.06H392.98V189.62ZM392.98 198.83H397.39C400.84 198.83 402.85 200.21 402.85 203C402.85 205.97 400.12 207.14 397 207.14H392.98V198.83ZM423.422 209C423.332 208.04 423.302 206.66 423.302 205.91V194.96H421.262V202.16C421.262 205.91 419.162 207.65 417.002 207.65C414.062 207.65 413.192 205.67 413.192 202.73V194.96H411.152V203.57C411.152 207.05 412.922 209.36 416.492 209.36C418.472 209.36 420.512 208.22 421.292 206.6H421.352C421.352 207.2 421.412 208.25 421.472 209H423.422ZM441.754 206.63H441.814V209H443.854V186.32H441.814V197.39H441.754C440.554 195.56 438.454 194.6 436.444 194.6C432.064 194.6 429.184 197.84 429.184 201.98C429.184 206.12 432.064 209.36 436.444 209.36C438.454 209.36 440.554 208.4 441.754 206.63ZM431.344 201.98C431.344 198.86 433.264 196.31 436.654 196.31C439.804 196.31 442.054 198.77 442.054 201.98C442.054 205.19 439.804 207.62 436.654 207.62C433.264 207.62 431.344 205.1 431.344 201.98ZM450.085 213.38C451.735 215.12 454.255 216.2 456.835 216.2C463.045 216.2 464.455 211.94 464.455 208.88V194.96H462.415V197.39H462.355C461.245 195.59 459.085 194.6 457.045 194.6C452.665 194.6 449.785 197.87 449.785 201.86C449.785 205.97 452.665 209 457.045 209C459.085 209 461.275 207.98 462.355 206.24H462.415V208.88C462.415 211.91 460.945 214.4 456.925 214.4C454.795 214.4 452.665 213.26 451.555 211.82L450.085 213.38ZM451.945 201.8C451.945 198.86 453.865 196.31 457.255 196.31C460.405 196.31 462.655 198.86 462.655 201.8C462.655 205.04 460.405 207.26 457.255 207.26C453.865 207.26 451.945 204.74 451.945 201.8ZM472.401 200.9C472.581 198.5 474.591 196.31 477.321 196.31C480.231 196.31 481.851 198.26 481.971 200.9H472.401ZM484.041 201.56C484.041 197.72 481.731 194.6 477.321 194.6C473.331 194.6 470.241 197.75 470.241 201.98C470.241 206.21 473.331 209.36 477.501 209.36C479.811 209.36 481.881 208.49 483.531 206.39L482.001 205.19C481.221 206.45 479.601 207.62 477.501 207.62C474.621 207.62 472.431 205.34 472.371 202.52H484.011C484.041 202.16 484.041 201.83 484.041 201.56ZM496.259 194.96H492.299V191H490.259V194.96H487.349V196.67H490.259V205.43C490.259 208.52 492.359 209.18 493.859 209.18C494.789 209.18 495.539 209.03 496.259 208.76L496.169 206.99C495.629 207.26 494.969 207.44 494.399 207.44C493.169 207.44 492.299 206.96 492.299 204.86V196.67H496.259V194.96Z" fill="#5F4E4E"/>
<path d="M16.2245 197.25C14.9995 199.075 13.0495 199.875 11.0245 199.875C6.47451 199.875 3.67451 196.275 3.67451 192.15C3.67451 188.025 6.44951 184.425 11.0245 184.425C13.2745 184.425 15.0495 185.6 15.7995 186.75L17.2995 185.65C16.0745 183.925 13.5995 182.85 10.9995 182.85C5.72451 182.85 1.77451 186.775 1.77451 192.15C1.77451 197.525 5.64951 201.45 10.9995 201.45C14.1745 201.45 16.4495 199.925 17.6245 198.15L16.2245 197.25ZM28.0532 193.825C23.7782 193.825 19.8032 194.15 19.8032 197.75C19.8032 200.35 22.0782 201.3 23.8532 201.3C25.7282 201.3 27.0282 200.65 28.1032 199.1H28.1532C28.1532 199.725 28.2282 200.425 28.3282 201H29.8532C29.7282 200.35 29.6532 199.275 29.6532 198.375V193.25C29.6532 190.4 27.6282 189 25.1032 189C23.1032 189 21.4532 189.725 20.5032 190.675L21.4532 191.8C22.2782 190.975 23.5532 190.425 24.9282 190.425C26.9532 190.425 28.0532 191.425 28.0532 193.45V193.825ZM28.0532 195.15V196.025C28.0532 198.1 26.7032 199.9 24.3032 199.9C22.9782 199.9 21.5532 199.35 21.5532 197.675C21.5532 195.45 24.7782 195.15 27.5532 195.15H28.0532ZM34.4327 189.3C34.5077 190.1 34.5327 191.25 34.5327 191.875V201H36.2327V195C36.2327 191.875 37.9827 190.425 39.7827 190.425C42.2327 190.425 42.9577 192.075 42.9577 194.525V201H44.6577V193.825C44.6577 190.925 43.1827 189 40.2077 189C38.5577 189 36.8577 189.95 36.2077 191.3H36.1577C36.1577 190.8 36.1077 189.925 36.0577 189.3H34.4327ZM51.8091 183.3H50.0341L48.3591 189.175H49.7841L51.8091 183.3ZM60.8761 189.3H57.5761V186H55.8761V189.3H53.4511V190.725H55.8761V198.025C55.8761 200.6 57.6261 201.15 58.8761 201.15C59.6511 201.15 60.2761 201.025 60.8761 200.8L60.8011 199.325C60.3511 199.55 59.8011 199.7 59.3261 199.7C58.3011 199.7 57.5761 199.3 57.5761 197.55V190.725H60.8761V189.3ZM72.6856 192.575H81.2606V191H72.6856V184.9H81.8606V183.3H70.8856V201H82.1606V199.4H72.6856V192.575ZM95.3376 189.3H93.5126L89.6876 199.2H89.6376L85.8376 189.3H83.9376L88.7126 201H90.5876L95.3376 189.3ZM99.4446 194.25C99.5946 192.25 101.27 190.425 103.545 190.425C105.97 190.425 107.32 192.05 107.42 194.25H99.4446ZM109.145 194.8C109.145 191.6 107.22 189 103.545 189C100.22 189 97.6446 191.625 97.6446 195.15C97.6446 198.675 100.22 201.3 103.695 201.3C105.62 201.3 107.345 200.575 108.72 198.825L107.445 197.825C106.795 198.875 105.445 199.85 103.695 199.85C101.295 199.85 99.4696 197.95 99.4196 195.6H109.12C109.145 195.3 109.145 195.025 109.145 194.8ZM113.201 189.3C113.276 190.1 113.301 191.25 113.301 191.875V201H115.001V195C115.001 191.875 116.751 190.425 118.551 190.425C121.001 190.425 121.726 192.075 121.726 194.525V201H123.426V193.825C123.426 190.925 121.951 189 118.976 189C117.326 189 115.626 189.95 114.976 191.3H114.926C114.926 190.8 114.876 189.925 114.826 189.3H113.201ZM136.978 183.3H135.178V201H136.978V183.3ZM143.747 191.3H143.697C143.697 190.8 143.647 189.925 143.597 189.3H141.972C142.047 190.1 142.072 191.25 142.072 191.875V201H143.772V195C143.772 191.875 145.547 190.425 147.172 190.425C149.447 190.425 149.997 191.9 149.997 194.175V201H151.697V194.775C151.697 192.6 152.572 190.425 155.022 190.425C157.222 190.425 158.047 192.075 158.047 194.525V201H159.747V193.825C159.747 190.925 158.272 189 155.297 189C153.422 189 151.997 189.875 151.197 191.475C150.422 189.475 148.872 189 147.597 189C145.922 189 144.422 189.95 143.747 191.3ZM172.017 193.825C167.742 193.825 163.767 194.15 163.767 197.75C163.767 200.35 166.042 201.3 167.817 201.3C169.692 201.3 170.992 200.65 172.067 199.1H172.117C172.117 199.725 172.192 200.425 172.292 201H173.817C173.692 200.35 173.617 199.275 173.617 198.375V193.25C173.617 190.4 171.592 189 169.067 189C167.067 189 165.417 189.725 164.467 190.675L165.417 191.8C166.242 190.975 167.517 190.425 168.892 190.425C170.917 190.425 172.017 191.425 172.017 193.45V193.825ZM172.017 195.15V196.025C172.017 198.1 170.667 199.9 168.267 199.9C166.942 199.9 165.517 199.35 165.517 197.675C165.517 195.45 168.742 195.15 171.517 195.15H172.017ZM177.897 204.65C179.272 206.1 181.372 207 183.522 207C188.697 207 189.872 203.45 189.872 200.9V189.3H188.172V191.325H188.122C187.197 189.825 185.397 189 183.697 189C180.047 189 177.647 191.725 177.647 195.05C177.647 198.475 180.047 201 183.697 201C185.397 201 187.222 200.15 188.122 198.7H188.172V200.9C188.172 203.425 186.947 205.5 183.597 205.5C181.822 205.5 180.047 204.55 179.122 203.35L177.897 204.65ZM179.447 195C179.447 192.55 181.047 190.425 183.872 190.425C186.497 190.425 188.372 192.55 188.372 195C188.372 197.7 186.497 199.55 183.872 199.55C181.047 199.55 179.447 197.45 179.447 195ZM196.517 189.3H194.817V201H196.517V189.3ZM196.867 184.8C196.867 184.1 196.267 183.6 195.667 183.6C195.067 183.6 194.467 184.1 194.467 184.8C194.467 185.5 195.067 186 195.667 186C196.267 186 196.867 185.5 196.867 184.8ZM201.442 189.3C201.517 190.1 201.542 191.25 201.542 191.875V201H203.242V195C203.242 191.875 204.992 190.425 206.792 190.425C209.242 190.425 209.967 192.075 209.967 194.525V201H211.667V193.825C211.667 190.925 210.192 189 207.217 189C205.567 189 203.867 189.95 203.217 191.3H203.167C203.167 190.8 203.117 189.925 203.067 189.3H201.442ZM217.519 194.25C217.669 192.25 219.344 190.425 221.619 190.425C224.044 190.425 225.394 192.05 225.494 194.25H217.519ZM227.219 194.8C227.219 191.6 225.294 189 221.619 189C218.294 189 215.719 191.625 215.719 195.15C215.719 198.675 218.294 201.3 221.769 201.3C223.694 201.3 225.419 200.575 226.794 198.825L225.519 197.825C224.869 198.875 223.519 199.85 221.769 199.85C219.369 199.85 217.544 197.95 217.494 195.6H227.194C227.219 195.3 227.219 195.025 227.219 194.8ZM100.96 223.3H91.9354L91.7604 232.425C92.8854 231.825 94.1604 231.45 95.4354 231.45C97.9604 231.45 99.8354 233.075 99.8354 235.7C99.8354 238.1 98.0854 239.9 95.6854 239.9C94.1354 239.9 92.7354 238.95 92.1104 237.5L90.4854 238.225C91.4604 240.175 93.2354 241.45 95.7854 241.45C99.2854 241.45 101.66 238.95 101.66 235.525C101.66 232.225 99.2354 229.975 95.9104 229.975C95.1104 229.975 94.2104 230.1 93.4604 230.375L93.5854 224.9H100.96V223.3ZM111.337 222.85C106.887 222.85 105.537 227.575 105.537 232.175C105.537 236.775 106.887 241.45 111.337 241.45C115.737 241.45 117.137 236.775 117.137 232.175C117.137 227.575 115.737 222.85 111.337 222.85ZM111.337 224.375C114.437 224.375 115.312 228.65 115.312 232.175C115.312 235.7 114.437 239.9 111.337 239.9C108.187 239.9 107.362 235.7 107.362 232.175C107.362 228.65 108.187 224.375 111.337 224.375ZM128.839 227.375C128.839 224.925 126.914 223 124.439 223C121.964 223 120.039 224.925 120.039 227.375C120.039 229.825 121.964 231.75 124.439 231.75C126.914 231.75 128.839 229.825 128.839 227.375ZM127.339 227.375C127.339 229.025 126.014 230.25 124.439 230.25C122.864 230.25 121.539 229.025 121.539 227.375C121.539 225.725 122.864 224.5 124.439 224.5C126.014 224.5 127.339 225.725 127.339 227.375ZM138.964 236.925C138.964 234.475 137.039 232.55 134.564 232.55C132.089 232.55 130.164 234.475 130.164 236.925C130.164 239.375 132.089 241.3 134.564 241.3C137.039 241.3 138.964 239.375 138.964 236.925ZM137.464 236.925C137.464 238.575 136.139 239.8 134.564 239.8C132.989 239.8 131.664 238.575 131.664 236.925C131.664 235.275 132.989 234.05 134.564 234.05C136.139 234.05 137.464 235.275 137.464 236.925ZM135.764 223.2L134.489 222.525L123.214 241.1L124.514 241.775L135.764 223.2Z" fill="#5F4E4E"/>
<path d="M705.815 30.625H714.065V29.05H705.815V22.9H714.69V21.3H704.015V39H705.815V30.625ZM717.403 29.875V39H719.103V33C719.103 29.875 720.728 28.575 722.528 28.575C722.978 28.575 723.528 28.65 723.728 28.725L723.953 27.125C723.603 27.025 723.253 27 722.828 27C721.178 27 719.728 27.95 719.078 29.3H719.028C719.028 28.8 718.978 27.925 718.928 27.3H717.303C717.378 28.1 717.403 29.25 717.403 29.875ZM727.422 32.25C727.572 30.25 729.247 28.425 731.522 28.425C733.947 28.425 735.297 30.05 735.397 32.25H727.422ZM737.122 32.8C737.122 29.6 735.197 27 731.522 27C728.197 27 725.622 29.625 725.622 33.15C725.622 36.675 728.197 39.3 731.672 39.3C733.597 39.3 735.322 38.575 736.697 36.825L735.422 35.825C734.772 36.875 733.422 37.85 731.672 37.85C729.272 37.85 727.447 35.95 727.397 33.6H737.097C737.122 33.3 737.122 33.025 737.122 32.8ZM742.229 32.25C742.379 30.25 744.054 28.425 746.329 28.425C748.754 28.425 750.104 30.05 750.204 32.25H742.229ZM751.929 32.8C751.929 29.6 750.004 27 746.329 27C743.004 27 740.429 29.625 740.429 33.15C740.429 36.675 743.004 39.3 746.479 39.3C748.404 39.3 750.129 38.575 751.504 36.825L750.229 35.825C749.579 36.875 748.229 37.85 746.479 37.85C744.079 37.85 742.254 35.95 742.204 33.6H751.904C751.929 33.3 751.929 33.025 751.929 32.8ZM696.437 70.5H697.212C699.537 70.5 701.812 71.425 701.812 74.1C701.812 76.475 699.937 77.9 697.912 77.9C696.112 77.9 694.612 76.875 694.012 75.2L692.312 75.825C693.312 78.15 695.337 79.45 697.912 79.45C700.987 79.45 703.612 77.475 703.612 74.1C703.612 71.725 702.062 70.125 700.037 69.7V69.65C701.787 69.175 703.112 67.675 703.112 65.6C703.112 62.525 700.712 60.85 697.937 60.85C695.787 60.85 694.037 61.75 692.937 63.65L694.462 64.45C695.162 63.1 696.362 62.375 697.837 62.375C699.737 62.375 701.337 63.725 701.337 65.7C701.337 68.05 699.487 68.95 697.212 68.95H696.437V70.5ZM711.439 70.5H712.214C714.539 70.5 716.814 71.425 716.814 74.1C716.814 76.475 714.939 77.9 712.914 77.9C711.114 77.9 709.614 76.875 709.014 75.2L707.314 75.825C708.314 78.15 710.339 79.45 712.914 79.45C715.989 79.45 718.614 77.475 718.614 74.1C718.614 71.725 717.064 70.125 715.039 69.7V69.65C716.789 69.175 718.114 67.675 718.114 65.6C718.114 62.525 715.714 60.85 712.939 60.85C710.789 60.85 709.039 61.75 707.939 63.65L709.464 64.45C710.164 63.1 711.364 62.375 712.839 62.375C714.739 62.375 716.339 63.725 716.339 65.7C716.339 68.05 714.489 68.95 712.214 68.95H711.439V70.5ZM725.691 77.8C725.691 77.1 725.141 76.45 724.341 76.45C723.541 76.45 722.991 77.1 722.991 77.8C722.991 78.5 723.541 79.15 724.341 79.15C725.141 79.15 725.691 78.5 725.691 77.8ZM733.435 70.5H734.21C736.535 70.5 738.81 71.425 738.81 74.1C738.81 76.475 736.935 77.9 734.91 77.9C733.11 77.9 731.61 76.875 731.01 75.2L729.31 75.825C730.31 78.15 732.335 79.45 734.91 79.45C737.985 79.45 740.61 77.475 740.61 74.1C740.61 71.725 739.06 70.125 737.035 69.7V69.65C738.785 69.175 740.11 67.675 740.11 65.6C740.11 62.525 737.71 60.85 734.935 60.85C732.785 60.85 731.035 61.75 729.935 63.65L731.46 64.45C732.16 63.1 733.36 62.375 734.835 62.375C736.735 62.375 738.335 63.725 738.335 65.7C738.335 68.05 736.485 68.95 734.21 68.95H733.435V70.5ZM752.837 65.375C752.837 62.925 750.912 61 748.437 61C745.962 61 744.037 62.925 744.037 65.375C744.037 67.825 745.962 69.75 748.437 69.75C750.912 69.75 752.837 67.825 752.837 65.375ZM751.337 65.375C751.337 67.025 750.012 68.25 748.437 68.25C746.862 68.25 745.537 67.025 745.537 65.375C745.537 63.725 746.862 62.5 748.437 62.5C750.012 62.5 751.337 63.725 751.337 65.375ZM762.962 74.925C762.962 72.475 761.037 70.55 758.562 70.55C756.087 70.55 754.162 72.475 754.162 74.925C754.162 77.375 756.087 79.3 758.562 79.3C761.037 79.3 762.962 77.375 762.962 74.925ZM761.462 74.925C761.462 76.575 760.137 77.8 758.562 77.8C756.987 77.8 755.662 76.575 755.662 74.925C755.662 73.275 756.987 72.05 758.562 72.05C760.137 72.05 761.462 73.275 761.462 74.925ZM759.762 61.2L758.487 60.525L747.212 79.1L748.512 79.775L759.762 61.2Z" fill="#5F4E4E"/>
<path d="M615.411 405.575H623.986V404H615.411V397.9H624.586V396.3H613.611V414H624.886V412.4H615.411V405.575ZM626.956 414H629.006L632.581 409.125L636.056 414H638.256L633.606 407.875L637.856 402.3H635.806L632.606 406.75L629.406 402.3H627.231L631.556 407.95L626.956 414ZM643.115 412.025H643.19C644.165 413.475 645.915 414.3 647.59 414.3C651.24 414.3 653.64 411.6 653.64 408.15C653.64 404.7 651.24 402 647.59 402C645.915 402 644.165 402.8 643.19 404.325H643.115V402.3H641.415V420H643.115V412.025ZM651.84 408.15C651.84 410.75 650.24 412.85 647.415 412.85C644.79 412.85 642.915 410.825 642.915 408.15C642.915 405.475 644.79 403.425 647.415 403.425C650.24 403.425 651.84 405.55 651.84 408.15ZM658.734 407.25C658.884 405.25 660.559 403.425 662.834 403.425C665.259 403.425 666.609 405.05 666.709 407.25H658.734ZM668.434 407.8C668.434 404.6 666.509 402 662.834 402C659.509 402 656.934 404.625 656.934 408.15C656.934 411.675 659.509 414.3 662.984 414.3C664.909 414.3 666.634 413.575 668.009 411.825L666.734 410.825C666.084 411.875 664.734 412.85 662.984 412.85C660.584 412.85 658.759 410.95 658.709 408.6H668.409C668.434 408.3 668.434 408.025 668.434 407.8ZM672.491 402.3C672.566 403.1 672.591 404.25 672.591 404.875V414H674.291V408C674.291 404.875 676.041 403.425 677.841 403.425C680.291 403.425 681.016 405.075 681.016 407.525V414H682.716V406.825C682.716 403.925 681.241 402 678.266 402C676.616 402 674.916 402.95 674.266 404.3H674.216C674.216 403.8 674.166 402.925 674.116 402.3H672.491ZM695.142 404.1C694.392 402.775 692.667 402 691.042 402C688.917 402 686.867 403.025 686.867 405.4C686.867 407.625 688.842 408.225 690.217 408.55C692.442 409.075 693.667 409.575 693.667 410.8C693.667 412.325 692.367 412.85 690.917 412.85C689.542 412.85 688.267 412.05 687.667 411.025L686.317 412.025C687.392 413.6 689.167 414.3 690.942 414.3C693.092 414.3 695.342 413.35 695.342 410.675C695.342 408.85 694.042 407.825 691.292 407.25C689.367 406.85 688.492 406.35 688.492 405.25C688.492 403.95 689.742 403.425 690.967 403.425C692.267 403.425 693.342 404.1 693.842 405.075L695.142 404.1ZM700.951 402.3H699.251V414H700.951V402.3ZM701.301 397.8C701.301 397.1 700.701 396.6 700.101 396.6C699.501 396.6 698.901 397.1 698.901 397.8C698.901 398.5 699.501 399 700.101 399C700.701 399 701.301 398.5 701.301 397.8ZM715.526 402.3H713.701L709.876 412.2H709.826L706.026 402.3H704.126L708.901 414H710.776L715.526 402.3ZM719.633 407.25C719.783 405.25 721.458 403.425 723.733 403.425C726.158 403.425 727.508 405.05 727.608 407.25H719.633ZM729.333 407.8C729.333 404.6 727.408 402 723.733 402C720.408 402 717.833 404.625 717.833 408.15C717.833 411.675 720.408 414.3 723.883 414.3C725.808 414.3 727.533 413.575 728.908 411.825L727.633 410.825C726.983 411.875 725.633 412.85 723.883 412.85C721.483 412.85 719.658 410.95 719.608 408.6H729.308C729.333 408.3 729.333 408.025 729.333 407.8ZM636.036 436.3H634.436L629.936 440L631.036 441.25L634.236 438.525V454H636.036V436.3ZM652.088 436.3H650.013L645.188 444.075C644.313 445.5 643.588 447.05 643.588 448.875C643.588 452.175 646.013 454.45 649.338 454.45C652.663 454.45 655.088 452.175 655.088 448.875C655.088 445.65 652.763 443.425 649.688 443.425C648.788 443.425 647.688 443.675 647.163 444.075L647.113 444.025L652.088 436.3ZM645.388 448.875C645.388 446.6 646.913 444.875 649.338 444.875C651.763 444.875 653.288 446.6 653.288 448.875C653.288 451.175 651.663 452.925 649.338 452.925C647.013 452.925 645.388 451.175 645.388 448.875ZM661.69 452.8C661.69 452.1 661.14 451.45 660.34 451.45C659.54 451.45 658.99 452.1 658.99 452.8C658.99 453.5 659.54 454.15 660.34 454.15C661.14 454.15 661.69 453.5 661.69 452.8ZM674.084 436.3H672.009L667.184 444.075C666.309 445.5 665.584 447.05 665.584 448.875C665.584 452.175 668.009 454.45 671.334 454.45C674.659 454.45 677.084 452.175 677.084 448.875C677.084 445.65 674.759 443.425 671.684 443.425C670.784 443.425 669.684 443.675 669.159 444.075L669.109 444.025L674.084 436.3ZM667.384 448.875C667.384 446.6 668.909 444.875 671.334 444.875C673.759 444.875 675.284 446.6 675.284 448.875C675.284 451.175 673.659 452.925 671.334 452.925C669.009 452.925 667.384 451.175 667.384 448.875ZM691.536 436.3H681.036V437.9H689.711L682.386 454H684.411L691.536 437.95V436.3ZM703.838 440.375C703.838 437.925 701.913 436 699.438 436C696.963 436 695.038 437.925 695.038 440.375C695.038 442.825 696.963 444.75 699.438 444.75C701.913 444.75 703.838 442.825 703.838 440.375ZM702.338 440.375C702.338 442.025 701.013 443.25 699.438 443.25C697.863 443.25 696.538 442.025 696.538 440.375C696.538 438.725 697.863 437.5 699.438 437.5C701.013 437.5 702.338 438.725 702.338 440.375ZM713.963 449.925C713.963 447.475 712.038 445.55 709.563 445.55C707.088 445.55 705.163 447.475 705.163 449.925C705.163 452.375 707.088 454.3 709.563 454.3C712.038 454.3 713.963 452.375 713.963 449.925ZM712.463 449.925C712.463 451.575 711.138 452.8 709.563 452.8C707.988 452.8 706.663 451.575 706.663 449.925C706.663 448.275 707.988 447.05 709.563 447.05C711.138 447.05 712.463 448.275 712.463 449.925ZM710.763 436.2L709.488 435.525L698.213 454.1L699.513 454.775L710.763 436.2Z" fill="#5F4E4E"/>
</svg>
