<svg width="898" height="1245" viewBox="0 0 898 1245" fill="none" xmlns="http://www.w3.org/2000/svg">
<rect width="898" height="1245" fill="white"/>
<rect x="49" y="255" width="256" height="186" fill="#E5E5E5"/>
<path d="M135.562 321.65V330H132.749V308.672H140.615C142.949 308.672 144.775 309.268 146.094 310.459C147.422 311.65 148.086 313.228 148.086 315.19C148.086 317.261 147.437 318.857 146.138 319.98C144.849 321.094 142.998 321.65 140.586 321.65H135.562ZM135.562 319.351H140.615C142.119 319.351 143.271 318.999 144.072 318.296C144.873 317.583 145.273 316.558 145.273 315.22C145.273 313.95 144.873 312.935 144.072 312.173C143.271 311.411 142.173 311.016 140.776 310.986H135.562V319.351ZM160.859 330C160.703 329.688 160.576 329.131 160.479 328.33C159.219 329.639 157.715 330.293 155.967 330.293C154.404 330.293 153.12 329.854 152.114 328.975C151.118 328.086 150.62 326.963 150.62 325.605C150.62 323.955 151.245 322.676 152.495 321.768C153.755 320.85 155.522 320.391 157.798 320.391H160.435V319.146C160.435 318.198 160.151 317.446 159.585 316.89C159.019 316.323 158.184 316.04 157.08 316.04C156.113 316.04 155.303 316.284 154.648 316.772C153.994 317.261 153.667 317.852 153.667 318.545H150.942C150.942 317.754 151.221 316.992 151.777 316.26C152.344 315.518 153.105 314.932 154.062 314.502C155.029 314.072 156.089 313.857 157.241 313.857C159.067 313.857 160.498 314.316 161.533 315.234C162.568 316.143 163.105 317.397 163.145 318.999V326.294C163.145 327.749 163.33 328.906 163.701 329.766V330H160.859ZM156.362 327.935C157.212 327.935 158.018 327.715 158.779 327.275C159.541 326.836 160.093 326.265 160.435 325.562V322.31H158.311C154.99 322.31 153.33 323.281 153.33 325.225C153.33 326.074 153.613 326.738 154.18 327.217C154.746 327.695 155.474 327.935 156.362 327.935ZM171.069 310.312V314.15H174.028V316.245H171.069V326.074C171.069 326.709 171.201 327.188 171.465 327.51C171.729 327.822 172.178 327.979 172.812 327.979C173.125 327.979 173.555 327.92 174.102 327.803V330C173.389 330.195 172.695 330.293 172.021 330.293C170.811 330.293 169.897 329.927 169.282 329.194C168.667 328.462 168.359 327.422 168.359 326.074V316.245H165.474V314.15H168.359V310.312H171.069ZM180.151 330H177.441V314.15H180.151V330ZM177.222 309.946C177.222 309.507 177.354 309.136 177.617 308.833C177.891 308.53 178.291 308.379 178.818 308.379C179.346 308.379 179.746 308.53 180.02 308.833C180.293 309.136 180.43 309.507 180.43 309.946C180.43 310.386 180.293 310.752 180.02 311.045C179.746 311.338 179.346 311.484 178.818 311.484C178.291 311.484 177.891 311.338 177.617 311.045C177.354 310.752 177.222 310.386 177.222 309.946ZM191.079 330.293C188.931 330.293 187.183 329.59 185.835 328.184C184.487 326.768 183.813 324.878 183.813 322.515V322.017C183.813 320.444 184.111 319.043 184.707 317.812C185.312 316.572 186.152 315.605 187.227 314.912C188.311 314.209 189.482 313.857 190.742 313.857C192.803 313.857 194.404 314.536 195.547 315.894C196.689 317.251 197.261 319.194 197.261 321.724V322.852H186.523C186.562 324.414 187.017 325.679 187.886 326.646C188.765 327.603 189.878 328.081 191.226 328.081C192.183 328.081 192.993 327.886 193.657 327.495C194.321 327.104 194.902 326.587 195.4 325.942L197.056 327.231C195.728 329.272 193.735 330.293 191.079 330.293ZM190.742 316.084C189.648 316.084 188.73 316.484 187.988 317.285C187.246 318.076 186.787 319.189 186.611 320.625H194.551V320.42C194.473 319.043 194.102 317.979 193.438 317.227C192.773 316.465 191.875 316.084 190.742 316.084ZM202.974 314.15L203.062 316.143C204.272 314.619 205.854 313.857 207.808 313.857C211.157 313.857 212.847 315.747 212.876 319.526V330H210.166V319.512C210.156 318.369 209.893 317.524 209.375 316.978C208.867 316.431 208.071 316.157 206.987 316.157C206.108 316.157 205.337 316.392 204.673 316.86C204.009 317.329 203.491 317.944 203.12 318.706V330H200.41V314.15H202.974ZM220.64 310.312V314.15H223.599V316.245H220.64V326.074C220.64 326.709 220.771 327.188 221.035 327.51C221.299 327.822 221.748 327.979 222.383 327.979C222.695 327.979 223.125 327.92 223.672 327.803V330C222.959 330.195 222.266 330.293 221.592 330.293C220.381 330.293 219.468 329.927 218.853 329.194C218.237 328.462 217.93 327.422 217.93 326.074V316.245H215.044V314.15H217.93V310.312H220.64ZM134.082 365V343.672H140.103C141.958 343.672 143.599 344.082 145.024 344.902C146.45 345.723 147.549 346.89 148.32 348.403C149.102 349.917 149.497 351.655 149.507 353.618V354.98C149.507 356.992 149.116 358.755 148.335 360.269C147.563 361.782 146.455 362.944 145.01 363.755C143.574 364.565 141.899 364.98 139.985 365H134.082ZM136.895 345.986V362.7H139.854C142.021 362.7 143.706 362.026 144.907 360.679C146.118 359.331 146.724 357.412 146.724 354.922V353.677C146.724 351.255 146.152 349.375 145.01 348.037C143.877 346.689 142.266 346.006 140.176 345.986H136.895ZM159.922 365.293C157.773 365.293 156.025 364.59 154.678 363.184C153.33 361.768 152.656 359.878 152.656 357.515V357.017C152.656 355.444 152.954 354.043 153.55 352.812C154.155 351.572 154.995 350.605 156.069 349.912C157.153 349.209 158.325 348.857 159.585 348.857C161.646 348.857 163.247 349.536 164.39 350.894C165.532 352.251 166.104 354.194 166.104 356.724V357.852H155.366C155.405 359.414 155.859 360.679 156.729 361.646C157.607 362.603 158.721 363.081 160.068 363.081C161.025 363.081 161.836 362.886 162.5 362.495C163.164 362.104 163.745 361.587 164.243 360.942L165.898 362.231C164.57 364.272 162.578 365.293 159.922 365.293ZM159.585 351.084C158.491 351.084 157.573 351.484 156.831 352.285C156.089 353.076 155.63 354.189 155.454 355.625H163.394V355.42C163.315 354.043 162.944 352.979 162.28 352.227C161.616 351.465 160.718 351.084 159.585 351.084ZM172.93 345.312V349.15H175.889V351.245H172.93V361.074C172.93 361.709 173.062 362.188 173.325 362.51C173.589 362.822 174.038 362.979 174.673 362.979C174.985 362.979 175.415 362.92 175.962 362.803V365C175.249 365.195 174.556 365.293 173.882 365.293C172.671 365.293 171.758 364.927 171.143 364.194C170.527 363.462 170.22 362.422 170.22 361.074V351.245H167.334V349.15H170.22V345.312H172.93ZM188.853 365C188.696 364.688 188.569 364.131 188.472 363.33C187.212 364.639 185.708 365.293 183.96 365.293C182.397 365.293 181.113 364.854 180.107 363.975C179.111 363.086 178.613 361.963 178.613 360.605C178.613 358.955 179.238 357.676 180.488 356.768C181.748 355.85 183.516 355.391 185.791 355.391H188.428V354.146C188.428 353.198 188.145 352.446 187.578 351.89C187.012 351.323 186.177 351.04 185.073 351.04C184.106 351.04 183.296 351.284 182.642 351.772C181.987 352.261 181.66 352.852 181.66 353.545H178.936C178.936 352.754 179.214 351.992 179.771 351.26C180.337 350.518 181.099 349.932 182.056 349.502C183.022 349.072 184.082 348.857 185.234 348.857C187.061 348.857 188.491 349.316 189.526 350.234C190.562 351.143 191.099 352.397 191.138 353.999V361.294C191.138 362.749 191.323 363.906 191.694 364.766V365H188.853ZM184.355 362.935C185.205 362.935 186.011 362.715 186.772 362.275C187.534 361.836 188.086 361.265 188.428 360.562V357.31H186.304C182.983 357.31 181.323 358.281 181.323 360.225C181.323 361.074 181.606 361.738 182.173 362.217C182.739 362.695 183.467 362.935 184.355 362.935ZM198.33 365H195.62V349.15H198.33V365ZM195.4 344.946C195.4 344.507 195.532 344.136 195.796 343.833C196.069 343.53 196.47 343.379 196.997 343.379C197.524 343.379 197.925 343.53 198.198 343.833C198.472 344.136 198.608 344.507 198.608 344.946C198.608 345.386 198.472 345.752 198.198 346.045C197.925 346.338 197.524 346.484 196.997 346.484C196.47 346.484 196.069 346.338 195.796 346.045C195.532 345.752 195.4 345.386 195.4 344.946ZM205.625 365H202.915V342.5H205.625V365ZM219.204 360.796C219.204 360.063 218.926 359.497 218.369 359.097C217.822 358.687 216.86 358.335 215.483 358.042C214.116 357.749 213.027 357.397 212.217 356.987C211.416 356.577 210.82 356.089 210.43 355.522C210.049 354.956 209.858 354.282 209.858 353.501C209.858 352.202 210.405 351.104 211.499 350.205C212.603 349.307 214.009 348.857 215.718 348.857C217.515 348.857 218.97 349.321 220.083 350.249C221.206 351.177 221.768 352.363 221.768 353.809H219.043C219.043 353.066 218.726 352.427 218.091 351.89C217.466 351.353 216.675 351.084 215.718 351.084C214.731 351.084 213.96 351.299 213.403 351.729C212.847 352.158 212.568 352.72 212.568 353.413C212.568 354.067 212.827 354.561 213.345 354.893C213.862 355.225 214.795 355.542 216.143 355.845C217.5 356.147 218.599 356.509 219.438 356.929C220.278 357.349 220.898 357.856 221.299 358.452C221.709 359.038 221.914 359.756 221.914 360.605C221.914 362.021 221.348 363.159 220.215 364.019C219.082 364.868 217.612 365.293 215.806 365.293C214.536 365.293 213.413 365.068 212.437 364.619C211.46 364.17 210.693 363.545 210.137 362.744C209.59 361.934 209.316 361.06 209.316 360.122H212.026C212.075 361.03 212.437 361.753 213.11 362.29C213.794 362.817 214.692 363.081 215.806 363.081C216.831 363.081 217.651 362.876 218.267 362.466C218.892 362.046 219.204 361.489 219.204 360.796Z" fill="#5B5050"/>
<rect x="49" y="45" width="256" height="186" fill="#E5E5E5"/>
<path d="M103.862 128.024C103.862 130.114 103.511 131.94 102.808 133.503C102.104 135.056 101.108 136.242 99.8193 137.062C98.5303 137.883 97.0264 138.293 95.3076 138.293C93.6279 138.293 92.1387 137.883 90.8398 137.062C89.541 136.232 88.5303 135.056 87.8076 133.532C87.0947 131.999 86.7285 130.227 86.709 128.215V126.677C86.709 124.626 87.0654 122.814 87.7783 121.242C88.4912 119.67 89.4971 118.469 90.7959 117.639C92.1045 116.799 93.5986 116.379 95.2783 116.379C96.9873 116.379 98.4912 116.794 99.79 117.624C101.099 118.444 102.104 119.641 102.808 121.213C103.511 122.775 103.862 124.597 103.862 126.677V128.024ZM101.064 126.647C101.064 124.118 100.557 122.18 99.541 120.832C98.5254 119.475 97.1045 118.796 95.2783 118.796C93.501 118.796 92.0996 119.475 91.0742 120.832C90.0586 122.18 89.5361 124.055 89.5068 126.457V128.024C89.5068 130.476 90.0195 132.404 91.0449 133.811C92.0801 135.207 93.501 135.905 95.3076 135.905C97.124 135.905 98.5303 135.246 99.5264 133.928C100.522 132.6 101.035 130.7 101.064 128.229V126.647ZM121.689 134.265L124.736 122.15H127.446L122.832 138H120.635L116.782 125.988L113.032 138H110.835L106.235 122.15H108.931L112.051 134.016L115.742 122.15H117.925L121.689 134.265ZM132.778 122.15L132.866 124.143C134.077 122.619 135.659 121.857 137.612 121.857C140.962 121.857 142.651 123.747 142.681 127.526V138H139.971V127.512C139.961 126.369 139.697 125.524 139.18 124.978C138.672 124.431 137.876 124.157 136.792 124.157C135.913 124.157 135.142 124.392 134.478 124.86C133.813 125.329 133.296 125.944 132.925 126.706V138H130.215V122.15H132.778ZM153.345 138.293C151.196 138.293 149.448 137.59 148.101 136.184C146.753 134.768 146.079 132.878 146.079 130.515V130.017C146.079 128.444 146.377 127.043 146.973 125.812C147.578 124.572 148.418 123.605 149.492 122.912C150.576 122.209 151.748 121.857 153.008 121.857C155.068 121.857 156.67 122.536 157.812 123.894C158.955 125.251 159.526 127.194 159.526 129.724V130.852H148.789C148.828 132.414 149.282 133.679 150.151 134.646C151.03 135.603 152.144 136.081 153.491 136.081C154.448 136.081 155.259 135.886 155.923 135.495C156.587 135.104 157.168 134.587 157.666 133.942L159.321 135.231C157.993 137.272 156.001 138.293 153.345 138.293ZM153.008 124.084C151.914 124.084 150.996 124.484 150.254 125.285C149.512 126.076 149.053 127.189 148.877 128.625H156.816V128.42C156.738 127.043 156.367 125.979 155.703 125.227C155.039 124.465 154.141 124.084 153.008 124.084ZM170.337 124.582C169.927 124.514 169.482 124.479 169.004 124.479C167.227 124.479 166.021 125.236 165.386 126.75V138H162.676V122.15H165.312L165.356 123.981C166.245 122.565 167.505 121.857 169.136 121.857C169.663 121.857 170.063 121.926 170.337 122.062V124.582ZM180.708 138V116.672H186.729C188.584 116.672 190.225 117.082 191.65 117.902C193.076 118.723 194.175 119.89 194.946 121.403C195.728 122.917 196.123 124.655 196.133 126.618V127.98C196.133 129.992 195.742 131.755 194.961 133.269C194.189 134.782 193.081 135.944 191.636 136.755C190.2 137.565 188.525 137.98 186.611 138H180.708ZM183.521 118.986V135.7H186.479C188.647 135.7 190.332 135.026 191.533 133.679C192.744 132.331 193.35 130.412 193.35 127.922V126.677C193.35 124.255 192.778 122.375 191.636 121.037C190.503 119.689 188.892 119.006 186.802 118.986H183.521ZM206.548 138.293C204.399 138.293 202.651 137.59 201.304 136.184C199.956 134.768 199.282 132.878 199.282 130.515V130.017C199.282 128.444 199.58 127.043 200.176 125.812C200.781 124.572 201.621 123.605 202.695 122.912C203.779 122.209 204.951 121.857 206.211 121.857C208.271 121.857 209.873 122.536 211.016 123.894C212.158 125.251 212.729 127.194 212.729 129.724V130.852H201.992C202.031 132.414 202.485 133.679 203.354 134.646C204.233 135.603 205.347 136.081 206.694 136.081C207.651 136.081 208.462 135.886 209.126 135.495C209.79 135.104 210.371 134.587 210.869 133.942L212.524 135.231C211.196 137.272 209.204 138.293 206.548 138.293ZM206.211 124.084C205.117 124.084 204.199 124.484 203.457 125.285C202.715 126.076 202.256 127.189 202.08 128.625H210.02V128.42C209.941 127.043 209.57 125.979 208.906 125.227C208.242 124.465 207.344 124.084 206.211 124.084ZM219.556 118.312V122.15H222.515V124.245H219.556V134.074C219.556 134.709 219.688 135.188 219.951 135.51C220.215 135.822 220.664 135.979 221.299 135.979C221.611 135.979 222.041 135.92 222.588 135.803V138C221.875 138.195 221.182 138.293 220.508 138.293C219.297 138.293 218.384 137.927 217.769 137.194C217.153 136.462 216.846 135.422 216.846 134.074V124.245H213.96V122.15H216.846V118.312H219.556ZM235.479 138C235.322 137.688 235.195 137.131 235.098 136.33C233.838 137.639 232.334 138.293 230.586 138.293C229.023 138.293 227.739 137.854 226.733 136.975C225.737 136.086 225.239 134.963 225.239 133.605C225.239 131.955 225.864 130.676 227.114 129.768C228.374 128.85 230.142 128.391 232.417 128.391H235.054V127.146C235.054 126.198 234.771 125.446 234.204 124.89C233.638 124.323 232.803 124.04 231.699 124.04C230.732 124.04 229.922 124.284 229.268 124.772C228.613 125.261 228.286 125.852 228.286 126.545H225.562C225.562 125.754 225.84 124.992 226.396 124.26C226.963 123.518 227.725 122.932 228.682 122.502C229.648 122.072 230.708 121.857 231.86 121.857C233.687 121.857 235.117 122.316 236.152 123.234C237.188 124.143 237.725 125.397 237.764 126.999V134.294C237.764 135.749 237.949 136.906 238.32 137.766V138H235.479ZM230.981 135.935C231.831 135.935 232.637 135.715 233.398 135.275C234.16 134.836 234.712 134.265 235.054 133.562V130.31H232.93C229.609 130.31 227.949 131.281 227.949 133.225C227.949 134.074 228.232 134.738 228.799 135.217C229.365 135.695 230.093 135.935 230.981 135.935ZM244.956 138H242.246V122.15H244.956V138ZM242.026 117.946C242.026 117.507 242.158 117.136 242.422 116.833C242.695 116.53 243.096 116.379 243.623 116.379C244.15 116.379 244.551 116.53 244.824 116.833C245.098 117.136 245.234 117.507 245.234 117.946C245.234 118.386 245.098 118.752 244.824 119.045C244.551 119.338 244.15 119.484 243.623 119.484C243.096 119.484 242.695 119.338 242.422 119.045C242.158 118.752 242.026 118.386 242.026 117.946ZM252.251 138H249.541V115.5H252.251V138ZM265.83 133.796C265.83 133.063 265.552 132.497 264.995 132.097C264.448 131.687 263.486 131.335 262.109 131.042C260.742 130.749 259.653 130.397 258.843 129.987C258.042 129.577 257.446 129.089 257.056 128.522C256.675 127.956 256.484 127.282 256.484 126.501C256.484 125.202 257.031 124.104 258.125 123.205C259.229 122.307 260.635 121.857 262.344 121.857C264.141 121.857 265.596 122.321 266.709 123.249C267.832 124.177 268.394 125.363 268.394 126.809H265.669C265.669 126.066 265.352 125.427 264.717 124.89C264.092 124.353 263.301 124.084 262.344 124.084C261.357 124.084 260.586 124.299 260.029 124.729C259.473 125.158 259.194 125.72 259.194 126.413C259.194 127.067 259.453 127.561 259.971 127.893C260.488 128.225 261.421 128.542 262.769 128.845C264.126 129.147 265.225 129.509 266.064 129.929C266.904 130.349 267.524 130.856 267.925 131.452C268.335 132.038 268.54 132.756 268.54 133.605C268.54 135.021 267.974 136.159 266.841 137.019C265.708 137.868 264.238 138.293 262.432 138.293C261.162 138.293 260.039 138.068 259.062 137.619C258.086 137.17 257.319 136.545 256.763 135.744C256.216 134.934 255.942 134.06 255.942 133.122H258.652C258.701 134.03 259.062 134.753 259.736 135.29C260.42 135.817 261.318 136.081 262.432 136.081C263.457 136.081 264.277 135.876 264.893 135.466C265.518 135.046 265.83 134.489 265.83 133.796Z" fill="#5B5050"/>
<rect x="305" y="256" width="256" height="186" fill="#E5E5E5"/>
<path d="M391.562 322.65V331H388.749V309.672H396.615C398.949 309.672 400.775 310.268 402.094 311.459C403.422 312.65 404.086 314.228 404.086 316.19C404.086 318.261 403.437 319.857 402.138 320.98C400.849 322.094 398.998 322.65 396.586 322.65H391.562ZM391.562 320.351H396.615C398.119 320.351 399.271 319.999 400.072 319.296C400.873 318.583 401.273 317.558 401.273 316.22C401.273 314.95 400.873 313.935 400.072 313.173C399.271 312.411 398.173 312.016 396.776 311.986H391.562V320.351ZM416.859 331C416.703 330.688 416.576 330.131 416.479 329.33C415.219 330.639 413.715 331.293 411.967 331.293C410.404 331.293 409.12 330.854 408.114 329.975C407.118 329.086 406.62 327.963 406.62 326.605C406.62 324.955 407.245 323.676 408.495 322.768C409.755 321.85 411.522 321.391 413.798 321.391H416.435V320.146C416.435 319.198 416.151 318.446 415.585 317.89C415.019 317.323 414.184 317.04 413.08 317.04C412.113 317.04 411.303 317.284 410.648 317.772C409.994 318.261 409.667 318.852 409.667 319.545H406.942C406.942 318.754 407.221 317.992 407.777 317.26C408.344 316.518 409.105 315.932 410.062 315.502C411.029 315.072 412.089 314.857 413.241 314.857C415.067 314.857 416.498 315.316 417.533 316.234C418.568 317.143 419.105 318.397 419.145 319.999V327.294C419.145 328.749 419.33 329.906 419.701 330.766V331H416.859ZM412.362 328.935C413.212 328.935 414.018 328.715 414.779 328.275C415.541 327.836 416.093 327.265 416.435 326.562V323.31H414.311C410.99 323.31 409.33 324.281 409.33 326.225C409.33 327.074 409.613 327.738 410.18 328.217C410.746 328.695 411.474 328.935 412.362 328.935ZM427.069 311.312V315.15H430.028V317.245H427.069V327.074C427.069 327.709 427.201 328.188 427.465 328.51C427.729 328.822 428.178 328.979 428.812 328.979C429.125 328.979 429.555 328.92 430.102 328.803V331C429.389 331.195 428.695 331.293 428.021 331.293C426.811 331.293 425.897 330.927 425.282 330.194C424.667 329.462 424.359 328.422 424.359 327.074V317.245H421.474V315.15H424.359V311.312H427.069ZM436.151 331H433.441V315.15H436.151V331ZM433.222 310.946C433.222 310.507 433.354 310.136 433.617 309.833C433.891 309.53 434.291 309.379 434.818 309.379C435.346 309.379 435.746 309.53 436.02 309.833C436.293 310.136 436.43 310.507 436.43 310.946C436.43 311.386 436.293 311.752 436.02 312.045C435.746 312.338 435.346 312.484 434.818 312.484C434.291 312.484 433.891 312.338 433.617 312.045C433.354 311.752 433.222 311.386 433.222 310.946ZM447.079 331.293C444.931 331.293 443.183 330.59 441.835 329.184C440.487 327.768 439.813 325.878 439.813 323.515V323.017C439.813 321.444 440.111 320.043 440.707 318.812C441.312 317.572 442.152 316.605 443.227 315.912C444.311 315.209 445.482 314.857 446.742 314.857C448.803 314.857 450.404 315.536 451.547 316.894C452.689 318.251 453.261 320.194 453.261 322.724V323.852H442.523C442.562 325.414 443.017 326.679 443.886 327.646C444.765 328.603 445.878 329.081 447.226 329.081C448.183 329.081 448.993 328.886 449.657 328.495C450.321 328.104 450.902 327.587 451.4 326.942L453.056 328.231C451.728 330.272 449.735 331.293 447.079 331.293ZM446.742 317.084C445.648 317.084 444.73 317.484 443.988 318.285C443.246 319.076 442.787 320.189 442.611 321.625H450.551V321.42C450.473 320.043 450.102 318.979 449.438 318.227C448.773 317.465 447.875 317.084 446.742 317.084ZM458.974 315.15L459.062 317.143C460.272 315.619 461.854 314.857 463.808 314.857C467.157 314.857 468.847 316.747 468.876 320.526V331H466.166V320.512C466.156 319.369 465.893 318.524 465.375 317.978C464.867 317.431 464.071 317.157 462.987 317.157C462.108 317.157 461.337 317.392 460.673 317.86C460.009 318.329 459.491 318.944 459.12 319.706V331H456.41V315.15H458.974ZM476.64 311.312V315.15H479.599V317.245H476.64V327.074C476.64 327.709 476.771 328.188 477.035 328.51C477.299 328.822 477.748 328.979 478.383 328.979C478.695 328.979 479.125 328.92 479.672 328.803V331C478.959 331.195 478.266 331.293 477.592 331.293C476.381 331.293 475.468 330.927 474.853 330.194C474.237 329.462 473.93 328.422 473.93 327.074V317.245H471.044V315.15H473.93V311.312H476.64ZM404.657 366H401.83V356.142H391.078V366H388.266V344.672H391.078V353.842H401.83V344.672H404.657V366ZM412.172 366H409.462V350.15H412.172V366ZM409.242 345.946C409.242 345.507 409.374 345.136 409.638 344.833C409.911 344.53 410.312 344.379 410.839 344.379C411.366 344.379 411.767 344.53 412.04 344.833C412.313 345.136 412.45 345.507 412.45 345.946C412.45 346.386 412.313 346.752 412.04 347.045C411.767 347.338 411.366 347.484 410.839 347.484C410.312 347.484 409.911 347.338 409.638 347.045C409.374 346.752 409.242 346.386 409.242 345.946ZM425.751 361.796C425.751 361.063 425.473 360.497 424.916 360.097C424.369 359.687 423.407 359.335 422.03 359.042C420.663 358.749 419.574 358.397 418.764 357.987C417.963 357.577 417.367 357.089 416.977 356.522C416.596 355.956 416.405 355.282 416.405 354.501C416.405 353.202 416.952 352.104 418.046 351.205C419.149 350.307 420.556 349.857 422.265 349.857C424.062 349.857 425.517 350.321 426.63 351.249C427.753 352.177 428.314 353.363 428.314 354.809H425.59C425.59 354.066 425.272 353.427 424.638 352.89C424.013 352.353 423.222 352.084 422.265 352.084C421.278 352.084 420.507 352.299 419.95 352.729C419.394 353.158 419.115 353.72 419.115 354.413C419.115 355.067 419.374 355.561 419.892 355.893C420.409 356.225 421.342 356.542 422.689 356.845C424.047 357.147 425.146 357.509 425.985 357.929C426.825 358.349 427.445 358.856 427.846 359.452C428.256 360.038 428.461 360.756 428.461 361.605C428.461 363.021 427.895 364.159 426.762 365.019C425.629 365.868 424.159 366.293 422.353 366.293C421.083 366.293 419.96 366.068 418.983 365.619C418.007 365.17 417.24 364.545 416.684 363.744C416.137 362.934 415.863 362.06 415.863 361.122H418.573C418.622 362.03 418.983 362.753 419.657 363.29C420.341 363.817 421.239 364.081 422.353 364.081C423.378 364.081 424.198 363.876 424.813 363.466C425.438 363.046 425.751 362.489 425.751 361.796ZM435.668 346.312V350.15H438.627V352.245H435.668V362.074C435.668 362.709 435.8 363.188 436.063 363.51C436.327 363.822 436.776 363.979 437.411 363.979C437.724 363.979 438.153 363.92 438.7 363.803V366C437.987 366.195 437.294 366.293 436.62 366.293C435.409 366.293 434.496 365.927 433.881 365.194C433.266 364.462 432.958 363.422 432.958 362.074V352.245H430.072V350.15H432.958V346.312H435.668ZM440.795 357.929C440.795 356.376 441.098 354.979 441.703 353.739C442.318 352.499 443.168 351.542 444.252 350.868C445.346 350.194 446.591 349.857 447.987 349.857C450.146 349.857 451.889 350.604 453.217 352.099C454.555 353.593 455.224 355.58 455.224 358.061V358.251C455.224 359.794 454.926 361.181 454.33 362.411C453.744 363.632 452.899 364.584 451.796 365.268C450.702 365.951 449.442 366.293 448.017 366.293C445.868 366.293 444.125 365.546 442.787 364.052C441.459 362.558 440.795 360.58 440.795 358.119V357.929ZM443.52 358.251C443.52 360.009 443.925 361.42 444.735 362.484C445.556 363.549 446.649 364.081 448.017 364.081C449.394 364.081 450.487 363.544 451.298 362.47C452.108 361.386 452.514 359.872 452.514 357.929C452.514 356.19 452.099 354.784 451.269 353.71C450.448 352.626 449.354 352.084 447.987 352.084C446.649 352.084 445.57 352.616 444.75 353.681C443.93 354.745 443.52 356.269 443.52 358.251ZM466.283 352.582C465.873 352.514 465.429 352.479 464.95 352.479C463.173 352.479 461.967 353.236 461.332 354.75V366H458.622V350.15H461.259L461.303 351.981C462.191 350.565 463.451 349.857 465.082 349.857C465.609 349.857 466.01 349.926 466.283 350.062V352.582ZM474.237 362.03L477.929 350.15H480.829L474.457 368.446C473.471 371.083 471.903 372.401 469.755 372.401L469.242 372.357L468.231 372.167V369.97L468.964 370.028C469.882 370.028 470.595 369.843 471.103 369.472C471.62 369.101 472.045 368.422 472.377 367.436L472.978 365.824L467.323 350.15H470.282L474.237 362.03Z" fill="#5B5050"/>
<rect x="50" y="473" width="256" height="186" fill="#E5E5E5"/>
<path d="M91.4883 557.65V566H88.6758V544.672H96.542C98.876 544.672 100.702 545.268 102.021 546.459C103.349 547.65 104.013 549.228 104.013 551.19C104.013 553.261 103.363 554.857 102.064 555.98C100.775 557.094 98.9248 557.65 96.5127 557.65H91.4883ZM91.4883 555.351H96.542C98.0459 555.351 99.1982 554.999 99.999 554.296C100.8 553.583 101.2 552.558 101.2 551.22C101.2 549.95 100.8 548.935 99.999 548.173C99.1982 547.411 98.0996 547.016 96.7031 546.986H91.4883V555.351ZM116.786 566C116.63 565.688 116.503 565.131 116.405 564.33C115.146 565.639 113.642 566.293 111.894 566.293C110.331 566.293 109.047 565.854 108.041 564.975C107.045 564.086 106.547 562.963 106.547 561.605C106.547 559.955 107.172 558.676 108.422 557.768C109.682 556.85 111.449 556.391 113.725 556.391H116.361V555.146C116.361 554.198 116.078 553.446 115.512 552.89C114.945 552.323 114.11 552.04 113.007 552.04C112.04 552.04 111.229 552.284 110.575 552.772C109.921 553.261 109.594 553.852 109.594 554.545H106.869C106.869 553.754 107.147 552.992 107.704 552.26C108.271 551.518 109.032 550.932 109.989 550.502C110.956 550.072 112.016 549.857 113.168 549.857C114.994 549.857 116.425 550.316 117.46 551.234C118.495 552.143 119.032 553.397 119.071 554.999V562.294C119.071 563.749 119.257 564.906 119.628 565.766V566H116.786ZM112.289 563.935C113.139 563.935 113.944 563.715 114.706 563.275C115.468 562.836 116.02 562.265 116.361 561.562V558.31H114.237C110.917 558.31 109.257 559.281 109.257 561.225C109.257 562.074 109.54 562.738 110.106 563.217C110.673 563.695 111.4 563.935 112.289 563.935ZM126.996 546.312V550.15H129.955V552.245H126.996V562.074C126.996 562.709 127.128 563.188 127.392 563.51C127.655 563.822 128.104 563.979 128.739 563.979C129.052 563.979 129.481 563.92 130.028 563.803V566C129.315 566.195 128.622 566.293 127.948 566.293C126.737 566.293 125.824 565.927 125.209 565.194C124.594 564.462 124.286 563.422 124.286 562.074V552.245H121.4V550.15H124.286V546.312H126.996ZM136.078 566H133.368V550.15H136.078V566ZM133.148 545.946C133.148 545.507 133.28 545.136 133.544 544.833C133.817 544.53 134.218 544.379 134.745 544.379C135.272 544.379 135.673 544.53 135.946 544.833C136.22 545.136 136.356 545.507 136.356 545.946C136.356 546.386 136.22 546.752 135.946 547.045C135.673 547.338 135.272 547.484 134.745 547.484C134.218 547.484 133.817 547.338 133.544 547.045C133.28 546.752 133.148 546.386 133.148 545.946ZM147.006 566.293C144.857 566.293 143.109 565.59 141.762 564.184C140.414 562.768 139.74 560.878 139.74 558.515V558.017C139.74 556.444 140.038 555.043 140.634 553.812C141.239 552.572 142.079 551.605 143.153 550.912C144.237 550.209 145.409 549.857 146.669 549.857C148.729 549.857 150.331 550.536 151.474 551.894C152.616 553.251 153.188 555.194 153.188 557.724V558.852H142.45C142.489 560.414 142.943 561.679 143.812 562.646C144.691 563.603 145.805 564.081 147.152 564.081C148.109 564.081 148.92 563.886 149.584 563.495C150.248 563.104 150.829 562.587 151.327 561.942L152.982 563.231C151.654 565.272 149.662 566.293 147.006 566.293ZM146.669 552.084C145.575 552.084 144.657 552.484 143.915 553.285C143.173 554.076 142.714 555.189 142.538 556.625H150.478V556.42C150.399 555.043 150.028 553.979 149.364 553.227C148.7 552.465 147.802 552.084 146.669 552.084ZM158.9 550.15L158.988 552.143C160.199 550.619 161.781 549.857 163.734 549.857C167.084 549.857 168.773 551.747 168.803 555.526V566H166.093V555.512C166.083 554.369 165.819 553.524 165.302 552.978C164.794 552.431 163.998 552.157 162.914 552.157C162.035 552.157 161.264 552.392 160.6 552.86C159.936 553.329 159.418 553.944 159.047 554.706V566H156.337V550.15H158.9ZM176.566 546.312V550.15H179.525V552.245H176.566V562.074C176.566 562.709 176.698 563.188 176.962 563.51C177.226 563.822 177.675 563.979 178.31 563.979C178.622 563.979 179.052 563.92 179.599 563.803V566C178.886 566.195 178.192 566.293 177.519 566.293C176.308 566.293 175.395 565.927 174.779 565.194C174.164 564.462 173.856 563.422 173.856 562.074V552.245H170.971V550.15H173.856V546.312H176.566ZM206.259 559.232C205.995 561.488 205.16 563.231 203.754 564.462C202.357 565.683 200.497 566.293 198.173 566.293C195.653 566.293 193.632 565.39 192.108 563.583C190.595 561.776 189.838 559.359 189.838 556.332V554.281C189.838 552.299 190.189 550.556 190.893 549.052C191.605 547.548 192.611 546.396 193.91 545.595C195.209 544.784 196.713 544.379 198.422 544.379C200.688 544.379 202.504 545.014 203.871 546.283C205.238 547.543 206.034 549.291 206.259 551.527H203.432C203.188 549.828 202.655 548.598 201.835 547.836C201.024 547.074 199.887 546.693 198.422 546.693C196.625 546.693 195.214 547.357 194.188 548.686C193.173 550.014 192.665 551.903 192.665 554.354V556.42C192.665 558.734 193.148 560.575 194.115 561.942C195.082 563.31 196.435 563.993 198.173 563.993C199.735 563.993 200.932 563.642 201.762 562.938C202.602 562.226 203.158 560.99 203.432 559.232H206.259ZM219.472 566C219.315 565.688 219.188 565.131 219.091 564.33C217.831 565.639 216.327 566.293 214.579 566.293C213.017 566.293 211.732 565.854 210.727 564.975C209.73 564.086 209.232 562.963 209.232 561.605C209.232 559.955 209.857 558.676 211.107 557.768C212.367 556.85 214.135 556.391 216.41 556.391H219.047V555.146C219.047 554.198 218.764 553.446 218.197 552.89C217.631 552.323 216.796 552.04 215.692 552.04C214.726 552.04 213.915 552.284 213.261 552.772C212.606 553.261 212.279 553.852 212.279 554.545H209.555C209.555 553.754 209.833 552.992 210.39 552.26C210.956 551.518 211.718 550.932 212.675 550.502C213.642 550.072 214.701 549.857 215.854 549.857C217.68 549.857 219.11 550.316 220.146 551.234C221.181 552.143 221.718 553.397 221.757 554.999V562.294C221.757 563.749 221.942 564.906 222.313 565.766V566H219.472ZM214.975 563.935C215.824 563.935 216.63 563.715 217.392 563.275C218.153 562.836 218.705 562.265 219.047 561.562V558.31H216.923C213.603 558.31 211.942 559.281 211.942 561.225C211.942 562.074 212.226 562.738 212.792 563.217C213.358 563.695 214.086 563.935 214.975 563.935ZM235.233 561.796C235.233 561.063 234.955 560.497 234.398 560.097C233.852 559.687 232.89 559.335 231.513 559.042C230.146 558.749 229.057 558.397 228.246 557.987C227.445 557.577 226.85 557.089 226.459 556.522C226.078 555.956 225.888 555.282 225.888 554.501C225.888 553.202 226.435 552.104 227.528 551.205C228.632 550.307 230.038 549.857 231.747 549.857C233.544 549.857 234.999 550.321 236.112 551.249C237.235 552.177 237.797 553.363 237.797 554.809H235.072C235.072 554.066 234.755 553.427 234.12 552.89C233.495 552.353 232.704 552.084 231.747 552.084C230.761 552.084 229.989 552.299 229.433 552.729C228.876 553.158 228.598 553.72 228.598 554.413C228.598 555.067 228.856 555.561 229.374 555.893C229.892 556.225 230.824 556.542 232.172 556.845C233.529 557.147 234.628 557.509 235.468 557.929C236.308 558.349 236.928 558.856 237.328 559.452C237.738 560.038 237.943 560.756 237.943 561.605C237.943 563.021 237.377 564.159 236.244 565.019C235.111 565.868 233.642 566.293 231.835 566.293C230.565 566.293 229.442 566.068 228.466 565.619C227.489 565.17 226.723 564.545 226.166 563.744C225.619 562.934 225.346 562.06 225.346 561.122H228.056C228.104 562.03 228.466 562.753 229.14 563.29C229.823 563.817 230.722 564.081 231.835 564.081C232.86 564.081 233.681 563.876 234.296 563.466C234.921 563.046 235.233 562.489 235.233 561.796ZM248.051 566.293C245.902 566.293 244.154 565.59 242.807 564.184C241.459 562.768 240.785 560.878 240.785 558.515V558.017C240.785 556.444 241.083 555.043 241.679 553.812C242.284 552.572 243.124 551.605 244.198 550.912C245.282 550.209 246.454 549.857 247.714 549.857C249.774 549.857 251.376 550.536 252.519 551.894C253.661 553.251 254.232 555.194 254.232 557.724V558.852H243.495C243.534 560.414 243.988 561.679 244.857 562.646C245.736 563.603 246.85 564.081 248.197 564.081C249.154 564.081 249.965 563.886 250.629 563.495C251.293 563.104 251.874 562.587 252.372 561.942L254.027 563.231C252.699 565.272 250.707 566.293 248.051 566.293ZM247.714 552.084C246.62 552.084 245.702 552.484 244.96 553.285C244.218 554.076 243.759 555.189 243.583 556.625H251.522V556.42C251.444 555.043 251.073 553.979 250.409 553.227C249.745 552.465 248.847 552.084 247.714 552.084ZM266.61 561.796C266.61 561.063 266.332 560.497 265.775 560.097C265.229 559.687 264.267 559.335 262.89 559.042C261.522 558.749 260.434 558.397 259.623 557.987C258.822 557.577 258.227 557.089 257.836 556.522C257.455 555.956 257.265 555.282 257.265 554.501C257.265 553.202 257.812 552.104 258.905 551.205C260.009 550.307 261.415 549.857 263.124 549.857C264.921 549.857 266.376 550.321 267.489 551.249C268.612 552.177 269.174 553.363 269.174 554.809H266.449C266.449 554.066 266.132 553.427 265.497 552.89C264.872 552.353 264.081 552.084 263.124 552.084C262.138 552.084 261.366 552.299 260.81 552.729C260.253 553.158 259.975 553.72 259.975 554.413C259.975 555.067 260.233 555.561 260.751 555.893C261.269 556.225 262.201 556.542 263.549 556.845C264.906 557.147 266.005 557.509 266.845 557.929C267.685 558.349 268.305 558.856 268.705 559.452C269.115 560.038 269.32 560.756 269.32 561.605C269.32 563.021 268.754 564.159 267.621 565.019C266.488 565.868 265.019 566.293 263.212 566.293C261.942 566.293 260.819 566.068 259.843 565.619C258.866 565.17 258.1 564.545 257.543 563.744C256.996 562.934 256.723 562.06 256.723 561.122H259.433C259.481 562.03 259.843 562.753 260.517 563.29C261.2 563.817 262.099 564.081 263.212 564.081C264.237 564.081 265.058 563.876 265.673 563.466C266.298 563.046 266.61 562.489 266.61 561.796Z" fill="#5B5050"/>
<rect x="49" y="690" width="256" height="186" fill="#E5E5E5"/>
<path d="M105.444 777.434H96.5088L94.502 783H91.6016L99.7461 761.672H102.207L110.366 783H107.48L105.444 777.434ZM97.3584 775.119H104.609L100.977 765.144L97.3584 775.119ZM126.201 775.251C126.201 777.663 125.649 779.606 124.546 781.081C123.442 782.556 121.948 783.293 120.063 783.293C118.14 783.293 116.626 782.683 115.522 781.462V789.094H112.812V767.15H115.288L115.42 768.908C116.523 767.541 118.057 766.857 120.02 766.857C121.924 766.857 123.428 767.575 124.531 769.011C125.645 770.446 126.201 772.443 126.201 775.002V775.251ZM123.491 774.943C123.491 773.156 123.11 771.745 122.349 770.71C121.587 769.675 120.542 769.157 119.214 769.157C117.573 769.157 116.343 769.885 115.522 771.34V778.913C116.333 780.358 117.573 781.081 119.243 781.081C120.542 781.081 121.572 780.568 122.334 779.543C123.105 778.508 123.491 776.975 123.491 774.943ZM143.047 775.251C143.047 777.663 142.495 779.606 141.392 781.081C140.288 782.556 138.794 783.293 136.909 783.293C134.985 783.293 133.472 782.683 132.368 781.462V789.094H129.658V767.15H132.134L132.266 768.908C133.369 767.541 134.902 766.857 136.865 766.857C138.77 766.857 140.273 767.575 141.377 769.011C142.49 770.446 143.047 772.443 143.047 775.002V775.251ZM140.337 774.943C140.337 773.156 139.956 771.745 139.194 770.71C138.433 769.675 137.388 769.157 136.06 769.157C134.419 769.157 133.188 769.885 132.368 771.34V778.913C133.179 780.358 134.419 781.081 136.089 781.081C137.388 781.081 138.418 780.568 139.18 779.543C139.951 778.508 140.337 776.975 140.337 774.943ZM145.786 774.929C145.786 773.376 146.089 771.979 146.694 770.739C147.31 769.499 148.159 768.542 149.243 767.868C150.337 767.194 151.582 766.857 152.979 766.857C155.137 766.857 156.88 767.604 158.208 769.099C159.546 770.593 160.215 772.58 160.215 775.061V775.251C160.215 776.794 159.917 778.181 159.321 779.411C158.735 780.632 157.891 781.584 156.787 782.268C155.693 782.951 154.434 783.293 153.008 783.293C150.859 783.293 149.116 782.546 147.778 781.052C146.45 779.558 145.786 777.58 145.786 775.119V774.929ZM148.511 775.251C148.511 777.009 148.916 778.42 149.727 779.484C150.547 780.549 151.641 781.081 153.008 781.081C154.385 781.081 155.479 780.544 156.289 779.47C157.1 778.386 157.505 776.872 157.505 774.929C157.505 773.19 157.09 771.784 156.26 770.71C155.439 769.626 154.346 769.084 152.979 769.084C151.641 769.084 150.562 769.616 149.741 770.681C148.921 771.745 148.511 773.269 148.511 775.251ZM166.558 783H163.848V767.15H166.558V783ZM163.628 762.946C163.628 762.507 163.76 762.136 164.023 761.833C164.297 761.53 164.697 761.379 165.225 761.379C165.752 761.379 166.152 761.53 166.426 761.833C166.699 762.136 166.836 762.507 166.836 762.946C166.836 763.386 166.699 763.752 166.426 764.045C166.152 764.338 165.752 764.484 165.225 764.484C164.697 764.484 164.297 764.338 164.023 764.045C163.76 763.752 163.628 763.386 163.628 762.946ZM173.472 767.15L173.56 769.143C174.771 767.619 176.353 766.857 178.306 766.857C181.655 766.857 183.345 768.747 183.374 772.526V783H180.664V772.512C180.654 771.369 180.391 770.524 179.873 769.978C179.365 769.431 178.569 769.157 177.485 769.157C176.606 769.157 175.835 769.392 175.171 769.86C174.507 770.329 173.989 770.944 173.618 771.706V783H170.908V767.15H173.472ZM191.138 763.312V767.15H194.097V769.245H191.138V779.074C191.138 779.709 191.27 780.188 191.533 780.51C191.797 780.822 192.246 780.979 192.881 780.979C193.193 780.979 193.623 780.92 194.17 780.803V783C193.457 783.195 192.764 783.293 192.09 783.293C190.879 783.293 189.966 782.927 189.351 782.194C188.735 781.462 188.428 780.422 188.428 779.074V769.245H185.542V767.15H188.428V763.312H191.138ZM199.824 767.15L199.897 768.908C201.06 767.541 202.627 766.857 204.6 766.857C206.816 766.857 208.325 767.707 209.126 769.406C209.653 768.645 210.337 768.029 211.177 767.561C212.026 767.092 213.027 766.857 214.18 766.857C217.656 766.857 219.424 768.698 219.482 772.38V783H216.772V772.541C216.772 771.408 216.514 770.563 215.996 770.007C215.479 769.44 214.609 769.157 213.389 769.157C212.383 769.157 211.548 769.46 210.884 770.065C210.22 770.661 209.834 771.467 209.727 772.482V783H207.002V772.614C207.002 770.31 205.874 769.157 203.618 769.157C201.841 769.157 200.625 769.914 199.971 771.428V783H197.261V767.15H199.824ZM230.161 783.293C228.013 783.293 226.265 782.59 224.917 781.184C223.569 779.768 222.896 777.878 222.896 775.515V775.017C222.896 773.444 223.193 772.043 223.789 770.812C224.395 769.572 225.234 768.605 226.309 767.912C227.393 767.209 228.564 766.857 229.824 766.857C231.885 766.857 233.486 767.536 234.629 768.894C235.771 770.251 236.343 772.194 236.343 774.724V775.852H225.605C225.645 777.414 226.099 778.679 226.968 779.646C227.847 780.603 228.96 781.081 230.308 781.081C231.265 781.081 232.075 780.886 232.739 780.495C233.403 780.104 233.984 779.587 234.482 778.942L236.138 780.231C234.81 782.272 232.817 783.293 230.161 783.293ZM229.824 769.084C228.73 769.084 227.812 769.484 227.07 770.285C226.328 771.076 225.869 772.189 225.693 773.625H233.633V773.42C233.555 772.043 233.184 770.979 232.52 770.227C231.855 769.465 230.957 769.084 229.824 769.084ZM242.056 767.15L242.144 769.143C243.354 767.619 244.937 766.857 246.89 766.857C250.239 766.857 251.929 768.747 251.958 772.526V783H249.248V772.512C249.238 771.369 248.975 770.524 248.457 769.978C247.949 769.431 247.153 769.157 246.069 769.157C245.19 769.157 244.419 769.392 243.755 769.86C243.091 770.329 242.573 770.944 242.202 771.706V783H239.492V767.15H242.056ZM259.722 763.312V767.15H262.681V769.245H259.722V779.074C259.722 779.709 259.854 780.188 260.117 780.51C260.381 780.822 260.83 780.979 261.465 780.979C261.777 780.979 262.207 780.92 262.754 780.803V783C262.041 783.195 261.348 783.293 260.674 783.293C259.463 783.293 258.55 782.927 257.935 782.194C257.319 781.462 257.012 780.422 257.012 779.074V769.245H254.126V767.15H257.012V763.312H259.722Z" fill="#5B5050"/>
<rect x="305" y="690" width="256" height="186" fill="#E5E5E5"/>
<path d="M361.444 759.434H352.509L350.502 765H347.602L355.746 743.672H358.207L366.366 765H363.48L361.444 759.434ZM353.358 757.119H360.609L356.977 747.144L353.358 757.119ZM382.201 757.251C382.201 759.663 381.649 761.606 380.546 763.081C379.442 764.556 377.948 765.293 376.063 765.293C374.14 765.293 372.626 764.683 371.522 763.462V771.094H368.812V749.15H371.288L371.42 750.908C372.523 749.541 374.057 748.857 376.02 748.857C377.924 748.857 379.428 749.575 380.531 751.011C381.645 752.446 382.201 754.443 382.201 757.002V757.251ZM379.491 756.943C379.491 755.156 379.11 753.745 378.349 752.71C377.587 751.675 376.542 751.157 375.214 751.157C373.573 751.157 372.343 751.885 371.522 753.34V760.913C372.333 762.358 373.573 763.081 375.243 763.081C376.542 763.081 377.572 762.568 378.334 761.543C379.105 760.508 379.491 758.975 379.491 756.943ZM399.047 757.251C399.047 759.663 398.495 761.606 397.392 763.081C396.288 764.556 394.794 765.293 392.909 765.293C390.985 765.293 389.472 764.683 388.368 763.462V771.094H385.658V749.15H388.134L388.266 750.908C389.369 749.541 390.902 748.857 392.865 748.857C394.77 748.857 396.273 749.575 397.377 751.011C398.49 752.446 399.047 754.443 399.047 757.002V757.251ZM396.337 756.943C396.337 755.156 395.956 753.745 395.194 752.71C394.433 751.675 393.388 751.157 392.06 751.157C390.419 751.157 389.188 751.885 388.368 753.34V760.913C389.179 762.358 390.419 763.081 392.089 763.081C393.388 763.081 394.418 762.568 395.18 761.543C395.951 760.508 396.337 758.975 396.337 756.943ZM401.786 756.929C401.786 755.376 402.089 753.979 402.694 752.739C403.31 751.499 404.159 750.542 405.243 749.868C406.337 749.194 407.582 748.857 408.979 748.857C411.137 748.857 412.88 749.604 414.208 751.099C415.546 752.593 416.215 754.58 416.215 757.061V757.251C416.215 758.794 415.917 760.181 415.321 761.411C414.735 762.632 413.891 763.584 412.787 764.268C411.693 764.951 410.434 765.293 409.008 765.293C406.859 765.293 405.116 764.546 403.778 763.052C402.45 761.558 401.786 759.58 401.786 757.119V756.929ZM404.511 757.251C404.511 759.009 404.916 760.42 405.727 761.484C406.547 762.549 407.641 763.081 409.008 763.081C410.385 763.081 411.479 762.544 412.289 761.47C413.1 760.386 413.505 758.872 413.505 756.929C413.505 755.19 413.09 753.784 412.26 752.71C411.439 751.626 410.346 751.084 408.979 751.084C407.641 751.084 406.562 751.616 405.741 752.681C404.921 753.745 404.511 755.269 404.511 757.251ZM422.558 765H419.848V749.15H422.558V765ZM419.628 744.946C419.628 744.507 419.76 744.136 420.023 743.833C420.297 743.53 420.697 743.379 421.225 743.379C421.752 743.379 422.152 743.53 422.426 743.833C422.699 744.136 422.836 744.507 422.836 744.946C422.836 745.386 422.699 745.752 422.426 746.045C422.152 746.338 421.752 746.484 421.225 746.484C420.697 746.484 420.297 746.338 420.023 746.045C419.76 745.752 419.628 745.386 419.628 744.946ZM429.472 749.15L429.56 751.143C430.771 749.619 432.353 748.857 434.306 748.857C437.655 748.857 439.345 750.747 439.374 754.526V765H436.664V754.512C436.654 753.369 436.391 752.524 435.873 751.978C435.365 751.431 434.569 751.157 433.485 751.157C432.606 751.157 431.835 751.392 431.171 751.86C430.507 752.329 429.989 752.944 429.618 753.706V765H426.908V749.15H429.472ZM447.138 745.312V749.15H450.097V751.245H447.138V761.074C447.138 761.709 447.27 762.188 447.533 762.51C447.797 762.822 448.246 762.979 448.881 762.979C449.193 762.979 449.623 762.92 450.17 762.803V765C449.457 765.195 448.764 765.293 448.09 765.293C446.879 765.293 445.966 764.927 445.351 764.194C444.735 763.462 444.428 762.422 444.428 761.074V751.245H441.542V749.15H444.428V745.312H447.138ZM455.824 749.15L455.897 750.908C457.06 749.541 458.627 748.857 460.6 748.857C462.816 748.857 464.325 749.707 465.126 751.406C465.653 750.645 466.337 750.029 467.177 749.561C468.026 749.092 469.027 748.857 470.18 748.857C473.656 748.857 475.424 750.698 475.482 754.38V765H472.772V754.541C472.772 753.408 472.514 752.563 471.996 752.007C471.479 751.44 470.609 751.157 469.389 751.157C468.383 751.157 467.548 751.46 466.884 752.065C466.22 752.661 465.834 753.467 465.727 754.482V765H463.002V754.614C463.002 752.31 461.874 751.157 459.618 751.157C457.841 751.157 456.625 751.914 455.971 753.428V765H453.261V749.15H455.824ZM486.161 765.293C484.013 765.293 482.265 764.59 480.917 763.184C479.569 761.768 478.896 759.878 478.896 757.515V757.017C478.896 755.444 479.193 754.043 479.789 752.812C480.395 751.572 481.234 750.605 482.309 749.912C483.393 749.209 484.564 748.857 485.824 748.857C487.885 748.857 489.486 749.536 490.629 750.894C491.771 752.251 492.343 754.194 492.343 756.724V757.852H481.605C481.645 759.414 482.099 760.679 482.968 761.646C483.847 762.603 484.96 763.081 486.308 763.081C487.265 763.081 488.075 762.886 488.739 762.495C489.403 762.104 489.984 761.587 490.482 760.942L492.138 762.231C490.81 764.272 488.817 765.293 486.161 765.293ZM485.824 751.084C484.73 751.084 483.812 751.484 483.07 752.285C482.328 753.076 481.869 754.189 481.693 755.625H489.633V755.42C489.555 754.043 489.184 752.979 488.52 752.227C487.855 751.465 486.957 751.084 485.824 751.084ZM498.056 749.15L498.144 751.143C499.354 749.619 500.937 748.857 502.89 748.857C506.239 748.857 507.929 750.747 507.958 754.526V765H505.248V754.512C505.238 753.369 504.975 752.524 504.457 751.978C503.949 751.431 503.153 751.157 502.069 751.157C501.19 751.157 500.419 751.392 499.755 751.86C499.091 752.329 498.573 752.944 498.202 753.706V765H495.492V749.15H498.056ZM515.722 745.312V749.15H518.681V751.245H515.722V761.074C515.722 761.709 515.854 762.188 516.117 762.51C516.381 762.822 516.83 762.979 517.465 762.979C517.777 762.979 518.207 762.92 518.754 762.803V765C518.041 765.195 517.348 765.293 516.674 765.293C515.463 765.293 514.55 764.927 513.935 764.194C513.319 763.462 513.012 762.422 513.012 761.074V751.245H510.126V749.15H513.012V745.312H515.722ZM380.78 797.7H390.888V800H377.953V778.672H380.78V797.7ZM392.953 791.929C392.953 790.376 393.256 788.979 393.861 787.739C394.477 786.499 395.326 785.542 396.41 784.868C397.504 784.194 398.749 783.857 400.146 783.857C402.304 783.857 404.047 784.604 405.375 786.099C406.713 787.593 407.382 789.58 407.382 792.061V792.251C407.382 793.794 407.084 795.181 406.488 796.411C405.902 797.632 405.058 798.584 403.954 799.268C402.86 799.951 401.601 800.293 400.175 800.293C398.026 800.293 396.283 799.546 394.945 798.052C393.617 796.558 392.953 794.58 392.953 792.119V791.929ZM395.678 792.251C395.678 794.009 396.083 795.42 396.894 796.484C397.714 797.549 398.808 798.081 400.175 798.081C401.552 798.081 402.646 797.544 403.456 796.47C404.267 795.386 404.672 793.872 404.672 791.929C404.672 790.19 404.257 788.784 403.427 787.71C402.606 786.626 401.513 786.084 400.146 786.084C398.808 786.084 397.729 786.616 396.908 787.681C396.088 788.745 395.678 790.269 395.678 792.251ZM417.138 798.081C418.104 798.081 418.949 797.788 419.672 797.202C420.395 796.616 420.795 795.884 420.873 795.005H423.437C423.388 795.913 423.075 796.777 422.499 797.598C421.923 798.418 421.151 799.072 420.185 799.561C419.228 800.049 418.212 800.293 417.138 800.293C414.979 800.293 413.261 799.575 411.981 798.14C410.712 796.694 410.077 794.722 410.077 792.222V791.768C410.077 790.225 410.36 788.853 410.927 787.651C411.493 786.45 412.304 785.518 413.358 784.854C414.423 784.189 415.678 783.857 417.123 783.857C418.9 783.857 420.375 784.39 421.547 785.454C422.729 786.519 423.358 787.9 423.437 789.6H420.873C420.795 788.574 420.404 787.734 419.701 787.08C419.008 786.416 418.148 786.084 417.123 786.084C415.746 786.084 414.677 786.582 413.915 787.578C413.163 788.564 412.787 789.995 412.787 791.87V792.383C412.787 794.209 413.163 795.615 413.915 796.602C414.667 797.588 415.741 798.081 417.138 798.081ZM436.269 800C436.112 799.688 435.985 799.131 435.888 798.33C434.628 799.639 433.124 800.293 431.376 800.293C429.813 800.293 428.529 799.854 427.523 798.975C426.527 798.086 426.029 796.963 426.029 795.605C426.029 793.955 426.654 792.676 427.904 791.768C429.164 790.85 430.932 790.391 433.207 790.391H435.844V789.146C435.844 788.198 435.561 787.446 434.994 786.89C434.428 786.323 433.593 786.04 432.489 786.04C431.522 786.04 430.712 786.284 430.058 786.772C429.403 787.261 429.076 787.852 429.076 788.545H426.352C426.352 787.754 426.63 786.992 427.187 786.26C427.753 785.518 428.515 784.932 429.472 784.502C430.438 784.072 431.498 783.857 432.65 783.857C434.477 783.857 435.907 784.316 436.942 785.234C437.978 786.143 438.515 787.397 438.554 788.999V796.294C438.554 797.749 438.739 798.906 439.11 799.766V800H436.269ZM431.771 797.935C432.621 797.935 433.427 797.715 434.188 797.275C434.95 796.836 435.502 796.265 435.844 795.562V792.31H433.72C430.399 792.31 428.739 793.281 428.739 795.225C428.739 796.074 429.022 796.738 429.589 797.217C430.155 797.695 430.883 797.935 431.771 797.935ZM446.479 780.312V784.15H449.438V786.245H446.479V796.074C446.479 796.709 446.61 797.188 446.874 797.51C447.138 797.822 447.587 797.979 448.222 797.979C448.534 797.979 448.964 797.92 449.511 797.803V800C448.798 800.195 448.104 800.293 447.431 800.293C446.22 800.293 445.307 799.927 444.691 799.194C444.076 798.462 443.769 797.422 443.769 796.074V786.245H440.883V784.15H443.769V780.312H446.479ZM455.561 800H452.851V784.15H455.561V800ZM452.631 779.946C452.631 779.507 452.763 779.136 453.026 778.833C453.3 778.53 453.7 778.379 454.228 778.379C454.755 778.379 455.155 778.53 455.429 778.833C455.702 779.136 455.839 779.507 455.839 779.946C455.839 780.386 455.702 780.752 455.429 781.045C455.155 781.338 454.755 781.484 454.228 781.484C453.7 781.484 453.3 781.338 453.026 781.045C452.763 780.752 452.631 780.386 452.631 779.946ZM459.193 791.929C459.193 790.376 459.496 788.979 460.102 787.739C460.717 786.499 461.566 785.542 462.65 784.868C463.744 784.194 464.989 783.857 466.386 783.857C468.544 783.857 470.287 784.604 471.615 786.099C472.953 787.593 473.622 789.58 473.622 792.061V792.251C473.622 793.794 473.324 795.181 472.729 796.411C472.143 797.632 471.298 798.584 470.194 799.268C469.101 799.951 467.841 800.293 466.415 800.293C464.267 800.293 462.523 799.546 461.186 798.052C459.857 796.558 459.193 794.58 459.193 792.119V791.929ZM461.918 792.251C461.918 794.009 462.323 795.42 463.134 796.484C463.954 797.549 465.048 798.081 466.415 798.081C467.792 798.081 468.886 797.544 469.696 796.47C470.507 795.386 470.912 793.872 470.912 791.929C470.912 790.19 470.497 788.784 469.667 787.71C468.847 786.626 467.753 786.084 466.386 786.084C465.048 786.084 463.969 786.616 463.148 787.681C462.328 788.745 461.918 790.269 461.918 792.251ZM479.584 784.15L479.672 786.143C480.883 784.619 482.465 783.857 484.418 783.857C487.768 783.857 489.457 785.747 489.486 789.526V800H486.776V789.512C486.767 788.369 486.503 787.524 485.985 786.978C485.478 786.431 484.682 786.157 483.598 786.157C482.719 786.157 481.947 786.392 481.283 786.86C480.619 787.329 480.102 787.944 479.73 788.706V800H477.021V784.15H479.584Z" fill="#5B5050"/>
<rect x="561" y="690" width="256" height="186" fill="#E5E5E5"/>
<path d="M648.147 776.232C647.884 778.488 647.049 780.231 645.643 781.462C644.246 782.683 642.386 783.293 640.062 783.293C637.542 783.293 635.521 782.39 633.997 780.583C632.483 778.776 631.727 776.359 631.727 773.332V771.281C631.727 769.299 632.078 767.556 632.781 766.052C633.494 764.548 634.5 763.396 635.799 762.595C637.098 761.784 638.602 761.379 640.311 761.379C642.576 761.379 644.393 762.014 645.76 763.283C647.127 764.543 647.923 766.291 648.147 768.527H645.32C645.076 766.828 644.544 765.598 643.724 764.836C642.913 764.074 641.775 763.693 640.311 763.693C638.514 763.693 637.103 764.357 636.077 765.686C635.062 767.014 634.554 768.903 634.554 771.354V773.42C634.554 775.734 635.037 777.575 636.004 778.942C636.971 780.31 638.323 780.993 640.062 780.993C641.624 780.993 642.82 780.642 643.65 779.938C644.49 779.226 645.047 777.99 645.32 776.232H648.147ZM661.36 783C661.204 782.688 661.077 782.131 660.979 781.33C659.72 782.639 658.216 783.293 656.468 783.293C654.905 783.293 653.621 782.854 652.615 781.975C651.619 781.086 651.121 779.963 651.121 778.605C651.121 776.955 651.746 775.676 652.996 774.768C654.256 773.85 656.023 773.391 658.299 773.391H660.936V772.146C660.936 771.198 660.652 770.446 660.086 769.89C659.52 769.323 658.685 769.04 657.581 769.04C656.614 769.04 655.804 769.284 655.149 769.772C654.495 770.261 654.168 770.852 654.168 771.545H651.443C651.443 770.754 651.722 769.992 652.278 769.26C652.845 768.518 653.606 767.932 654.563 767.502C655.53 767.072 656.59 766.857 657.742 766.857C659.568 766.857 660.999 767.316 662.034 768.234C663.069 769.143 663.606 770.397 663.646 771.999V779.294C663.646 780.749 663.831 781.906 664.202 782.766V783H661.36ZM656.863 780.935C657.713 780.935 658.519 780.715 659.28 780.275C660.042 779.836 660.594 779.265 660.936 778.562V775.31H658.812C655.491 775.31 653.831 776.281 653.831 778.225C653.831 779.074 654.114 779.738 654.681 780.217C655.247 780.695 655.975 780.935 656.863 780.935ZM670.838 783H668.128V760.5H670.838V783ZM681.766 783.293C679.617 783.293 677.869 782.59 676.521 781.184C675.174 779.768 674.5 777.878 674.5 775.515V775.017C674.5 773.444 674.798 772.043 675.394 770.812C675.999 769.572 676.839 768.605 677.913 767.912C678.997 767.209 680.169 766.857 681.429 766.857C683.489 766.857 685.091 767.536 686.233 768.894C687.376 770.251 687.947 772.194 687.947 774.724V775.852H677.21C677.249 777.414 677.703 778.679 678.572 779.646C679.451 780.603 680.564 781.081 681.912 781.081C682.869 781.081 683.68 780.886 684.344 780.495C685.008 780.104 685.589 779.587 686.087 778.942L687.742 780.231C686.414 782.272 684.422 783.293 681.766 783.293ZM681.429 769.084C680.335 769.084 679.417 769.484 678.675 770.285C677.933 771.076 677.474 772.189 677.298 773.625H685.237V773.42C685.159 772.043 684.788 770.979 684.124 770.227C683.46 769.465 682.562 769.084 681.429 769.084ZM693.66 767.15L693.748 769.143C694.959 767.619 696.541 766.857 698.494 766.857C701.844 766.857 703.533 768.747 703.562 772.526V783H700.853V772.512C700.843 771.369 700.579 770.524 700.062 769.978C699.554 769.431 698.758 769.157 697.674 769.157C696.795 769.157 696.023 769.392 695.359 769.86C694.695 770.329 694.178 770.944 693.807 771.706V783H691.097V767.15H693.66ZM706.99 774.943C706.99 772.512 707.566 770.559 708.719 769.084C709.871 767.6 711.38 766.857 713.245 766.857C715.101 766.857 716.57 767.492 717.654 768.762V760.5H720.364V783H717.874L717.742 781.301C716.658 782.629 715.149 783.293 713.216 783.293C711.38 783.293 709.881 782.541 708.719 781.037C707.566 779.533 706.99 777.57 706.99 775.148V774.943ZM709.7 775.251C709.7 777.048 710.071 778.454 710.813 779.47C711.556 780.485 712.581 780.993 713.89 780.993C715.608 780.993 716.863 780.222 717.654 778.679V771.398C716.844 769.904 715.599 769.157 713.919 769.157C712.591 769.157 711.556 769.67 710.813 770.695C710.071 771.721 709.7 773.239 709.7 775.251ZM734.368 783C734.212 782.688 734.085 782.131 733.987 781.33C732.728 782.639 731.224 783.293 729.476 783.293C727.913 783.293 726.629 782.854 725.623 781.975C724.627 781.086 724.129 779.963 724.129 778.605C724.129 776.955 724.754 775.676 726.004 774.768C727.264 773.85 729.031 773.391 731.307 773.391H733.943V772.146C733.943 771.198 733.66 770.446 733.094 769.89C732.527 769.323 731.692 769.04 730.589 769.04C729.622 769.04 728.812 769.284 728.157 769.772C727.503 770.261 727.176 770.852 727.176 771.545H724.451C724.451 770.754 724.729 769.992 725.286 769.26C725.853 768.518 726.614 767.932 727.571 767.502C728.538 767.072 729.598 766.857 730.75 766.857C732.576 766.857 734.007 767.316 735.042 768.234C736.077 769.143 736.614 770.397 736.653 771.999V779.294C736.653 780.749 736.839 781.906 737.21 782.766V783H734.368ZM729.871 780.935C730.721 780.935 731.526 780.715 732.288 780.275C733.05 779.836 733.602 779.265 733.943 778.562V775.31H731.819C728.499 775.31 726.839 776.281 726.839 778.225C726.839 779.074 727.122 779.738 727.688 780.217C728.255 780.695 728.982 780.935 729.871 780.935ZM748.562 769.582C748.152 769.514 747.708 769.479 747.229 769.479C745.452 769.479 744.246 770.236 743.611 771.75V783H740.901V767.15H743.538L743.582 768.981C744.471 767.565 745.73 766.857 747.361 766.857C747.889 766.857 748.289 766.926 748.562 767.062V769.582Z" fill="#5B5050"/>
<rect x="49" y="947" width="256" height="186" fill="#E5E5E5"/>
<path d="M121.602 1040H118.789V1018.67H121.602V1040ZM128.896 1024.15L128.984 1026.14C130.195 1024.62 131.777 1023.86 133.73 1023.86C137.08 1023.86 138.77 1025.75 138.799 1029.53V1040H136.089V1029.51C136.079 1028.37 135.815 1027.52 135.298 1026.98C134.79 1026.43 133.994 1026.16 132.91 1026.16C132.031 1026.16 131.26 1026.39 130.596 1026.86C129.932 1027.33 129.414 1027.94 129.043 1028.71V1040H126.333V1024.15H128.896ZM148.115 1036.32L152.041 1024.15H154.81L149.126 1040H147.061L141.318 1024.15H144.087L148.115 1036.32ZM163.789 1040.29C161.641 1040.29 159.893 1039.59 158.545 1038.18C157.197 1036.77 156.523 1034.88 156.523 1032.51V1032.02C156.523 1030.44 156.821 1029.04 157.417 1027.81C158.022 1026.57 158.862 1025.61 159.937 1024.91C161.021 1024.21 162.192 1023.86 163.452 1023.86C165.513 1023.86 167.114 1024.54 168.257 1025.89C169.399 1027.25 169.971 1029.19 169.971 1031.72V1032.85H159.233C159.272 1034.41 159.727 1035.68 160.596 1036.65C161.475 1037.6 162.588 1038.08 163.936 1038.08C164.893 1038.08 165.703 1037.89 166.367 1037.5C167.031 1037.1 167.612 1036.59 168.11 1035.94L169.766 1037.23C168.438 1039.27 166.445 1040.29 163.789 1040.29ZM163.452 1026.08C162.358 1026.08 161.44 1026.48 160.698 1027.29C159.956 1028.08 159.497 1029.19 159.321 1030.62H167.261V1030.42C167.183 1029.04 166.812 1027.98 166.147 1027.23C165.483 1026.46 164.585 1026.08 163.452 1026.08ZM175.684 1024.15L175.771 1026.14C176.982 1024.62 178.564 1023.86 180.518 1023.86C183.867 1023.86 185.557 1025.75 185.586 1029.53V1040H182.876V1029.51C182.866 1028.37 182.603 1027.52 182.085 1026.98C181.577 1026.43 180.781 1026.16 179.697 1026.16C178.818 1026.16 178.047 1026.39 177.383 1026.86C176.719 1027.33 176.201 1027.94 175.83 1028.71V1040H173.12V1024.15H175.684ZM193.35 1020.31V1024.15H196.309V1026.25H193.35V1036.07C193.35 1036.71 193.481 1037.19 193.745 1037.51C194.009 1037.82 194.458 1037.98 195.093 1037.98C195.405 1037.98 195.835 1037.92 196.382 1037.8V1040C195.669 1040.2 194.976 1040.29 194.302 1040.29C193.091 1040.29 192.178 1039.93 191.562 1039.19C190.947 1038.46 190.64 1037.42 190.64 1036.07V1026.25H187.754V1024.15H190.64V1020.31H193.35ZM198.477 1031.93C198.477 1030.38 198.779 1028.98 199.385 1027.74C200 1026.5 200.85 1025.54 201.934 1024.87C203.027 1024.19 204.272 1023.86 205.669 1023.86C207.827 1023.86 209.57 1024.6 210.898 1026.1C212.236 1027.59 212.905 1029.58 212.905 1032.06V1032.25C212.905 1033.79 212.607 1035.18 212.012 1036.41C211.426 1037.63 210.581 1038.58 209.478 1039.27C208.384 1039.95 207.124 1040.29 205.698 1040.29C203.55 1040.29 201.807 1039.55 200.469 1038.05C199.141 1036.56 198.477 1034.58 198.477 1032.12V1031.93ZM201.201 1032.25C201.201 1034.01 201.606 1035.42 202.417 1036.48C203.237 1037.55 204.331 1038.08 205.698 1038.08C207.075 1038.08 208.169 1037.54 208.979 1036.47C209.79 1035.39 210.195 1033.87 210.195 1031.93C210.195 1030.19 209.78 1028.78 208.95 1027.71C208.13 1026.63 207.036 1026.08 205.669 1026.08C204.331 1026.08 203.252 1026.62 202.432 1027.68C201.611 1028.75 201.201 1030.27 201.201 1032.25ZM223.965 1026.58C223.555 1026.51 223.11 1026.48 222.632 1026.48C220.854 1026.48 219.648 1027.24 219.014 1028.75V1040H216.304V1024.15H218.94L218.984 1025.98C219.873 1024.57 221.133 1023.86 222.764 1023.86C223.291 1023.86 223.691 1023.93 223.965 1024.06V1026.58ZM231.919 1036.03L235.61 1024.15H238.511L232.139 1042.45C231.152 1045.08 229.585 1046.4 227.437 1046.4L226.924 1046.36L225.913 1046.17V1043.97L226.646 1044.03C227.563 1044.03 228.276 1043.84 228.784 1043.47C229.302 1043.1 229.727 1042.42 230.059 1041.44L230.659 1039.82L225.005 1024.15H227.964L231.919 1036.03Z" fill="#5B5050"/>
</svg>
