<svg width="713" height="468" viewBox="0 0 713 468" fill="none" xmlns="http://www.w3.org/2000/svg">
<path d="M224.549 311.53C203.979 280.599 192.405 244.561 191.12 207.436C189.835 170.311 198.889 133.559 217.272 101.279C235.654 68.9997 262.644 42.4615 295.228 24.625C327.813 6.7885 364.712 -1.64497 401.81 0.265277L391.5 200.5L224.549 311.53Z" fill="#E3B8A6"/>
<path d="M564.327 300.422C546.805 330.904 521.575 356.243 491.168 373.896C460.762 391.549 426.248 400.896 391.088 400.999C355.929 401.102 321.361 391.958 290.851 374.484C260.341 357.009 234.963 331.819 217.262 301.441L390.5 200.5L564.327 300.422Z" fill="#FF6347"/>
<path d="M390.5 0C425.692 4.19655e-07 460.263 9.26249 490.741 26.8567C521.219 44.4508 546.529 69.7569 564.128 100.232C581.727 130.707 590.994 165.277 591 200.469C591.006 235.66 581.748 270.233 564.159 300.714L390.5 200.5L390.5 0Z" fill="#77C588"/>
<circle cx="390" cy="201" r="138" fill="white"/>
<path d="M306.063 209.54C312.423 209.54 314.013 204.62 314.013 201.08V187.76H311.853V200.84C311.853 204.26 310.383 207.62 306.063 207.62C301.743 207.62 300.273 204.26 300.273 200.84V187.76H298.113V201.08C298.113 204.62 299.703 209.54 306.063 209.54ZM329.942 197.12C329.042 195.53 326.972 194.6 325.022 194.6C322.472 194.6 320.012 195.83 320.012 198.68C320.012 201.35 322.382 202.07 324.032 202.46C326.702 203.09 328.172 203.69 328.172 205.16C328.172 206.99 326.612 207.62 324.872 207.62C323.222 207.62 321.692 206.66 320.972 205.43L319.352 206.63C320.642 208.52 322.772 209.36 324.902 209.36C327.482 209.36 330.182 208.22 330.182 205.01C330.182 202.82 328.622 201.59 325.322 200.9C323.012 200.42 321.962 199.82 321.962 198.5C321.962 196.94 323.462 196.31 324.932 196.31C326.492 196.31 327.782 197.12 328.382 198.29L329.942 197.12ZM336.882 200.9C337.062 198.5 339.072 196.31 341.802 196.31C344.712 196.31 346.332 198.26 346.452 200.9H336.882ZM348.522 201.56C348.522 197.72 346.212 194.6 341.802 194.6C337.812 194.6 334.722 197.75 334.722 201.98C334.722 206.21 337.812 209.36 341.982 209.36C344.292 209.36 346.362 208.49 348.012 206.39L346.482 205.19C345.702 206.45 344.082 207.62 341.982 207.62C339.102 207.62 336.912 205.34 336.852 202.52H348.492C348.522 202.16 348.522 201.83 348.522 201.56ZM354.41 198.05V209H356.45V201.8C356.45 198.05 358.4 196.49 360.56 196.49C361.1 196.49 361.76 196.58 362 196.67L362.27 194.75C361.85 194.63 361.43 194.6 360.92 194.6C358.94 194.6 357.2 195.74 356.42 197.36H356.36C356.36 196.76 356.3 195.71 356.24 194.96H354.29C354.38 195.92 354.41 197.3 354.41 198.05ZM381.661 194.96H378.361V191.36C378.361 189.32 378.811 187.76 381.001 187.76C381.541 187.76 381.991 187.85 382.411 187.97L382.771 186.17C382.261 186.02 381.601 185.96 381.091 185.96C377.881 185.96 376.321 187.94 376.321 191.12V194.96H373.381V196.67H376.321V209H378.361V196.67H381.661V194.96ZM386.068 198.05V209H388.108V201.8C388.108 198.05 390.058 196.49 392.218 196.49C392.758 196.49 393.418 196.58 393.658 196.67L393.928 194.75C393.508 194.63 393.088 194.6 392.578 194.6C390.598 194.6 388.858 195.74 388.078 197.36H388.018C388.018 196.76 387.958 195.71 387.898 194.96H385.948C386.038 195.92 386.068 197.3 386.068 198.05ZM400.449 194.96H398.409V209H400.449V194.96ZM400.869 189.56C400.869 188.72 400.149 188.12 399.429 188.12C398.709 188.12 397.989 188.72 397.989 189.56C397.989 190.4 398.709 191 399.429 191C400.149 191 400.869 190.4 400.869 189.56ZM408.519 200.9C408.699 198.5 410.709 196.31 413.439 196.31C416.349 196.31 417.969 198.26 418.089 200.9H408.519ZM420.159 201.56C420.159 197.72 417.849 194.6 413.439 194.6C409.449 194.6 406.359 197.75 406.359 201.98C406.359 206.21 409.449 209.36 413.619 209.36C415.929 209.36 417.999 208.49 419.649 206.39L418.119 205.19C417.339 206.45 415.719 207.62 413.619 207.62C410.739 207.62 408.549 205.34 408.489 202.52H420.129C420.159 202.16 420.159 201.83 420.159 201.56ZM425.927 194.96C426.017 195.92 426.047 197.3 426.047 198.05V209H428.087V201.8C428.087 198.05 430.187 196.31 432.347 196.31C435.287 196.31 436.157 198.29 436.157 201.23V209H438.197V200.39C438.197 196.91 436.427 194.6 432.857 194.6C430.877 194.6 428.837 195.74 428.057 197.36H427.997C427.997 196.76 427.937 195.71 427.877 194.96H425.927ZM456.528 206.63H456.588V209H458.628V186.32H456.588V197.39H456.528C455.328 195.56 453.228 194.6 451.218 194.6C446.838 194.6 443.958 197.84 443.958 201.98C443.958 206.12 446.838 209.36 451.218 209.36C453.228 209.36 455.328 208.4 456.528 206.63ZM446.118 201.98C446.118 198.86 448.038 196.31 451.428 196.31C454.578 196.31 456.828 198.77 456.828 201.98C456.828 205.19 454.578 207.62 451.428 207.62C448.038 207.62 446.118 205.1 446.118 201.98ZM467.68 186.32H465.64V209H467.68V186.32ZM474.698 194.96H472.418L478.418 208.97L477.278 211.91C476.678 213.5 475.958 214.4 474.578 214.4C474.038 214.4 473.528 214.31 473.078 214.16L472.868 216.02C473.468 216.14 474.098 216.2 474.698 216.2C477.128 216.2 478.268 214.79 479.108 212.63L486.098 194.96H483.878L479.528 206.81H479.468L474.698 194.96Z" fill="#5F4E4E"/>
<path d="M4.62588 183.3H2.37588V201H4.17588V185.775H4.22588L14.5259 201H16.7759V183.3H14.9759V198.375H14.9259L4.62588 183.3ZM23.5927 189.3H21.8927V201H23.5927V189.3ZM23.9427 184.8C23.9427 184.1 23.3427 183.6 22.7427 183.6C22.1427 183.6 21.5427 184.1 21.5427 184.8C21.5427 185.5 22.1427 186 22.7427 186C23.3427 186 23.9427 185.5 23.9427 184.8ZM28.0177 204.65C29.3927 206.1 31.4927 207 33.6427 207C38.8177 207 39.9927 203.45 39.9927 200.9V189.3H38.2927V191.325H38.2427C37.3177 189.825 35.5177 189 33.8177 189C30.1677 189 27.7677 191.725 27.7677 195.05C27.7677 198.475 30.1677 201 33.8177 201C35.5177 201 37.3427 200.15 38.2427 198.7H38.2927V200.9C38.2927 203.425 37.0677 205.5 33.7177 205.5C31.9427 205.5 30.1677 204.55 29.2427 203.35L28.0177 204.65ZM29.5677 195C29.5677 192.55 31.1677 190.425 33.9927 190.425C36.6177 190.425 38.4927 192.55 38.4927 195C38.4927 197.7 36.6177 199.55 33.9927 199.55C31.1677 199.55 29.5677 197.45 29.5677 195ZM46.6636 191.225V182.1H44.9636V201H46.6636V195C46.6636 191.875 48.4136 190.425 50.2136 190.425C52.6636 190.425 53.3886 192.075 53.3886 194.525V201H55.0886V193.825C55.0886 190.925 53.6136 189 50.6386 189C48.9886 189 47.3386 189.875 46.7136 191.225H46.6636ZM65.2638 189.3H61.9638V186H60.2638V189.3H57.8388V190.725H60.2638V198.025C60.2638 200.6 62.0138 201.15 63.2638 201.15C64.0388 201.15 64.6638 201.025 65.2638 200.8L65.1888 199.325C64.7388 199.55 64.1888 199.7 63.7138 199.7C62.6888 199.7 61.9638 199.3 61.9638 197.55V190.725H65.2638V189.3ZM70.0983 191.3H70.0483C70.0483 190.8 69.9983 189.925 69.9483 189.3H68.3233C68.3983 190.1 68.4233 191.25 68.4233 191.875V201H70.1233V195C70.1233 191.875 71.8983 190.425 73.5233 190.425C75.7983 190.425 76.3483 191.9 76.3483 194.175V201H78.0483V194.775C78.0483 192.6 78.9233 190.425 81.3733 190.425C83.5733 190.425 84.3983 192.075 84.3983 194.525V201H86.0983V193.825C86.0983 190.925 84.6233 189 81.6483 189C79.7733 189 78.3483 189.875 77.5483 191.475C76.7733 189.475 75.2233 189 73.9483 189C72.2733 189 70.7733 189.95 70.0983 191.3ZM98.3687 193.825C94.0937 193.825 90.1187 194.15 90.1187 197.75C90.1187 200.35 92.3937 201.3 94.1687 201.3C96.0437 201.3 97.3437 200.65 98.4187 199.1H98.4687C98.4687 199.725 98.5437 200.425 98.6437 201H100.169C100.044 200.35 99.9687 199.275 99.9687 198.375V193.25C99.9687 190.4 97.9437 189 95.4187 189C93.4187 189 91.7687 189.725 90.8187 190.675L91.7687 191.8C92.5937 190.975 93.8687 190.425 95.2437 190.425C97.2687 190.425 98.3687 191.425 98.3687 193.45V193.825ZM98.3687 195.15V196.025C98.3687 198.1 97.0187 199.9 94.6187 199.9C93.2937 199.9 91.8687 199.35 91.8687 197.675C91.8687 195.45 95.0937 195.15 97.8687 195.15H98.3687ZM104.848 191.875V201H106.548V195C106.548 191.875 108.173 190.575 109.973 190.575C110.423 190.575 110.973 190.65 111.173 190.725L111.398 189.125C111.048 189.025 110.698 189 110.273 189C108.623 189 107.173 189.95 106.523 191.3H106.473C106.473 190.8 106.423 189.925 106.373 189.3H104.748C104.823 190.1 104.848 191.25 104.848 191.875ZM114.867 194.25C115.017 192.25 116.692 190.425 118.967 190.425C121.392 190.425 122.742 192.05 122.842 194.25H114.867ZM124.567 194.8C124.567 191.6 122.642 189 118.967 189C115.642 189 113.067 191.625 113.067 195.15C113.067 198.675 115.642 201.3 119.117 201.3C121.042 201.3 122.767 200.575 124.142 198.825L122.867 197.825C122.217 198.875 120.867 199.85 119.117 199.85C116.717 199.85 114.892 197.95 114.842 195.6H124.542C124.567 195.3 124.567 195.025 124.567 194.8ZM31.9374 232.5H32.7124C35.0374 232.5 37.3124 233.425 37.3124 236.1C37.3124 238.475 35.4374 239.9 33.4124 239.9C31.6124 239.9 30.1124 238.875 29.5124 237.2L27.8124 237.825C28.8124 240.15 30.8374 241.45 33.4124 241.45C36.4874 241.45 39.1124 239.475 39.1124 236.1C39.1124 233.725 37.5624 232.125 35.5374 231.7V231.65C37.2874 231.175 38.6124 229.675 38.6124 227.6C38.6124 224.525 36.2124 222.85 33.4374 222.85C31.2874 222.85 29.5374 223.75 28.4374 225.65L29.9624 226.45C30.6624 225.1 31.8624 224.375 33.3374 224.375C35.2374 224.375 36.8374 225.725 36.8374 227.7C36.8374 230.05 34.9874 230.95 32.7124 230.95H31.9374V232.5ZM46.9394 232.5H47.7144C50.0394 232.5 52.3144 233.425 52.3144 236.1C52.3144 238.475 50.4394 239.9 48.4144 239.9C46.6144 239.9 45.1144 238.875 44.5144 237.2L42.8144 237.825C43.8144 240.15 45.8394 241.45 48.4144 241.45C51.4894 241.45 54.1144 239.475 54.1144 236.1C54.1144 233.725 52.5644 232.125 50.5394 231.7V231.65C52.2894 231.175 53.6144 229.675 53.6144 227.6C53.6144 224.525 51.2144 222.85 48.4394 222.85C46.2894 222.85 44.5394 223.75 43.4394 225.65L44.9644 226.45C45.6644 225.1 46.8644 224.375 48.3394 224.375C50.2394 224.375 51.8394 225.725 51.8394 227.7C51.8394 230.05 49.9894 230.95 47.7144 230.95H46.9394V232.5ZM61.1913 239.8C61.1913 239.1 60.6413 238.45 59.8413 238.45C59.0413 238.45 58.4913 239.1 58.4913 239.8C58.4913 240.5 59.0413 241.15 59.8413 241.15C60.6413 241.15 61.1913 240.5 61.1913 239.8ZM68.9354 232.5H69.7104C72.0354 232.5 74.3104 233.425 74.3104 236.1C74.3104 238.475 72.4354 239.9 70.4104 239.9C68.6104 239.9 67.1104 238.875 66.5104 237.2L64.8104 237.825C65.8104 240.15 67.8354 241.45 70.4104 241.45C73.4854 241.45 76.1105 239.475 76.1105 236.1C76.1105 233.725 74.5604 232.125 72.5354 231.7V231.65C74.2855 231.175 75.6105 229.675 75.6105 227.6C75.6105 224.525 73.2104 222.85 70.4354 222.85C68.2854 222.85 66.5354 223.75 65.4354 225.65L66.9604 226.45C67.6604 225.1 68.8604 224.375 70.3354 224.375C72.2354 224.375 73.8354 225.725 73.8354 227.7C73.8354 230.05 71.9854 230.95 69.7104 230.95H68.9354V232.5ZM88.3374 227.375C88.3374 224.925 86.4124 223 83.9374 223C81.4624 223 79.5374 224.925 79.5374 227.375C79.5374 229.825 81.4624 231.75 83.9374 231.75C86.4124 231.75 88.3374 229.825 88.3374 227.375ZM86.8374 227.375C86.8374 229.025 85.5124 230.25 83.9374 230.25C82.3624 230.25 81.0374 229.025 81.0374 227.375C81.0374 225.725 82.3624 224.5 83.9374 224.5C85.5124 224.5 86.8374 225.725 86.8374 227.375ZM98.4624 236.925C98.4624 234.475 96.5374 232.55 94.0624 232.55C91.5874 232.55 89.6624 234.475 89.6624 236.925C89.6624 239.375 91.5874 241.3 94.0624 241.3C96.5374 241.3 98.4624 239.375 98.4624 236.925ZM96.9624 236.925C96.9624 238.575 95.6374 239.8 94.0624 239.8C92.4874 239.8 91.1624 238.575 91.1624 236.925C91.1624 235.275 92.4874 234.05 94.0624 234.05C95.6374 234.05 96.9624 235.275 96.9624 236.925ZM95.2624 223.2L93.9874 222.525L82.7124 241.1L84.0124 241.775L95.2624 223.2Z" fill="#5F4E4E"/>
<path d="M659.792 23.225C658.292 21.75 656.192 20.85 653.392 20.85C648.117 20.85 644.167 24.775 644.167 30.15C644.167 35.525 648.042 39.45 653.392 39.45C655.792 39.45 658.067 38.875 659.992 37.725V29.75H654.067V31.325H658.192V36.7C657.167 37.375 655.417 37.85 653.417 37.85C648.867 37.85 646.067 34.275 646.067 30.15C646.067 26.025 648.867 22.425 653.417 22.425C655.617 22.425 657.317 23.175 658.542 24.475L659.792 23.225ZM676.624 33.15C676.624 29.625 674.024 27 670.374 27C666.749 27 664.149 29.625 664.149 33.15C664.149 36.675 666.749 39.3 670.374 39.3C674.024 39.3 676.624 36.675 676.624 33.15ZM674.824 33.15C674.824 35.775 673.099 37.85 670.374 37.85C667.674 37.85 665.949 35.775 665.949 33.15C665.949 30.525 667.674 28.425 670.374 28.425C673.099 28.425 674.824 30.525 674.824 33.15ZM692.407 33.15C692.407 29.625 689.807 27 686.157 27C682.532 27 679.932 29.625 679.932 33.15C679.932 36.675 682.532 39.3 686.157 39.3C689.807 39.3 692.407 36.675 692.407 33.15ZM690.607 33.15C690.607 35.775 688.882 37.85 686.157 37.85C683.457 37.85 681.732 35.775 681.732 33.15C681.732 30.525 683.457 28.425 686.157 28.425C688.882 28.425 690.607 30.525 690.607 33.15ZM706.19 37.025H706.24V39H707.94V20.1H706.24V29.325H706.19C705.19 27.8 703.44 27 701.765 27C698.115 27 695.715 29.7 695.715 33.15C695.715 36.6 698.115 39.3 701.765 39.3C703.44 39.3 705.19 38.5 706.19 37.025ZM697.515 33.15C697.515 30.55 699.115 28.425 701.94 28.425C704.565 28.425 706.44 30.475 706.44 33.15C706.44 35.825 704.565 37.85 701.94 37.85C699.115 37.85 697.515 35.75 697.515 33.15ZM645.437 70.5H646.212C648.537 70.5 650.812 71.425 650.812 74.1C650.812 76.475 648.937 77.9 646.912 77.9C645.112 77.9 643.612 76.875 643.012 75.2L641.312 75.825C642.312 78.15 644.337 79.45 646.912 79.45C649.987 79.45 652.612 77.475 652.612 74.1C652.612 71.725 651.062 70.125 649.037 69.7V69.65C650.787 69.175 652.112 67.675 652.112 65.6C652.112 62.525 649.712 60.85 646.937 60.85C644.787 60.85 643.037 61.75 641.937 63.65L643.462 64.45C644.162 63.1 645.362 62.375 646.837 62.375C648.737 62.375 650.337 63.725 650.337 65.7C650.337 68.05 648.487 68.95 646.212 68.95H645.437V70.5ZM660.439 70.5H661.214C663.539 70.5 665.814 71.425 665.814 74.1C665.814 76.475 663.939 77.9 661.914 77.9C660.114 77.9 658.614 76.875 658.014 75.2L656.314 75.825C657.314 78.15 659.339 79.45 661.914 79.45C664.989 79.45 667.614 77.475 667.614 74.1C667.614 71.725 666.064 70.125 664.039 69.7V69.65C665.789 69.175 667.114 67.675 667.114 65.6C667.114 62.525 664.714 60.85 661.939 60.85C659.789 60.85 658.039 61.75 656.939 63.65L658.464 64.45C659.164 63.1 660.364 62.375 661.839 62.375C663.739 62.375 665.339 63.725 665.339 65.7C665.339 68.05 663.489 68.95 661.214 68.95H660.439V70.5ZM674.691 77.8C674.691 77.1 674.141 76.45 673.341 76.45C672.541 76.45 671.991 77.1 671.991 77.8C671.991 78.5 672.541 79.15 673.341 79.15C674.141 79.15 674.691 78.5 674.691 77.8ZM682.435 70.5H683.21C685.535 70.5 687.81 71.425 687.81 74.1C687.81 76.475 685.935 77.9 683.91 77.9C682.11 77.9 680.61 76.875 680.01 75.2L678.31 75.825C679.31 78.15 681.335 79.45 683.91 79.45C686.985 79.45 689.61 77.475 689.61 74.1C689.61 71.725 688.06 70.125 686.035 69.7V69.65C687.785 69.175 689.11 67.675 689.11 65.6C689.11 62.525 686.71 60.85 683.935 60.85C681.785 60.85 680.035 61.75 678.935 63.65L680.46 64.45C681.16 63.1 682.36 62.375 683.835 62.375C685.735 62.375 687.335 63.725 687.335 65.7C687.335 68.05 685.485 68.95 683.21 68.95H682.435V70.5ZM701.837 65.375C701.837 62.925 699.912 61 697.437 61C694.962 61 693.037 62.925 693.037 65.375C693.037 67.825 694.962 69.75 697.437 69.75C699.912 69.75 701.837 67.825 701.837 65.375ZM700.337 65.375C700.337 67.025 699.012 68.25 697.437 68.25C695.862 68.25 694.537 67.025 694.537 65.375C694.537 63.725 695.862 62.5 697.437 62.5C699.012 62.5 700.337 63.725 700.337 65.375ZM711.962 74.925C711.962 72.475 710.037 70.55 707.562 70.55C705.087 70.55 703.162 72.475 703.162 74.925C703.162 77.375 705.087 79.3 707.562 79.3C710.037 79.3 711.962 77.375 711.962 74.925ZM710.462 74.925C710.462 76.575 709.137 77.8 707.562 77.8C705.987 77.8 704.662 76.575 704.662 74.925C704.662 73.275 705.987 72.05 707.562 72.05C709.137 72.05 710.462 73.275 710.462 74.925ZM708.762 61.2L707.487 60.525L696.212 79.1L697.512 79.775L708.762 61.2Z" fill="#5F4E4E"/>
<path d="M599.587 396.3H596.837V414H598.637V398.625H598.687L605.087 414H606.037L612.437 398.625H612.487V414H614.287V396.3H611.537L605.612 410.95H605.587L599.587 396.3ZM620.331 407.25C620.481 405.25 622.156 403.425 624.431 403.425C626.856 403.425 628.206 405.05 628.306 407.25H620.331ZM630.031 407.8C630.031 404.6 628.106 402 624.431 402C621.106 402 618.531 404.625 618.531 408.15C618.531 411.675 621.106 414.3 624.581 414.3C626.506 414.3 628.231 413.575 629.606 411.825L628.331 410.825C627.681 411.875 626.331 412.85 624.581 412.85C622.181 412.85 620.356 410.95 620.306 408.6H630.006C630.031 408.3 630.031 408.025 630.031 407.8ZM635.938 404.225V395.1H634.238V414H635.938V408C635.938 404.875 637.688 403.425 639.488 403.425C641.938 403.425 642.663 405.075 642.663 407.525V414H644.363V406.825C644.363 403.925 642.888 402 639.913 402C638.263 402 636.613 402.875 635.988 404.225H635.938ZM589.437 445.5H590.212C592.537 445.5 594.812 446.425 594.812 449.1C594.812 451.475 592.937 452.9 590.912 452.9C589.112 452.9 587.612 451.875 587.012 450.2L585.312 450.825C586.312 453.15 588.337 454.45 590.912 454.45C593.987 454.45 596.612 452.475 596.612 449.1C596.612 446.725 595.062 445.125 593.037 444.7V444.65C594.787 444.175 596.112 442.675 596.112 440.6C596.112 437.525 593.712 435.85 590.937 435.85C588.787 435.85 587.037 436.75 585.937 438.65L587.462 439.45C588.162 438.1 589.362 437.375 590.837 437.375C592.737 437.375 594.337 438.725 594.337 440.7C594.337 443.05 592.487 443.95 590.212 443.95H589.437V445.5ZM604.439 445.5H605.214C607.539 445.5 609.814 446.425 609.814 449.1C609.814 451.475 607.939 452.9 605.914 452.9C604.114 452.9 602.614 451.875 602.014 450.2L600.314 450.825C601.314 453.15 603.339 454.45 605.914 454.45C608.989 454.45 611.614 452.475 611.614 449.1C611.614 446.725 610.064 445.125 608.039 444.7V444.65C609.789 444.175 611.114 442.675 611.114 440.6C611.114 437.525 608.714 435.85 605.939 435.85C603.789 435.85 602.039 436.75 600.939 438.65L602.464 439.45C603.164 438.1 604.364 437.375 605.839 437.375C607.739 437.375 609.339 438.725 609.339 440.7C609.339 443.05 607.489 443.95 605.214 443.95H604.439V445.5ZM618.691 452.8C618.691 452.1 618.141 451.45 617.341 451.45C616.541 451.45 615.991 452.1 615.991 452.8C615.991 453.5 616.541 454.15 617.341 454.15C618.141 454.15 618.691 453.5 618.691 452.8ZM626.435 445.5H627.21C629.535 445.5 631.81 446.425 631.81 449.1C631.81 451.475 629.935 452.9 627.91 452.9C626.11 452.9 624.61 451.875 624.01 450.2L622.31 450.825C623.31 453.15 625.335 454.45 627.91 454.45C630.985 454.45 633.61 452.475 633.61 449.1C633.61 446.725 632.06 445.125 630.035 444.7V444.65C631.785 444.175 633.11 442.675 633.11 440.6C633.11 437.525 630.71 435.85 627.935 435.85C625.785 435.85 624.035 436.75 622.935 438.65L624.46 439.45C625.16 438.1 626.36 437.375 627.835 437.375C629.735 437.375 631.335 438.725 631.335 440.7C631.335 443.05 629.485 443.95 627.21 443.95H626.435V445.5ZM645.837 440.375C645.837 437.925 643.912 436 641.437 436C638.962 436 637.037 437.925 637.037 440.375C637.037 442.825 638.962 444.75 641.437 444.75C643.912 444.75 645.837 442.825 645.837 440.375ZM644.337 440.375C644.337 442.025 643.012 443.25 641.437 443.25C639.862 443.25 638.537 442.025 638.537 440.375C638.537 438.725 639.862 437.5 641.437 437.5C643.012 437.5 644.337 438.725 644.337 440.375ZM655.962 449.925C655.962 447.475 654.037 445.55 651.562 445.55C649.087 445.55 647.162 447.475 647.162 449.925C647.162 452.375 649.087 454.3 651.562 454.3C654.037 454.3 655.962 452.375 655.962 449.925ZM654.462 449.925C654.462 451.575 653.137 452.8 651.562 452.8C649.987 452.8 648.662 451.575 648.662 449.925C648.662 448.275 649.987 447.05 651.562 447.05C653.137 447.05 654.462 448.275 654.462 449.925ZM652.762 436.2L651.487 435.525L640.212 454.1L641.512 454.775L652.762 436.2Z" fill="#5F4E4E"/>
</svg>
