<svg width="508" height="414" viewBox="0 0 508 414" fill="none" xmlns="http://www.w3.org/2000/svg">
<rect width="508" height="414" fill="#F6EFE7" fill-opacity="0.8"/>
<path d="M209.357 187H206.91V172.908C206.91 171.795 206.979 170.433 207.115 168.821H207.057C206.822 169.769 206.613 170.447 206.427 170.857L199.249 187H198.048L190.885 170.975C190.68 170.506 190.47 169.788 190.255 168.821H190.196C190.275 169.661 190.314 171.033 190.314 172.938V187H187.941V165.994H191.193L197.638 180.643C198.136 181.766 198.458 182.605 198.605 183.162H198.693C199.113 182.01 199.449 181.15 199.703 180.584L206.28 165.994H209.357V187ZM216.402 168.191C215.972 168.191 215.606 168.045 215.303 167.752C215.001 167.459 214.849 167.088 214.849 166.639C214.849 166.189 215.001 165.818 215.303 165.525C215.606 165.223 215.972 165.071 216.402 165.071C216.841 165.071 217.213 165.223 217.515 165.525C217.828 165.818 217.984 166.189 217.984 166.639C217.984 167.068 217.828 167.435 217.515 167.737C217.213 168.04 216.841 168.191 216.402 168.191ZM217.574 187H215.171V172H217.574V187ZM233.262 186.312C232.109 187.005 230.742 187.352 229.16 187.352C227.021 187.352 225.293 186.658 223.975 185.271C222.666 183.875 222.012 182.068 222.012 179.852C222.012 177.381 222.72 175.398 224.136 173.904C225.552 172.4 227.441 171.648 229.805 171.648C231.123 171.648 232.285 171.893 233.291 172.381V174.842C232.178 174.061 230.986 173.67 229.717 173.67C228.184 173.67 226.924 174.222 225.938 175.325C224.961 176.419 224.473 177.859 224.473 179.646C224.473 181.404 224.932 182.791 225.85 183.807C226.777 184.822 228.018 185.33 229.57 185.33C230.879 185.33 232.109 184.896 233.262 184.026V186.312ZM245.317 174.432C244.897 174.109 244.291 173.948 243.5 173.948C242.475 173.948 241.616 174.432 240.922 175.398C240.239 176.365 239.897 177.684 239.897 179.354V187H237.495V172H239.897V175.091H239.955C240.297 174.036 240.82 173.216 241.523 172.63C242.226 172.034 243.012 171.736 243.881 171.736C244.506 171.736 244.985 171.805 245.317 171.941V174.432ZM254.794 187.352C252.577 187.352 250.805 186.653 249.476 185.257C248.158 183.851 247.499 181.99 247.499 179.676C247.499 177.156 248.187 175.188 249.564 173.772C250.941 172.356 252.802 171.648 255.145 171.648C257.382 171.648 259.125 172.337 260.375 173.714C261.635 175.091 262.264 177 262.264 179.441C262.264 181.834 261.586 183.753 260.228 185.198C258.881 186.634 257.069 187.352 254.794 187.352ZM254.97 173.67C253.427 173.67 252.206 174.197 251.307 175.252C250.409 176.297 249.96 177.742 249.96 179.588C249.96 181.365 250.414 182.767 251.322 183.792C252.23 184.817 253.446 185.33 254.97 185.33C256.522 185.33 257.714 184.827 258.544 183.821C259.384 182.815 259.804 181.385 259.804 179.529C259.804 177.654 259.384 176.209 258.544 175.193C257.714 174.178 256.522 173.67 254.97 173.67ZM265.794 186.458V183.88C267.103 184.847 268.543 185.33 270.115 185.33C272.225 185.33 273.279 184.627 273.279 183.221C273.279 182.82 273.187 182.483 273.001 182.21C272.825 181.927 272.581 181.678 272.269 181.463C271.966 181.248 271.605 181.058 271.185 180.892C270.775 180.716 270.33 180.535 269.852 180.35C269.188 180.086 268.602 179.822 268.094 179.559C267.596 179.285 267.176 178.982 266.834 178.65C266.502 178.309 266.248 177.923 266.072 177.493C265.906 177.063 265.823 176.561 265.823 175.984C265.823 175.281 265.985 174.661 266.307 174.124C266.629 173.577 267.059 173.123 267.596 172.762C268.133 172.391 268.743 172.112 269.427 171.927C270.12 171.741 270.833 171.648 271.566 171.648C272.864 171.648 274.027 171.873 275.052 172.322V174.754C273.948 174.031 272.679 173.67 271.243 173.67C270.794 173.67 270.389 173.724 270.028 173.831C269.666 173.929 269.354 174.07 269.09 174.256C268.836 174.441 268.636 174.666 268.489 174.93C268.353 175.184 268.284 175.467 268.284 175.779C268.284 176.17 268.353 176.497 268.489 176.761C268.636 177.024 268.846 177.259 269.119 177.464C269.393 177.669 269.725 177.854 270.115 178.021C270.506 178.187 270.95 178.367 271.448 178.562C272.113 178.816 272.708 179.08 273.236 179.354C273.763 179.617 274.212 179.92 274.583 180.262C274.954 180.594 275.238 180.979 275.433 181.419C275.638 181.858 275.74 182.381 275.74 182.986C275.74 183.729 275.574 184.373 275.242 184.92C274.92 185.467 274.486 185.921 273.939 186.282C273.392 186.644 272.762 186.912 272.049 187.088C271.336 187.264 270.589 187.352 269.808 187.352C268.265 187.352 266.927 187.054 265.794 186.458ZM286.316 187.352C284.099 187.352 282.327 186.653 280.999 185.257C279.68 183.851 279.021 181.99 279.021 179.676C279.021 177.156 279.71 175.188 281.087 173.772C282.463 172.356 284.324 171.648 286.668 171.648C288.904 171.648 290.647 172.337 291.897 173.714C293.157 175.091 293.787 177 293.787 179.441C293.787 181.834 293.108 183.753 291.751 185.198C290.403 186.634 288.591 187.352 286.316 187.352ZM286.492 173.67C284.949 173.67 283.728 174.197 282.83 175.252C281.931 176.297 281.482 177.742 281.482 179.588C281.482 181.365 281.936 182.767 282.844 183.792C283.753 184.817 284.968 185.33 286.492 185.33C288.045 185.33 289.236 184.827 290.066 183.821C290.906 182.815 291.326 181.385 291.326 179.529C291.326 177.654 290.906 176.209 290.066 175.193C289.236 174.178 288.045 173.67 286.492 173.67ZM305.637 166.902C305.168 166.639 304.636 166.507 304.04 166.507C302.36 166.507 301.521 167.566 301.521 169.686V172H305.036V174.051H301.521V187H299.133V174.051H296.569V172H299.133V169.568C299.133 167.996 299.587 166.756 300.495 165.848C301.403 164.93 302.536 164.471 303.894 164.471C304.626 164.471 305.207 164.559 305.637 164.734V166.902ZM315.187 186.854C314.621 187.166 313.873 187.322 312.946 187.322C310.319 187.322 309.005 185.857 309.005 182.928V174.051H306.427V172H309.005V168.338L311.408 167.562V172H315.187V174.051H311.408V182.503C311.408 183.509 311.579 184.227 311.92 184.656C312.262 185.086 312.829 185.301 313.62 185.301C314.225 185.301 314.747 185.135 315.187 184.803V186.854Z" fill="#242424"/>
<path d="M133.661 248.656C129.52 250.844 124.364 251.938 118.192 251.938C110.223 251.938 103.843 249.372 99.0516 244.242C94.2599 239.112 91.8641 232.38 91.8641 224.047C91.8641 215.089 94.5594 207.849 99.95 202.328C105.341 196.807 112.177 194.047 120.458 194.047C125.77 194.047 130.171 194.815 133.661 196.352V203.344C129.651 201.104 125.223 199.984 120.38 199.984C113.947 199.984 108.726 202.133 104.716 206.43C100.731 210.727 98.7391 216.469 98.7391 223.656C98.7391 230.479 100.601 235.922 104.325 239.984C108.075 244.021 112.984 246.039 119.052 246.039C124.677 246.039 129.546 244.789 133.661 242.289V248.656ZM162.527 251.938C156.615 251.938 151.889 250.076 148.347 246.352C144.831 242.602 143.073 237.641 143.073 231.469C143.073 224.75 144.909 219.503 148.581 215.727C152.253 211.951 157.214 210.062 163.464 210.062C169.428 210.062 174.076 211.898 177.409 215.57C180.769 219.242 182.448 224.333 182.448 230.844C182.448 237.224 180.639 242.341 177.019 246.195C173.425 250.023 168.594 251.938 162.527 251.938ZM162.995 215.453C158.881 215.453 155.626 216.859 153.23 219.672C150.834 222.458 149.636 226.312 149.636 231.234C149.636 235.974 150.847 239.711 153.269 242.445C155.691 245.18 158.933 246.547 162.995 246.547C167.136 246.547 170.313 245.206 172.527 242.523C174.766 239.841 175.886 236.026 175.886 231.078C175.886 226.078 174.766 222.224 172.527 219.516C170.313 216.807 167.136 215.453 162.995 215.453ZM251.08 251H244.673V228.031C244.673 223.604 243.983 220.401 242.603 218.422C241.249 216.443 238.957 215.453 235.728 215.453C232.994 215.453 230.663 216.703 228.736 219.203C226.835 221.703 225.884 224.698 225.884 228.188V251H219.478V227.25C219.478 219.385 216.444 215.453 210.377 215.453C207.564 215.453 205.246 216.638 203.423 219.008C201.601 221.352 200.689 224.411 200.689 228.188V251H194.283V211H200.689V217.328H200.845C203.684 212.484 207.824 210.062 213.267 210.062C216.002 210.062 218.384 210.831 220.416 212.367C222.447 213.878 223.84 215.87 224.595 218.344C227.564 212.823 231.991 210.062 237.877 210.062C246.679 210.062 251.08 215.492 251.08 226.352V251ZM271.352 245.219H271.195V269.398H264.789V211H271.195V218.031H271.352C274.503 212.719 279.112 210.062 285.18 210.062C290.336 210.062 294.359 211.859 297.25 215.453C300.141 219.021 301.586 223.812 301.586 229.828C301.586 236.521 299.958 241.885 296.703 245.922C293.448 249.932 288.995 251.938 283.344 251.938C278.161 251.938 274.164 249.698 271.352 245.219ZM271.195 229.086V234.672C271.195 237.979 272.263 240.792 274.398 243.109C276.56 245.401 279.294 246.547 282.602 246.547C286.482 246.547 289.516 245.062 291.703 242.094C293.917 239.125 295.023 234.997 295.023 229.711C295.023 225.258 293.995 221.768 291.938 219.242C289.88 216.716 287.094 215.453 283.578 215.453C279.854 215.453 276.859 216.755 274.594 219.359C272.328 221.938 271.195 225.18 271.195 229.086ZM342.053 251H335.647V244.75H335.491C332.704 249.542 328.603 251.938 323.186 251.938C319.202 251.938 316.077 250.883 313.811 248.773C311.571 246.664 310.452 243.865 310.452 240.375C310.452 232.901 314.853 228.552 323.655 227.328L335.647 225.648C335.647 218.852 332.899 215.453 327.405 215.453C322.587 215.453 318.238 217.094 314.358 220.375V213.812C318.29 211.312 322.821 210.062 327.952 210.062C337.353 210.062 342.053 215.036 342.053 224.984V251ZM335.647 230.766L325.998 232.094C323.03 232.51 320.79 233.253 319.28 234.32C317.769 235.362 317.014 237.224 317.014 239.906C317.014 241.859 317.704 243.461 319.084 244.711C320.491 245.935 322.353 246.547 324.67 246.547C327.847 246.547 330.465 245.44 332.522 243.227C334.605 240.987 335.647 238.161 335.647 234.75V230.766ZM353.302 249.555V242.68C356.791 245.258 360.632 246.547 364.825 246.547C370.45 246.547 373.263 244.672 373.263 240.922C373.263 239.854 373.015 238.956 372.52 238.227C372.052 237.471 371.401 236.807 370.567 236.234C369.76 235.661 368.796 235.154 367.677 234.711C366.583 234.242 365.398 233.76 364.122 233.266C362.351 232.562 360.789 231.859 359.434 231.156C358.106 230.427 356.986 229.62 356.075 228.734C355.19 227.823 354.513 226.794 354.044 225.648C353.601 224.503 353.38 223.161 353.38 221.625C353.38 219.75 353.809 218.096 354.669 216.664C355.528 215.206 356.674 213.995 358.106 213.031C359.539 212.042 361.166 211.299 362.989 210.805C364.838 210.31 366.739 210.062 368.692 210.062C372.156 210.062 375.255 210.661 377.989 211.859V218.344C375.046 216.417 371.661 215.453 367.833 215.453C366.635 215.453 365.554 215.596 364.591 215.883C363.627 216.143 362.794 216.521 362.091 217.016C361.414 217.51 360.88 218.109 360.489 218.812C360.124 219.49 359.942 220.245 359.942 221.078C359.942 222.12 360.124 222.992 360.489 223.695C360.88 224.398 361.44 225.023 362.169 225.57C362.898 226.117 363.783 226.612 364.825 227.055C365.867 227.497 367.052 227.979 368.38 228.5C370.151 229.177 371.739 229.88 373.145 230.609C374.552 231.312 375.749 232.12 376.739 233.031C377.729 233.917 378.484 234.945 379.005 236.117C379.552 237.289 379.825 238.682 379.825 240.297C379.825 242.276 379.382 243.995 378.497 245.453C377.638 246.911 376.479 248.122 375.02 249.086C373.562 250.049 371.882 250.766 369.981 251.234C368.08 251.703 366.088 251.938 364.005 251.938C359.89 251.938 356.322 251.143 353.302 249.555ZM388.886 249.555V242.68C392.376 245.258 396.217 246.547 400.409 246.547C406.034 246.547 408.847 244.672 408.847 240.922C408.847 239.854 408.599 238.956 408.105 238.227C407.636 237.471 406.985 236.807 406.152 236.234C405.344 235.661 404.381 235.154 403.261 234.711C402.167 234.242 400.982 233.76 399.706 233.266C397.935 232.562 396.373 231.859 395.019 231.156C393.691 230.427 392.571 229.62 391.659 228.734C390.774 227.823 390.097 226.794 389.628 225.648C389.185 224.503 388.964 223.161 388.964 221.625C388.964 219.75 389.394 218.096 390.253 216.664C391.112 215.206 392.258 213.995 393.691 213.031C395.123 212.042 396.751 211.299 398.573 210.805C400.422 210.31 402.323 210.062 404.277 210.062C407.74 210.062 410.839 210.661 413.573 211.859V218.344C410.631 216.417 407.245 215.453 403.417 215.453C402.219 215.453 401.139 215.596 400.175 215.883C399.211 216.143 398.378 216.521 397.675 217.016C396.998 217.51 396.464 218.109 396.073 218.812C395.709 219.49 395.527 220.245 395.527 221.078C395.527 222.12 395.709 222.992 396.073 223.695C396.464 224.398 397.024 225.023 397.753 225.57C398.482 226.117 399.368 226.612 400.409 227.055C401.451 227.497 402.636 227.979 403.964 228.5C405.735 229.177 407.323 229.88 408.73 230.609C410.136 231.312 411.334 232.12 412.323 233.031C413.313 233.917 414.068 234.945 414.589 236.117C415.136 237.289 415.409 238.682 415.409 240.297C415.409 242.276 414.967 243.995 414.081 245.453C413.222 246.911 412.063 248.122 410.605 249.086C409.146 250.049 407.467 250.766 405.566 251.234C403.665 251.703 401.672 251.938 399.589 251.938C395.474 251.938 391.907 251.143 388.886 249.555Z" fill="#242424"/>
</svg>
