<svg xmlns="http://www.w3.org/2000/svg" height="800" width="1200" viewBox="-31.96755 -16.397675 277.0521 98.38605"><path fill="#00326f" d="M21.4492.0002c-6.9937 0-10.724.4668-12.3565.4668-2.72 0-5.129-.0781-7.539-.0781C.2331.3889 0 .467 0 1.0109c0 .932.3105 1.0108 3.8086 1.0108 2.175 0 3.4199.6995 3.4199 6.8389v35.75c0 1.1656-.1564 1.3212-3.6533 1.3212-1.71 0-2.1767.1545-2.1767.9326 0 .777.5441.8545 1.3222.8545 2.4863 0 4.1963-.3105 7.46-.3105 3.4194 0 6.684.7763 9.9483.7763 10.8031 0 18.0312-4.1178 18.0312-12.8225 0-6.7612-4.5867-9.4042-8.2392-11.2705-1.5544-.7768-3.0313-1.1653-3.0313-1.3202 0-.2325 1.71-1.088 3.1875-2.0986 2.4875-1.7094 5.8292-4.4308 5.8292-9.9483C35.9064 5.2065 31.5537 0 21.4489 0zm133.1625.0889c-.4056 0-2.9745 1.1492-8.247 1.4872-1.1487.0675-1.6905-.0007-1.6905.8106 0 .7443.6767.8799 1.8935.8799 3.0413 0 3.4473-.0004 3.4473 4.2577v37.2463c0 1.2168-1.1497 1.1494-3.9209 1.1494-1.6231 0-1.6904.4067-1.6904.8799 0 .5406.1348.6757 1.6904.6757.9463 0 4.5296-.1347 6.8271-.1347 1.2182 0 2.705.1347 3.7188.1347 2.4331 0 2.9062-.0001 2.9062-.6757 0-.542.135-.9473-3.245-.9473-1.2163 0-1.6896-.7435-1.6896-6.3535 0-1.9613.338-7.3006.338-33.0563 0-2.0275.3378-4.4622.3378-5.2735 0-.7437-.3383-1.081-.6758-1.081zM98.4905.1565c-.6088 0-4.5976 1.4863-9.4639 1.4863-.7437 0-.8789.2707-.8789.9463 0 .4744.2704.6778 3.041.6778 1.825 0 2.3663.6084 2.3663 5.4072 0 14.2638-.2032 34.2725-.2032 36.2325 0 1.0138-.608 1.0137-2.9062 1.0137-1.6225 0-1.96.338-1.96.8799 0 .608.4056.6757 1.96.6757.9462 0 3.4477-.1347 5.7471-.1347 2.1631 0 5.2714.1347 6.2851.1347 1.487 0 1.8253-.0001 1.8253-.6757 0-.542-.2702-.88-1.8253-.88-4.1906 0-4.0547.0005-4.0547-3.1757v-4.2587c0-.6088.946-1.0826 2.0274-1.7588 1.1487-.7437 2.0946-1.419 2.3652-1.419.4056 0 3.2463 4.2595 6.085 7.504 2.8388 3.2443 3.4475 4.9344 4.665 4.9344.9463 0 2.9739-.0674 3.7851-.0674.6082 0 1.4867.0674 2.298.0674 1.4868 0 1.96-.1353 1.96-.6084 0-.5406-.5403-.8799-2.1622-.8799-2.2981 0-4.4614-3.3117-6.7608-6.083-4.7312-5.6787-5.9472-6.9625-5.9472-7.5712 0-.4731 4.1906-3.4466 7.5712-6.7598 2.095-2.0275 4.3927-4.9336 4.3927-5.543 0-.203-.27-.2705-.8106-.2705-.8106 0-4.7326.2022-5.6114.2022-.8112 0-2.0948-.2022-2.7705-.2022-.8787 0-1.2168.135-1.2168.6768 0 .6087.3378.7431 1.3515.7431 2.9738 0 3.1768.1356 3.1768 1.2168 0 1.4194-.6085 2.5688-3.2441 5.0694-2.1632 2.0288-9.1948 8.2471-10.8848 8.2471-.2025 0-.2695-.203-.2695-.4736 0-11.0181.4043-18.5887.4043-28.8637 0-2.1632.1357-5.0038.1357-5.882 0-.4055-.1351-.6083-.4726-.6083zm-79.3738 1.709c7.0725 0 10.337 7.4613 10.337 11.3476 0 6.1394-2.5647 7.6161-4.8185 9.3261 0 0-3.2648-.4668-8.0048-.4668-1.8663 0-2.876.1549-2.876-1.0889V4.1198c0-1.5544.2335-2.2539 5.3622-2.2539zm34.0825 17.4887c-6.1512 0-12.5737 5.6788-12.5737 15.21 0 11.2888 8.2475 13.9938 13.79 13.9938 5.4756 0 11.2216-4.2602 11.2216-4.5977 0-.1356-.2029-.541-.541-.541-.405 0-2.8385 1.623-7.2997 1.623-5.1382 0-12.372-2.5014-12.372-11.8301 0-1.5544.2036-1.8925 1.286-1.96 7.705-.4731 14.465-1.9594 16.2226-2.3663 1.8262-.4056 2.7725-.6756 2.7725-.9463 0-.5406-1.0824-2.1633-2.2324-3.5146-2.4331-2.8394-6.7587-5.0702-10.2744-5.0702zm78.8213 0c-6.1506 0-12.5738 5.6788-12.5738 15.21 0 11.2888 8.247 13.9938 13.79 13.9938 5.475 0 11.2217-4.2602 11.2217-4.5977 0-.1356-.2035-.541-.541-.541-.4057 0-2.8395 1.623-7.3008 1.623-5.1375 0-12.3701-2.5014-12.3701-11.8301 0-1.5544.203-1.8925 1.2841-1.96 7.7063-.4731 14.465-1.9594 16.2238-2.3663 1.825-.4056 2.7715-.6756 2.7715-.9463 0-.5406-1.0811-2.1633-2.2305-3.5146-2.4344-2.8394-6.7598-5.0702-10.2754-5.0702zm38.99 0c-6.1519 0-12.5738 5.6788-12.5738 15.21 0 11.2888 8.247 13.9938 13.79 13.9938 5.4757 0 11.2218-4.2602 11.2218-4.5977 0-.1356-.2035-.541-.541-.541-.4057 0-2.8383 1.623-7.3008 1.623-5.1369 0-12.3701-2.5014-12.3701-11.8301 0-1.5544.203-1.8925 1.2842-1.96 7.7063-.4731 14.4663-1.9594 16.2238-2.3663 1.825-.4056 2.7715-.6756 2.7715-.9463 0-.5406-1.081-2.1633-2.2305-3.5146-2.4331-2.8394-6.76-5.0702-10.2744-5.0702zm-94.2875.4727c-1.0825 0-2.367.3379-3.4483.3379-1.3518 0-2.6365-.1358-4.9346-.1358-1.15 0-1.082.2038-1.082 1.0156 0 .7438-.0004.6758 1.2178.6758 3.785 0 3.6493.1352 3.6493 4.7315v18.5225c0 .9463-.2023 1.0137-2.9736 1.0137-1.6231 0-1.6905.1346-1.6905.8115 0 .6763.1348.6758 1.6905.6758.9463 0 3.2449-.3379 5.543-.3379 2.1638 0 6.6924.3379 7.6386.3379 1.7575 0 1.8253.068 1.8253-.6758 0-.6094-.0678-.8115-1.8253-.8115-5.0018 0-5.204-.0006-5.204-3.3125V28.7493c0-2.8387 1.4862-4.461 5.4062-4.461 3.3806 0 4.1923 2.7715 5.1386 2.7715.4056 0 1.4864-2.974 1.4864-3.6503 0-1.757-3.109-3.2452-4.3272-3.2452-3.1768 0-6.3525 3.5157-7.3662 3.5157-.2706 0-.3379-.473-.3379-1.081 0-.2032.1348-1.6903.1348-2.0285 0-.5418-.2704-.7441-.541-.7441zm134.975.0673c-.9463 0-2.7714.2706-3.7851.2706-1.8263 0-3.0428-.1348-4.8673-.1348-1.2169 0-1.4199-.0005-1.4199.8789 0 .6762.2706.6768 2.3663.6768 2.2975 0 2.2969.405 2.2969 2.4326 0 .9462-2.4328 7.9775-4.0548 12.8437-1.0812 3.1782-1.4869 4.124-1.96 4.124-.2706 0-1.0821-1.149-1.624-2.5683-4.055-10.4113-5.8125-12.7775-5.8125-14.7375 0-1.5544.4055-1.96 2.0274-1.96 1.4194 0 1.6904-.0677 1.6904-.6758 0-.745-.271-1.0147-1.6904-1.0147-2.1625 0-4.5294.2022-6.4219.2022-1.6219 0-2.0947-.1348-3.9872-.1348-1.2169 0-1.419.3385-1.419.9473 0 .6081.0671.6758 1.419.6758 1.2162 0 1.6898.3385 3.3798 4.3935 3.7182 8.788 9.125 21.2937 9.125 22.0375 0 2.0275-5.8117 10.0036-8.246 13.045-2.2982 2.9075-5.4757 3.313-5.4757 3.7187 0 .3381.6758.6758 1.8252.6758 1.487 0 1.9598-.5406 3.9873-.8106 1.4881-.203 2.2992-.2709 3.043-1.7577 2.1625-4.4619 5.2051-9.9378 9.4639-20.28 5.34-12.9775 8.3148-21.09 9.8017-21.09.8113 0 1.7569-.3382 1.7569-.9463 0-.7444-.3377-.8125-1.419-.8125zm-159.175.88c3.11 0 7.0976 5.0013 7.0976 6.6913 0 .4056-.0667.5408-.8105.6758-5.07.8112-8.7204 1.6914-12.2354 1.6914-.8119 0-.8115-.0682-.8115-.4063 0-.9475 1.6228-8.6524 6.7597-8.6524zm78.82 0c3.1106 0 7.0986 5.0013 7.0986 6.6913 0 .4056-.0677.5408-.8115.6758-5.07.8112-8.72 1.6914-12.2344 1.6914-.8112 0-.8115-.0682-.8115-.4063 0-.9475 1.6219-8.6524 6.7587-8.6524zm38.99 0c3.1094 0 7.0986 5.0013 7.0986 6.6913 0 .4056-.0677.5408-.8115.6758-5.07.8112-8.7198 1.6914-12.2354 1.6914-.8112 0-.8115-.0682-.8115-.4063 0-.9475 1.6216-8.6524 6.7597-8.6524zM16.558 23.5475c8.4706 0 14.2212 5.4405 14.2212 12.4355 0 6.7613-4.3515 10.8038-10.2577 10.8038-2.4875 0-4.9735-.5444-5.8291-1.4775-.6988-.7775-.9326-5.1291-.9326-5.8291V25.5678c0-1.7094.6225-2.0205 2.7988-2.0205zM55.0967 55.274c-1.5968 0-2.9287.9633-2.9287 2.5596 0 3.0338 3.9971 2.4929 3.9971 4.1816 0 .6725-.5147 1.253-1.5566 1.253-.6994 0-1.5829-.329-2.3223-.8302l-.6591 1.1612c.7387.5137 1.7408 1.0029 2.9815 1.0029 1.7281 0 3.166-1.1097 3.166-2.6396 0-3.0744-3.9972-2.1498-3.9972-4.1953 0-.6725.4488-1.1601 1.3194-1.1601.7781 0 1.3845.264 2.0576.6064l.5674-1.1348c-.7643-.4743-1.6756-.8046-2.625-.8046zm31.8663 0c-2.7175 0-3.9306 1.9397-3.9306 4.6572 0 2.5857 1.2 4.671 3.9306 4.671s3.9316-2.0853 3.9316-4.671c0-2.7175-1.2141-4.6572-3.9316-4.6572zm21.1837 0c-2.7175 0-4.0507 1.9527-4.0507 4.6709 0 2.77 1.215 4.6572 3.998 4.6572 1.2137 0 2.3484-.5023 3.2715-1.3466l-.8047-1.0283c-.7387.673-1.5827 1.041-2.3877 1.041-1.6757 0-2.4678-1.1994-2.4678-3.3369 0-2.1238.8452-3.3243 2.4414-3.3243.8575 0 1.4907.3038 2.1895.8838l.8183-1.0556c-.95-.7788-1.8865-1.1612-3.0077-1.1612zm34.3463 0c-2.7181 0-3.9306 1.9397-3.9306 4.6572 0 2.5857 1.2 4.671 3.9306 4.671s3.9316-2.0853 3.9316-4.671c0-2.7175-1.2141-4.6572-3.9316-4.6572zm-126.2375.1318l-1.5176.1592v8.8916h1.5702v-6.0684h.0264l3.8125 6.0684h1.3985v-9.0371h-1.5703v5.9375h-.039l-3.6806-5.9511zm20.14 0v9.0508h5.4882l.1192-1.333h-4.0372v-2.5587h3.3907v-1.333h-3.3907v-2.493h3.8125v-1.333zm56.5187 0v9.0508h1.5694v-3.8917h3.3253v-1.333h-3.3253v-2.493h3.707v-1.333zm24.27 0l-1.833.1455-3.1797 8.9053h1.4649l.751-2.1778h3.6416l.752 2.1778h1.6103l-3.207-9.0508zm15.0888 0v9.0508h1.5694v-3.8917h3.3252v-1.333h-3.3252v-2.493h3.708v-1.333zm24.7187 0l-1.5176.1592v8.8916h1.5694v-6.0684h.0274l3.8115 6.0684h1.3985v-9.0371h-1.5694v5.9375h-.04l-3.6798-5.9511zm15.1275 0l-1.834.1455-3.1797 8.9053h1.4649l.752-2.1778h3.6405l.752 2.1778h1.6104l-3.206-9.0508zm-166.25.0136v5.8965c0 2.032 1.121 3.2862 3.338 3.2862 2.2024 0 3.3242-1.2539 3.3242-3.2989v-5.8838H10.961v5.9893c0 1.1219-.4739 1.8594-1.7539 1.8594-1.293 0-1.7685-.738-1.7685-1.873v-5.9757H5.8694zm17.9125 0v9.0372h1.5694v-9.0372zm3.1123 0l3.1132 9.0372h1.7275l3.127-9.0372h-1.544l-1.7275 5.0528s-.1713.5139-.62 2.0576h-.0792c-.4356-1.5437-.6065-2.0712-.6065-2.0712l-1.7285-5.0392h-1.662zm17.1862 0v9.0372h1.5694v-3.6153h.752c.5675 0 .8974.5287 1.1611 1.0694l1.2529 2.5458h1.7285l-1.7285-3.2587c-.105-.2113-.2637-.4492-.5537-.621v-.0255c1.1869-.4487 1.7021-1.3718 1.7021-2.453 0-1.57-.9899-2.6788-2.9824-2.6788h-2.9013zm15.5638 0v9.0372h1.5694v-9.0372zm3.376 0v1.3458h2.3886v7.6914h1.5694v-7.7052h2.2822l.1192-1.332zm7.3867 0l2.8497 5.171v3.8662h1.5693v-3.8663l2.8507-5.1709h-1.7295l-1.2793 2.5733s-.1583.3289-.6064 1.332h-.039c-.4756-1.0031-.6475-1.332-.6475-1.332l-1.2002-2.5733H70.407zm51.2563 0v9.0372h5.3427l.1192-1.333h-3.8917v-7.7042zm6.9902 0v9.0372h1.5694v-9.0372zm19.125 0v9.0372h1.5703v-3.6153h.752c.5668 0 .8973.5287 1.161 1.0694l1.253 2.5458h1.7286l-1.7285-3.2587c-.105-.2113-.2637-.4492-.5537-.621v-.0255c1.1868-.4487 1.7021-1.3718 1.7021-2.453 0-1.57-.99-2.6788-2.9824-2.6788h-2.9024zm16.475 0v9.0372h1.5694v-9.0372zm-77.2925 1.1875c1.557 0 2.3087 1.3587 2.3087 3.3243s-.7642 3.3369-2.3087 3.3369c-1.5562 0-2.3212-1.3719-2.3212-3.3507 0-1.9656.765-3.3105 2.3212-3.3105zm55.5288 0c1.5569 0 2.3086 1.3587 2.3086 3.3243s-.7648 3.3369-2.3086 3.3369c-1.5569 0-2.3213-1.3719-2.3213-3.3507 0-1.9656.7645-3.3105 2.3213-3.3105zm-96.84.1583h1.293c1.0687 0 1.4121.5013 1.4121 1.3457 0 .8575-.4357 1.4111-1.3857 1.4111h-1.3194zm103.6987 0h1.293c1.0688 0 1.4122.5013 1.4122 1.3457 0 .8575-.4358 1.4111-1.3858 1.4111h-1.3194zm-33.1725.2373h.0264c.62 1.873.7256 2.163.7256 2.163l.6992 1.9923h-2.8632l.6992-1.9922s.106-.29.7129-2.1631zm54.935 0h.0264c.62 1.873.7266 2.163.7266 2.163l.6982 1.9923h-2.8632l.7002-1.9922s.105-.29.7119-2.1631z"/></svg>